<svg height="512pt" fill="#1b272e" viewBox="-7 0 512 512" width="512pt" xmlns="http://www.w3.org/2000/svg"><path d="m455.789062 344.679688c-3.71875 0-7.132812-2.066407-8.859374-5.367188l-32.933594-62.933594c-1.621094-3.101562-1.507813-6.824218.304687-9.816406s5.058594-4.820312 8.554688-4.820312h65.871093c3.5 0 6.742188 1.828124 8.554688 4.820312s1.929688 6.714844.304688 9.816406l-32.933594 62.933594c-1.726563 3.300781-5.140625 5.367188-8.863282 5.367188zm-16.414062-62.9375 16.414062 31.367187 16.417969-31.367187zm0 0"/><path d="m488.726562 250.257812h-65.871093c-3.496094 0-6.742188-1.828124-8.554688-4.820312s-1.925781-6.714844-.304687-9.816406l32.933594-62.933594c1.726562-3.296875 5.140624-5.367188 8.859374-5.367188 3.722657 0 7.136719 2.066407 8.863282 5.367188l32.933594 62.933594c1.621093 3.101562 1.507812 6.824218-.304688 9.816406s-5.054688 4.820312-8.554688 4.820312zm-49.351562-20h32.832031l-16.417969-31.367187zm0 0"/><path d="m386.265625 208.332031c5.523437 0 10-4.476562 10-10v-166.394531c0-17.609375-14.328125-31.9375-31.9375-31.9375h-332.390625c-17.609375 0-31.9375 14.328125-31.9375 31.9375v470.0625c0 5.523438 4.476562 10 10 10h376.265625c5.523437 0 10-4.476562 10-10v-191.308594c0-5.523437-4.476563-10-10-10s-10 4.476563-10 10v181.308594h-30v-371.996094c0-5.523437-4.476563-10-10-10h-276.265625c-5.523438 0-10 4.476563-10 10v371.996094h-30v-460.0625c0-6.582031 5.355469-11.9375 11.9375-11.9375h76.675781v48.496094c0 5.523437 4.476563 10 10 10h159.039063c5.523437 0 10-4.476563 10-10v-48.496094h76.675781c6.582031 0 11.9375 5.355469 11.9375 11.9375v166.398438c0 5.519531 4.476563 9.996093 10 9.996093zm-316.265625-78.328125h118.132812v267.671875c0 5.523438 4.476563 10 10 10 5.523438 0 10-4.476562 10-10v-267.671875h118.132813v361.996094h-256.265625zm197.652344-71.507812h-139.039063v-38.496094h139.039063zm0 0"/><path d="m386.261719 262.328125c-.648438 0-1.308594-.058594-1.949219-.1875-.640625-.132813-1.269531-.320313-1.871094-.570313-.609375-.25-1.1875-.5625-1.726562-.921874-.550782-.371094-1.0625-.789063-1.523438-1.25-.457031-.460938-.878906-.96875-1.238281-1.519532-.359375-.539062-.671875-1.121094-.921875-1.71875-.25-.601562-.4375-1.230468-.566406-1.871094-.132813-.648437-.203125-1.308593-.203125-1.960937 0-.648437.070312-1.308594.203125-1.949219.128906-.640625.316406-1.269531.566406-1.871094.25-.609374.5625-1.1875.921875-1.730468.359375-.546875.78125-1.058594 1.238281-1.519532.460938-.457031.972656-.878906 1.523438-1.238281.539062-.359375 1.117187-.671875 1.726562-.921875.601563-.25 1.230469-.4375 1.871094-.570312 1.289062-.257813 2.609375-.257813 3.910156 0 .628906.132812 1.261719.320312 1.871094.570312.597656.25 1.179688.5625 1.71875.921875.550781.359375 1.058594.78125 1.519531 1.238281.460938.460938.882813.972657 1.25 1.519532.359375.542968.671875 1.121094.921875 1.730468.25.601563.441406 1.230469.570313 1.871094.128906.640625.1875 1.300782.1875 1.949219 0 .652344-.058594 1.3125-.1875 1.960937-.132813.640626-.320313 1.269532-.570313 1.871094-.25.597656-.558594 1.179688-.921875 1.71875-.367187.550782-.789062 1.058594-1.25 1.519532-.460937.460937-.96875.878906-1.519531 1.25-.539062.359374-1.121094.671874-1.71875.921874-.609375.25-1.242188.4375-1.871094.570313-.648437.128906-1.308594.1875-1.960937.1875zm0 0"/></svg>
