<?xml version="1.0" encoding="utf-8"?>
<!-- Generator: Adobe Illustrator 19.0.0, SVG Export Plug-In . SVG Version: 6.00 Build 0)  -->
<svg version="1.1" id="Warstwa_1" xmlns="http://www.w3.org/2000/svg" xmlns:xlink="http://www.w3.org/1999/xlink" x="0px" y="0px"
	 viewBox="-51 175.3 491.6 491.6" style="enable-background:new -51 175.3 491.6 491.6;" xml:space="preserve">
<style type="text/css">
	.st0{opacity:0.52;fill:#3F3F3F;}
	.st1{fill:#BC3939;}
	.st2{fill:#8C1818;}
	.st3{display:none;}
</style>
<g id="Warstwa_2">
</g>
<g id="location-pin">
	<g>
		<g>
			<ellipse class="st0" cx="194.8" cy="669.2" rx="54.5" ry="20.3"/>
			<path class="st1" d="M194.8,175.3c-92,0-166.8,74.8-166.8,166.8c0,37,21.8,93.2,68.5,176.9c31.9,57.1,63.6,105.4,65,107.4
				l22.9,34.8c2.3,3.5,6.2,5.6,10.4,5.6s8.1-2.1,10.4-5.6l22.9-34.8c1.3-2,32.8-49.9,65-107.4c46.7-83.7,68.5-140,68.5-176.9
				C361.6,250.1,286.8,175.3,194.8,175.3z"/>
			<path class="st2" d="M194.8,273.6c-37.2,0-67.5,30.3-67.5,67.5s30.3,67.5,67.5,67.5s67.5-30.3,67.5-67.5S232,273.6,194.8,273.6z"
				/>
			<path class="st3" d="M194.8,175.3c-92,0-166.8,74.8-166.8,166.8c0,37,21.8,93.2,68.5,176.9c31.9,57.1,63.6,105.4,65,107.4
				l22.9,34.8c2.3,3.5,6.2,5.6,10.4,5.6s8.1-2.1,10.4-5.6l22.9-34.8c1.3-2,32.8-49.9,65-107.4c46.7-83.7,68.5-140,68.5-176.9
				C361.6,250.1,286.8,175.3,194.8,175.3z M271.3,506.9c-31.7,56.8-62.7,103.9-64,105.8h-25c-1.3-2-32.6-49.5-64-105.9
				C74.9,429.2,53,373.8,53,342.1c0-78.2,63.6-141.8,141.8-141.8s141.8,63.6,141.8,141.8C336.6,373.8,314.6,429.2,271.3,506.9z"/>
			<path class="st3" d="M194.8,273.6c-37.2,0-67.5,30.3-67.5,67.5s30.3,67.5,67.5,67.5s67.5-30.3,67.5-67.5S232,273.6,194.8,273.6z
				 M194.8,390.4c-27.2,0-49.3-22.1-49.3-49.3s22.1-49.3,49.3-49.3s49.3,22.1,49.3,49.3S222,390.4,194.8,390.4z"/>
		</g>
	</g>
</g>
</svg>
