<svg xmlns="http://www.w3.org/2000/svg" height="937.5pt" version="1.1" viewBox="0 0 937.5 937.5" width="937.5pt">
<g id="surface1">
<path d="M 171.875 421.875 C 76.996094 421.992188 0.117188 498.871094 0 593.75 C 0 684.15625 152.808594 891.171875 159.375 900 C 162.324219 903.964844 166.984375 906.308594 171.921875 906.308594 C 176.867188 906.308594 181.519531 903.964844 184.472656 900 C 190.941406 891.171875 343.75 684.15625 343.75 593.75 C 343.632812 498.871094 266.753906 421.992188 171.875 421.875 Z M 171.875 864.0625 C 123.4375 796.152344 31.25 654.515625 31.25 593.75 C 31.25 516.085938 94.210938 453.125 171.875 453.125 C 249.539062 453.125 312.5 516.085938 312.5 593.75 C 312.5 654.488281 220.3125 796.140625 171.875 864.0625 Z M 171.875 864.0625 " style=" stroke:none;fill-rule:nonzero;fill:rgb(0%,0%,0%);fill-opacity:1;" />
<path d="M 171.875 500 C 120.109375 500 78.125 541.984375 78.125 593.75 C 78.125 645.515625 120.109375 687.5 171.875 687.5 C 223.640625 687.5 265.625 645.515625 265.625 593.75 C 265.570312 541.992188 223.632812 500.054688 171.875 500 Z M 171.875 656.25 C 137.359375 656.25 109.375 628.265625 109.375 593.75 C 109.375 559.234375 137.359375 531.25 171.875 531.25 C 206.390625 531.25 234.375 559.234375 234.375 593.75 C 234.375 628.265625 206.390625 656.25 171.875 656.25 Z M 171.875 656.25 " style=" stroke:none;fill-rule:nonzero;fill:rgb(0%,0%,0%);fill-opacity:1;" />
<path d="M 765.625 0 C 670.746094 0.117188 593.867188 76.996094 593.75 171.875 C 593.75 262.28125 746.558594 469.296875 753.125 478.125 C 756.074219 482.089844 760.734375 484.433594 765.671875 484.433594 C 770.617188 484.433594 775.269531 482.089844 778.222656 478.125 C 784.691406 469.296875 937.5 262.28125 937.5 171.875 C 937.382812 76.996094 860.503906 0.117188 765.625 0 Z M 765.625 442.1875 C 717.1875 374.296875 625 232.660156 625 171.875 C 625 94.210938 687.960938 31.25 765.625 31.25 C 843.289062 31.25 906.25 94.210938 906.25 171.875 C 906.25 232.613281 814.0625 374.265625 765.625 442.1875 Z M 765.625 442.1875 " style=" stroke:none;fill-rule:nonzero;fill:rgb(0%,0%,0%);fill-opacity:1;" />
<path d="M 765.625 78.125 C 713.859375 78.125 671.875 120.109375 671.875 171.875 C 671.875 223.640625 713.859375 265.625 765.625 265.625 C 817.390625 265.625 859.375 223.640625 859.375 171.875 C 859.320312 120.117188 817.382812 78.179688 765.625 78.125 Z M 765.625 234.375 C 731.109375 234.375 703.125 206.390625 703.125 171.875 C 703.125 137.359375 731.109375 109.375 765.625 109.375 C 800.140625 109.375 828.125 137.359375 828.125 171.875 C 828.125 206.390625 800.140625 234.375 765.625 234.375 Z M 765.625 234.375 " style=" stroke:none;fill-rule:nonzero;fill:rgb(0%,0%,0%);fill-opacity:1;" />
<path d="M 567.089844 512.5 C 534.453125 539.160156 515.554688 579.097656 515.625 621.230469 L 515.625 734.375 C 515.507812 829.253906 438.628906 906.132812 343.75 906.25 L 203.125 906.25 L 203.125 937.5 L 343.75 937.5 C 455.878906 937.375 546.75 846.503906 546.875 734.375 L 546.875 621.230469 C 546.898438 588.476562 561.597656 557.460938 586.9375 536.710938 C 612.273438 515.941406 645.582031 507.636719 677.703125 514.0625 L 762.5 530.9375 L 768.625 500.3125 L 683.785156 483.34375 C 642.480469 475.042969 599.640625 485.746094 567.089844 512.5 Z M 567.089844 512.5 " style=" stroke:none;fill-rule:nonzero;fill:rgb(0%,0%,0%);fill-opacity:1;" />
</g>
</svg>