<svg xmlns="http://www.w3.org/2000/svg" width="160.0" height="160.0"> 
 <style type="text/css"><![CDATA[@keyframes pulse2 {0% {stroke-width: 0.1} 50% {stroke-width: 1.0} 100% {stroke-width: 0.1}
@-moz-keyframes pulse2 {0% {stroke-width: 0.1} 50% {stroke-width: 1.0} 100% {stroke-width: 0.1}
]]></style> 
 <g transform="translate(80.0,80.0)"> 
  <g transform="matrix(0.707 0.409 -0.707 0.409 0 -0.816)"> 
   <g transform="translate(-80.0,-80.0)"> 
    <path fill="#ababab" stroke="lightgray" stroke-width="0.25" fill-rule="evenodd" d="M 59.2,119.1 59.2,120.7 74.1,120.7 74.1,119.1 90.30000000000001,119.1 90.30000000000001,102.8 74.7,102.8 74.7,102.7 74.2,102.7 74.2,102.3 70.3,102.3 70.3,96.0 63.0,96.0 63.0,102.3 59.1,102.3 59.1,102.9 42.9,102.9 42.9,119.1 Z " /> 
    <path fill="#ababab" stroke="white" stroke-width="0" fill-rule="evenodd" d="M 67.8,103.8 65.5,103.8 65.5,102.3 67.8,102.3 Z " /> 
    <path fill="#ababab" stroke="white" stroke-width="0" fill-rule="evenodd" d="M 63.0,102.3 70.3,102.3 70.3,100.3 63.0,100.3 Z " /> 
    <path fill="#ababab" stroke="white" stroke-width="0" fill-rule="evenodd" d="M 57.7,109.2 59.3,109.2 59.3,112.8 57.7,112.8 Z " /> 
    <path fill="#ababab" stroke="white" stroke-width="0" fill-rule="evenodd" d="M 78.6,112.4 73.9,112.4 73.9,109.5 70.2,109.5 70.2,107.3 75.4,107.3 75.4,107.6 79.7,107.6 79.7,109.2 78.6,109.2 Z " /> 
    <path fill="#ababab" stroke="white" stroke-width="0" fill-rule="evenodd" d="M 78.6,112.4 78.6,109.2 84.2,109.2 84.2,112.4 Z " /> 
    <path fill="#ababab" stroke="white" stroke-width="0" fill-rule="evenodd" d="M 70.2,109.5 70.2,107.3 67.8,107.3 67.8,103.8 65.5,103.8 65.5,107.3 63.400000000000006,107.3 63.400000000000006,109.5 Z " /> 
    <path fill="#ababab" stroke="white" stroke-width="0" fill-rule="evenodd" d="M 63.400000000000006,107.5 63.400000000000006,109.5 59.3,109.5 59.3,109.2 57.7,109.2 57.7,112.5 49.0,112.5 49.0,109.3 53.5,109.3 53.5,107.6 63.0,107.6 63.0,107.5 Z " /> 
    <path fill="#bfc2c7" stroke="white" stroke-width="0.1" fill-rule="evenodd" d="M 63.400000000000006,107.3 63.400000000000006,102.3 65.5,102.3 65.5,107.3 Z " /> 
    <path fill="#bfc2c7" stroke="white" stroke-width="0.1" fill-rule="evenodd" d="M 67.8,102.3 70.3,102.3 70.3,103.3 70.2,103.3 70.2,107.3 67.8,107.3 Z " /> 
    <path fill="#bfc2c7" stroke="white" stroke-width="0.1" fill-rule="evenodd" d="M 63.0,96.0 70.3,96.0 70.3,100.3 63.0,100.3 Z " /> 
    <path fill="#bfc2c7" stroke="white" stroke-width="0.1" fill-rule="evenodd" d="M 75.4,102.8 79.80000000000001,102.8 79.80000000000001,107.6 75.4,107.6 Z " /> 
    <path fill="#bfc2c7" stroke="white" stroke-width="0.1" fill-rule="evenodd" d="M 78.7,119.1 75.6,119.1 75.6,112.4 78.7,112.4 Z " /> 
    <path fill="#bfc2c7" stroke="white" stroke-width="0.1" fill-rule="evenodd" d="M 78.7,112.4 80.0,112.4 80.0,119.1 78.7,119.1 Z " /> 
    <path fill="#bfc2c7" stroke="white" stroke-width="0.1" fill-rule="evenodd" d="M 80.0,112.4 84.2,112.4 84.2,119.1 80.0,119.1 Z " /> 
    <path fill="#bfc2c7" stroke="white" stroke-width="0.1" fill-rule="evenodd" d="M 84.2,115.2 90.30000000000001,115.2 90.30000000000001,119.1 84.2,119.1 Z " /> 
    <path fill="#bfc2c7" stroke="white" stroke-width="0.1" fill-rule="evenodd" d="M 90.30000000000001,102.8 90.30000000000001,115.2 84.2,115.2 84.2,102.8 Z " /> 
    <path fill="#bfc2c7" stroke="white" stroke-width="0.1" fill-rule="evenodd" d="M 79.7,109.2 79.7,107.6 79.80000000000001,107.6 79.80000000000001,102.8 84.2,102.8 84.2,109.2 Z " /> 
    <path fill="#bfc2c7" stroke="white" stroke-width="0.1" fill-rule="evenodd" d="M 59.3,109.5 73.9,109.5 73.9,112.4 75.6,112.4 75.6,119.1 74.1,119.1 74.1,120.8 59.2,120.7 59.2,119.1 57.7,119.1 57.7,112.8 59.3,112.8 Z " /> 
    <path fill="#bfc2c7" stroke="white" stroke-width="0.1" fill-rule="evenodd" d="M 53.3,112.5 57.7,112.5 57.7,119.1 53.3,119.1 Z " /> 
    <path fill="#bfc2c7" stroke="white" stroke-width="0.1" fill-rule="evenodd" d="M 53.3,119.1 53.3,112.5 49.0,112.5 49.0,119.1 Z " /> 
    <path fill="#bfc2c7" stroke="white" stroke-width="0.1" fill-rule="evenodd" d="M 49.0,109.3 53.5,109.3 53.5,102.9 49.0,102.9 Z " /> 
    <path fill="#bfc2c7" stroke="white" stroke-width="0.1" fill-rule="evenodd" d="M 53.5,107.6 57.8,107.6 57.8,102.9 53.5,102.9 Z " /> 
    <path fill="#bfc2c7" stroke="white" stroke-width="0.1" fill-rule="evenodd" d="M 63.400000000000006,107.5 63.0,107.5 63.0,107.6 57.8,107.6 57.8,102.9 59.1,102.9 59.1,102.3 63.400000000000006,102.3 Z " /> 
    <path fill="#bfc2c7" stroke="white" stroke-width="0.1" fill-rule="evenodd" d="M 49.0,115.2 42.9,115.2 42.9,102.9 49.0,102.9 Z " /> 
    <path fill="#bfc2c7" stroke="white" stroke-width="0.1" fill-rule="evenodd" d="M 49.0,119.1 49.0,115.2 42.9,115.2 42.9,119.1 Z " /> 
    <path fill="#bfc2c7" stroke="white" stroke-width="0.1" fill-rule="evenodd" d="M 70.3,102.3 74.2,102.3 74.2,102.7 74.7,102.7 74.7,102.8 75.4,102.8 75.4,107.3 70.2,107.3 70.2,103.3 70.3,103.3 Z " /> 
    <image x="63.61000000000001" y="103.96" width="1.6799999999999955" height="1.6799999999999955" href="http://mapy.utp.edu.pl/images/stairs_white.svg" /> 
    <image x="68.10602267034884" y="104.00602267034883" width="1.5879546593023353" height="1.5879546593023353" href="http://mapy.utp.edu.pl/images/stairs_white.svg" /> 
    <image x="66.10081879129017" y="102.50081879129016" width="1.0983624174196727" height="1.0983624174196727" href="http://mapy.utp.edu.pl/images/small_stairs_white.svg" /> 
    <image x="57.86" y="110.26" width="1.2799999999999956" height="1.2799999999999956" href="http://mapy.utp.edu.pl/images/small_stairs_white.svg" /> 
    <text x="66.6" y="97.6" alignment-baseline="middle" text-anchor="middle" fill="white" font-weight="normal" font-size="0.8599999999999994" font-family="Open Sans">
     P3WC1
    </text> 
    <text x="77.4" y="105.2" alignment-baseline="middle" text-anchor="middle" fill="white" font-weight="normal" font-size="0.8800000000000012" font-family="Open Sans">
     B8
    </text> 
    <text x="77.30000000000001" y="115.7" alignment-baseline="middle" text-anchor="middle" fill="white" font-weight="normal" font-size="0.6200000000000018" font-family="Open Sans">
     306
    </text> 
    <text x="79.4" y="115.8" alignment-baseline="middle" text-anchor="middle" fill="white" font-weight="normal" font-size="0.25999999999999945" font-family="Open Sans">
     305
    </text> 
    <text x="82.0" y="115.8" alignment-baseline="middle" text-anchor="middle" fill="white" font-weight="normal" font-size="0.8400000000000006" font-family="Open Sans">
     304
    </text> 
    <text x="87.2" y="117.2" alignment-baseline="middle" text-anchor="middle" fill="white" font-weight="normal" font-size="0.7799999999999984" font-family="Open Sans">
     303
    </text> 
    <text x="87.2" y="109.1" alignment-baseline="middle" text-anchor="middle" fill="white" font-weight="normal" font-size="1.0" font-family="Open Sans">
     302
    </text> 
    <text x="82.1" y="106.3" alignment-baseline="middle" text-anchor="middle" fill="white" font-weight="normal" font-size="0.9" font-family="Open Sans">
     301
    </text> 
    <text x="66.7" y="115.3" alignment-baseline="middle" text-anchor="middle" fill="white" font-weight="normal" font-size="1.0" font-family="Open Sans"></text> 
    <text x="55.8" y="115.8" alignment-baseline="middle" text-anchor="middle" fill="white" font-weight="normal" font-size="0.8800000000000012" font-family="Open Sans">
     307
    </text> 
    <text x="51.15" y="115.8" alignment-baseline="middle" text-anchor="middle" fill="white" font-weight="normal" font-size="0.8599999999999994" font-family="Open Sans">
     308
    </text> 
    <text x="51.25" y="106.1" alignment-baseline="middle" text-anchor="middle" fill="white" font-weight="normal" font-size="0.9" font-family="Open Sans">
     309
    </text> 
    <text x="55.8" y="105.3" alignment-baseline="middle" text-anchor="middle" fill="white" font-weight="normal" font-size="0.8599999999999994" font-family="Open Sans">
     310
    </text> 
    <text x="60.7" y="105.1" alignment-baseline="middle" text-anchor="middle" fill="white" font-weight="normal" font-size="1.0" font-family="Open Sans">
     311
    </text> 
    <text x="45.95" y="109.05" alignment-baseline="middle" text-anchor="middle" fill="white" font-weight="normal" font-size="1.0" font-family="Open Sans">
     B3
    </text> 
    <text x="45.9" y="117.2" alignment-baseline="middle" text-anchor="middle" fill="white" font-weight="normal" font-size="0.7799999999999984" font-family="Open Sans">
     B3a
    </text> 
    <text x="72.7" y="105.2" alignment-baseline="middle" text-anchor="middle" fill="white" font-weight="normal" font-size="1.0" font-family="Open Sans">
     300
    </text> 
   </g> 
  </g> 
 </g> 
</svg>