<svg xmlns="http://www.w3.org/2000/svg" width="160.0" height="160.0"> 
 <style type="text/css"><![CDATA[@keyframes pulse2 {0% {stroke-width: 0.1} 50% {stroke-width: 1.0} 100% {stroke-width: 0.1}
@-moz-keyframes pulse2 {0% {stroke-width: 0.1} 50% {stroke-width: 1.0} 100% {stroke-width: 0.1}
]]></style> 
 <g transform="translate(80.0,80.0)"> 
  <g transform="matrix(0.707 0.409 -0.707 0.409 0 -0.816)"> 
   <g transform="translate(-80.0,-80.0)"> 
    <path fill="#ababab" stroke="lightgray" stroke-width="0.25" fill-rule="evenodd" d="M 44.0,102.9 58.6,102.9 58.6,102.7 59.2,102.7 59.2,102.3 63.1,102.3 63.1,96.0 70.3,96.0 70.3,102.3 74.2,102.3 74.2,102.6 74.80000000000001,102.6 74.80000000000001,102.8 89.4,102.8 89.4,102.7 90.0,102.7 90.0,102.4 90.80000000000001,102.4 90.80000000000001,103.2 90.6,103.2 90.6,103.7 90.4,103.7 90.4,118.1 90.5,118.1 90.5,118.7 90.80000000000001,118.7 90.80000000000001,119.5 90.0,119.5 90.0,119.3 89.4,119.3 89.4,119.1 74.2,119.1 74.2,120.7 59.2,120.7 59.2,119.1 43.0,119.1 43.0,102.9 Z " /> 
    <path fill="#ababab" stroke="white" stroke-width="0" fill-rule="evenodd" d="M 63.1,98.5 64.9,98.5 64.9,99.8 64.8,99.8 64.8,100.4 63.1,100.4 Z " /> 
    <path fill="#ababab" stroke="white" stroke-width="0" fill-rule="evenodd" d="M 70.3,98.5 70.3,100.4 68.6,100.4 68.6,99.8 68.5,99.8 68.5,98.5 Z " /> 
    <path fill="#ababab" stroke="white" stroke-width="0" fill-rule="evenodd" d="M 78.30000000000001,107.0 74.0,107.0 74.0,109.6 75.4,109.6 75.4,112.5 78.0,112.5 78.0,109.4 78.30000000000001,109.4 Z " /> 
    <path fill="#ababab" stroke="white" stroke-width="0" fill-rule="evenodd" d="M 75.4,112.5 78.0,112.5 78.0,112.9 82.5,112.9 82.5,114.3 75.4,114.3 Z " /> 
    <path fill="#ababab" stroke="white" stroke-width="0" fill-rule="evenodd" d="M 63.1,107.2 63.1,107.6 63.3,107.6 63.3,109.2 70.1,109.2 70.1,107.7 70.3,107.7 70.3,107.5 70.3,107.2 67.8,107.2 67.8,103.8 65.6,103.8 65.6,107.2 Z " /> 
    <path fill="#ababab" stroke="white" stroke-width="0" fill-rule="evenodd" d="M 58.0,115.0 55.1,115.0 55.1,109.4 55.0,109.4 55.0,107.6 59.400000000000006,107.6 59.400000000000006,109.2 59.2,109.2 59.2,109.5 58.0,109.5 Z " /> 
    <path fill="#ababab" stroke="white" stroke-width="0" fill-rule="evenodd" d="M 59.400000000000006,107.6 63.3,107.6 63.3,109.2 59.400000000000006,109.2 Z " /> 
    <path fill="#ababab" stroke="white" stroke-width="0" fill-rule="evenodd" d="M 70.3,107.5 70.3,107.7 70.1,107.7 70.1,109.2 74.0,109.2 74.0,107.5 Z " /> 
    <path fill="#ababab" stroke="white" stroke-width="0" fill-rule="evenodd" d="M 65.6,103.8 67.8,103.8 67.8,102.2 65.6,102.2 Z " /> 
    <path fill="#ababab" stroke="white" stroke-width="0" fill-rule="evenodd" d="M 63.1,102.2 70.3,102.2 70.3,100.4 63.1,100.4 Z " /> 
    <path fill="#bfc2c7" stroke="white" stroke-width="0.1" fill-rule="evenodd" d="M 66.7,96.0 66.7,98.5 63.1,98.5 63.1,96.0 Z " /> 
    <path fill="#bfc2c7" stroke="white" stroke-width="0.1" fill-rule="evenodd" d="M 66.7,96.0 70.3,96.0 70.3,98.5 66.7,98.5 Z " /> 
    <path fill="#bfc2c7" stroke="white" stroke-width="0.1" fill-rule="evenodd" d="M 78.30000000000001,102.8 78.30000000000001,107.0 74.0,107.0 74.0,102.3 74.2,102.3 74.2,102.6 74.80000000000001,102.6 74.80000000000001,102.8 Z " /> 
    <path fill="#bfc2c7" stroke="white" stroke-width="0.1" fill-rule="evenodd" d="M 64.9,98.5 64.9,99.8 64.8,99.8 64.8,100.4 68.6,100.4 68.6,99.8 68.5,99.8 68.5,98.5 Z " /> 
    <path fill="#bfc2c7" stroke="white" stroke-width="0.1" fill-rule="evenodd" d="M 43.0,102.9 48.2,102.9 48.2,109.4 43.0,109.4 Z " /> 
    <path fill="#bfc2c7" stroke="white" stroke-width="0.1" fill-rule="evenodd" d="M 48.2,102.9 55.0,102.9 55.0,109.4 48.2,109.4 Z " /> 
    <path fill="#bfc2c7" stroke="white" stroke-width="0.1" fill-rule="evenodd" d="M 43.0,109.4 43.0,112.6 49.8,112.6 49.8,109.4 Z " /> 
    <path fill="#bfc2c7" stroke="white" stroke-width="0.1" fill-rule="evenodd" d="M 78.30000000000001,102.8 89.4,102.8 89.4,102.7 90.0,102.7 90.0,102.4 90.80000000000001,102.4 90.80000000000001,103.2 90.6,103.2 90.6,103.7 90.4,103.7 90.4,109.4 78.30000000000001,109.4 Z " /> 
    <path fill="#bfc2c7" stroke="white" stroke-width="0.1" fill-rule="evenodd" d="M 78.30000000000001,109.4 78.0,109.4 78.0,112.9 82.5,112.9 82.5,109.4 Z " /> 
    <path fill="#bfc2c7" stroke="white" stroke-width="0.1" fill-rule="evenodd" d="M 82.5,112.9 82.5,112.9 82.5,119.1 89.4,119.1 89.4,119.3 90.0,119.3 90.0,119.5 90.80000000000001,119.5 90.80000000000001,118.7 90.5,118.7 90.5,118.1 90.4,118.1 90.4,112.9 Z " /> 
    <path fill="#bfc2c7" stroke="white" stroke-width="0.1" fill-rule="evenodd" d="M 82.5,109.4 90.4,109.4 90.4,112.9 82.5,112.9 Z " /> 
    <path fill="#bfc2c7" stroke="white" stroke-width="0.1" fill-rule="evenodd" d="M 82.5,119.1 82.5,114.3 78.2,114.3 78.2,119.1 Z " /> 
    <path fill="#bfc2c7" stroke="white" stroke-width="0.1" fill-rule="evenodd" d="M 78.2,114.3 73.80000000000001,114.3 73.80000000000001,119.1 78.2,119.1 Z " /> 
    <path fill="#bfc2c7" stroke="white" stroke-width="0.1" fill-rule="evenodd" d="M 73.80000000000001,114.3 75.4,114.3 75.4,112.8 73.80000000000001,112.8 Z " /> 
    <path fill="#bfc2c7" stroke="white" stroke-width="0.1" fill-rule="evenodd" d="M 73.7,112.8 75.4,112.8 75.4,109.6 73.7,109.6 Z " /> 
    <path fill="#bfc2c7" stroke="white" stroke-width="0.1" fill-rule="evenodd" d="M 74.0,102.3 70.3,102.3 70.3,107.5 74.0,107.5 Z " /> 
    <path fill="#bfc2c7" stroke="white" stroke-width="0.1" fill-rule="evenodd" d="M 55.1,119.1 55.1,115.0 58.0,115.0 58.0,117.1 59.2,117.1 59.2,119.1 Z " /> 
    <path fill="#bfc2c7" stroke="white" stroke-width="0.1" fill-rule="evenodd" d="M 43.0,112.6 55.1,112.6 55.1,119.1 43.0,119.1 Z " /> 
    <path fill="#bfc2c7" stroke="white" stroke-width="0.1" fill-rule="evenodd" d="M 49.8,109.4 55.1,109.4 55.1,112.6 49.8,112.6 Z " /> 
    <path fill="#bfc2c7" stroke="white" stroke-width="0.1" fill-rule="evenodd" d="M 59.2,120.7 59.2,117.1 58.0,117.1 58.0,112.4 59.2,112.4 59.2,109.2 74.0,109.2 74.0,109.6 73.7,109.6 73.7,112.8 73.80000000000001,112.8 73.80000000000001,119.1 74.2,119.1 74.2,120.7 Z " /> 
    <path fill="#bfc2c7" stroke="white" stroke-width="0.1" fill-rule="evenodd" d="M 55.0,102.9 58.6,102.9 58.6,102.7 59.2,102.7 59.2,102.3 59.400000000000006,102.3 59.400000000000006,107.6 55.0,107.6 Z " /> 
    <path fill="#bfc2c7" stroke="white" stroke-width="0.1" fill-rule="evenodd" d="M 59.400000000000006,102.3 63.1,102.3 63.1,107.6 59.400000000000006,107.6 Z " /> 
    <path fill="#bfc2c7" stroke="white" stroke-width="0.1" fill-rule="evenodd" d="M 65.6,107.2 65.6,102.2 63.1,102.2 63.1,107.2 Z " /> 
    <path fill="#bfc2c7" stroke="white" stroke-width="0.1" fill-rule="evenodd" d="M 67.8,107.2 70.3,107.2 70.3,102.2 67.8,102.2 Z " /> 
    <path fill="#bfc2c7" stroke="white" stroke-width="0.1" fill-rule="evenodd" d="M 58.0,109.5 59.2,109.5 59.2,112.4 58.0,112.4 Z " /> 
    <image x="63.548847176156016" y="96.64884717615601" width="1.302305647687979" height="1.302305647687979" href="http://mapy.utp.edu.pl/images/toilet_white.svg" /> 
    <image x="68.42117749006091" y="96.62117749006092" width="1.3576450198781744" height="1.3576450198781744" href="http://mapy.utp.edu.pl/images/toilet_white.svg" /> 
    <image x="65.97660522534373" y="98.90160522534373" width="1.4467895493125436" height="1.4467895493125436" href="http://mapy.utp.edu.pl/images/toilet_white.svg" /> 
    <image x="63.349999999999994" y="103.7" width="1.9999999999999944" height="1.9999999999999944" href="http://mapy.utp.edu.pl/images/stairs_white.svg" /> 
    <image x="68.05" y="103.7" width="2.0" height="2.0" href="http://mapy.utp.edu.pl/images/stairs_white.svg" /> 
    <image x="66.15594117965058" y="102.45594117965058" width="1.0881176406988304" height="1.0881176406988304" href="http://mapy.utp.edu.pl/images/small_stairs_white.svg" /> 
    <text x="76.4" y="104.9" alignment-baseline="middle" text-anchor="middle" fill="white" font-weight="normal" font-size="0.8600000000000023" font-family="Open Sans">
     200
    </text> 
    <text x="45.6" y="106.15" alignment-baseline="middle" text-anchor="middle" fill="white" font-weight="normal" font-size="1.0" font-family="Open Sans">
     215
    </text> 
    <text x="51.6" y="106.15" alignment-baseline="middle" text-anchor="middle" fill="white" font-weight="normal" font-size="1.0" font-family="Open Sans">
     214
    </text> 
    <text x="46.4" y="111.0" alignment-baseline="middle" text-anchor="middle" fill="white" font-weight="normal" font-size="0.6399999999999978" font-family="Open Sans">
     213
    </text> 
    <text x="84.4" y="106.1" alignment-baseline="middle" text-anchor="middle" fill="white" font-weight="normal" font-size="1.0" font-family="Open Sans">
     202
    </text> 
    <text x="80.4" y="110.9" alignment-baseline="middle" text-anchor="middle" fill="white" font-weight="normal" font-size="0.7000000000000001" font-family="Open Sans">
     204
    </text> 
    <text x="86.5" y="116.1" alignment-baseline="middle" text-anchor="middle" fill="white" font-weight="normal" font-size="1.0" font-family="Open Sans">
     205
    </text> 
    <text x="86.5" y="111.1" alignment-baseline="middle" text-anchor="middle" fill="white" font-weight="normal" font-size="0.7000000000000001" font-family="Open Sans">
     205A
    </text> 
    <text x="80.35" y="116.7" alignment-baseline="middle" text-anchor="middle" fill="white" font-weight="normal" font-size="0.8599999999999994" font-family="Open Sans">
     206
    </text> 
    <text x="76.4" y="116.7" alignment-baseline="middle" text-anchor="middle" fill="white" font-weight="normal" font-size="0.8799999999999983" font-family="Open Sans">
     207
    </text> 
    <text x="74.6" y="113.5" alignment-baseline="middle" text-anchor="middle" fill="white" font-weight="normal" font-size="0.30000000000000004" font-family="Open Sans">
     208
    </text> 
    <text x="74.55" y="111.2" alignment-baseline="middle" text-anchor="middle" fill="white" font-weight="normal" font-size="0.3400000000000006" font-family="Open Sans">
     209
    </text> 
    <text x="72.15" y="104.9" alignment-baseline="middle" text-anchor="middle" fill="white" font-weight="normal" font-size="0.7400000000000007" font-family="Open Sans">
     201
    </text> 
    <text x="56.5" y="117.0" alignment-baseline="middle" text-anchor="middle" fill="white" font-weight="normal" font-size="0.819999999999999" font-family="Open Sans">
     210
    </text> 
    <text x="49.05" y="115.85" alignment-baseline="middle" text-anchor="middle" fill="white" font-weight="normal" font-size="1.0" font-family="Open Sans">
     211
    </text> 
    <text x="52.45" y="111.0" alignment-baseline="middle" text-anchor="middle" fill="white" font-weight="normal" font-size="0.6399999999999978" font-family="Open Sans">
     212
    </text> 
    <text x="66.7" y="114.9" alignment-baseline="middle" text-anchor="middle" fill="white" font-weight="normal" font-size="1.0" font-family="Open Sans">
     B2
    </text> 
    <text x="56.5" y="105.4" alignment-baseline="middle" text-anchor="middle" fill="white" font-weight="normal" font-size="0.8800000000000012" font-family="Open Sans">
     216
    </text> 
    <text x="61.25" y="104.9" alignment-baseline="middle" text-anchor="middle" fill="white" font-weight="normal" font-size="0.7399999999999992" font-family="Open Sans">
     217
    </text> 
    <text x="58.6" y="110.95" alignment-baseline="middle" text-anchor="middle" fill="white" font-weight="normal" font-size="0.24000000000000057" font-family="Open Sans"></text> 
    <path fill="#ababab" stroke="lightgray" stroke-width="0.25" fill-rule="evenodd" d="M 21.5,86.8 21.5,109.2 33.5,109.2 33.5,86.8 Z " /> 
    <path fill="#ababab" stroke="white" stroke-width="0" fill-rule="evenodd" d="M 27.5,91.89999999999999 29.3,91.89999999999999 29.3,97.5 29.0,97.5 29.0,100.1 27.5,100.1 Z " /> 
    <path fill="#ababab" stroke="white" stroke-width="0" fill-rule="evenodd" d="M 27.5,100.1 30.3,100.1 30.3,103.4 27.5,103.4 Z " /> 
    <path fill="#fec901" stroke="white" stroke-width="0.1" fill-rule="evenodd" d="M 21.5,86.8 27.5,86.8 27.5,91.89999999999999 21.5,91.89999999999999 Z " /> 
    <path fill="#fec901" stroke="white" stroke-width="0.1" fill-rule="evenodd" d="M 21.5,91.89999999999999 27.5,91.89999999999999 27.5,97.5 21.5,97.5 Z " /> 
    <path fill="#fec901" stroke="white" stroke-width="0.1" fill-rule="evenodd" d="M 21.5,103.4 24.8,103.4 24.8,109.2 21.5,109.2 Z " /> 
    <path fill="#fec901" stroke="white" stroke-width="0.1" fill-rule="evenodd" d="M 21.5,97.5 21.5,103.4 27.5,103.4 27.5,97.5 Z " /> 
    <path fill="#fec901" stroke="white" stroke-width="0.1" fill-rule="evenodd" d="M 24.8,103.4 30.3,103.4 30.3,109.2 24.8,109.2 Z " /> 
    <path fill="#fec901" stroke="white" stroke-width="0.1" fill-rule="evenodd" d="M 30.3,103.4 33.5,103.4 33.5,109.2 30.3,109.2 Z " /> 
    <path fill="#fec901" stroke="white" stroke-width="0.1" fill-rule="evenodd" d="M 27.5,86.8 33.5,86.8 33.5,91.89999999999999 27.5,91.89999999999999 Z " /> 
    <path fill="#fec901" stroke="white" stroke-width="0.1" fill-rule="evenodd" d="M 30.3,100.1 33.5,100.1 33.5,103.4 30.3,103.4 Z " /> 
    <path fill="#fec901" stroke="white" stroke-width="0.1" fill-rule="evenodd" d="M 29.3,91.89999999999999 33.5,91.89999999999999 33.5,94.3 29.3,94.3 Z " /> 
    <path fill="#fec901" stroke="white" stroke-width="0.1" fill-rule="evenodd" d="M 29.3,94.3 33.5,94.3 33.5,97.5 29.3,97.5 Z " /> 
    <path fill="#fec901" stroke="white" stroke-width="0.1" fill-rule="evenodd" d="M 29.0,97.5 33.5,97.5 33.5,100.1 29.0,100.1 Z " /> 
    <image x="30.41207287718172" y="97.81207287718172" width="1.975854245636555" height="1.975854245636555" href="http://mapy.utp.edu.pl/images/stairs_white.svg" /> 
    <text x="24.5" y="89.39999999999999" alignment-baseline="middle" text-anchor="middle" fill="white" font-weight="normal" font-size="1.0" font-family="Open Sans">
     204
    </text> 
    <text x="24.5" y="95.1" alignment-baseline="middle" text-anchor="middle" fill="white" font-weight="normal" font-size="1.0" font-family="Open Sans">
     202
    </text> 
    <text x="23.1" y="106.0" alignment-baseline="middle" text-anchor="middle" fill="white" font-weight="normal" font-size="0.6600000000000001" font-family="Open Sans">
     209
    </text> 
    <text x="24.5" y="100.9" alignment-baseline="middle" text-anchor="middle" fill="white" font-weight="normal" font-size="1.0" font-family="Open Sans">
     B5
    </text> 
    <text x="28.3" y="107.1" alignment-baseline="middle" text-anchor="middle" fill="white" font-weight="normal" font-size="1.0" font-family="Open Sans">
     B6
    </text> 
    <text x="31.4" y="104.9" alignment-baseline="middle" text-anchor="middle" fill="white" font-weight="normal" font-size="0.6399999999999999" font-family="Open Sans">
     210
    </text> 
    <text x="30.5" y="89.39999999999999" alignment-baseline="middle" text-anchor="middle" fill="white" font-weight="normal" font-size="1.0" font-family="Open Sans">
     203
    </text> 
    <text x="31.4" y="101.8" alignment-baseline="middle" text-anchor="middle" fill="white" font-weight="normal" font-size="0.6399999999999999" font-family="Open Sans">
     211
    </text> 
    <text x="31.4" y="93.4" alignment-baseline="middle" text-anchor="middle" fill="white" font-weight="normal" font-size="0.48000000000000115" font-family="Open Sans">
     205
    </text> 
    <text x="31.4" y="95.1" alignment-baseline="middle" text-anchor="middle" fill="white" font-weight="normal" font-size="0.6400000000000006" font-family="Open Sans">
     206
    </text> 
   </g> 
  </g> 
 </g> 
</svg>