<svg xmlns="http://www.w3.org/2000/svg" width="160.0" height="160.0"> 
 <style type="text/css"><![CDATA[@keyframes pulse2 {0% {stroke-width: 0.1} 50% {stroke-width: 1.0} 100% {stroke-width: 0.1}
@-moz-keyframes pulse2 {0% {stroke-width: 0.1} 50% {stroke-width: 1.0} 100% {stroke-width: 0.1}
]]></style> 
 <g transform="translate(80.0,80.0)"> 
  <g transform="matrix(0.707 0.409 -0.707 0.409 0 -0.816)"> 
   <g transform="translate(-80.0,-80.0)"> 
    <path fill="#ababab" stroke="lightgray" stroke-width="0.25" fill-rule="evenodd" d="M 90.9,102.8 90.9,119.2 74.80000000000001,119.2 74.80000000000001,120.6 59.8,120.6 59.8,119.1 43.5,119.1 43.5,112.1 43.9,112.1 43.9,109.7 43.5,109.7 43.5,102.8 59.8,102.8 59.8,102.3 63.6,102.3 63.6,96.0 70.9,96.0 70.9,102.3 74.80000000000001,102.3 74.80000000000001,102.8 90.9,102.8 Z " /> 
    <path fill="#ababab" stroke="white" stroke-width="0" fill-rule="evenodd" d="M 63.6,98.5 65.7,98.5 65.7,100.4 63.6,100.4 Z " /> 
    <path fill="#ababab" stroke="white" stroke-width="0" fill-rule="evenodd" d="M 69.1,98.5 70.9,98.5 70.9,100.4 69.1,100.4 Z " /> 
    <path fill="#ababab" stroke="white" stroke-width="0" fill-rule="evenodd" d="M 70.9,100.4 70.9,102.3 63.6,102.3 63.6,100.4 Z " /> 
    <path fill="#ababab" stroke="white" stroke-width="0" fill-rule="evenodd" d="M 66.3,102.3 68.2,102.3 68.2,103.7 66.3,103.7 Z " /> 
    <path fill="#ababab" stroke="white" stroke-width="0" fill-rule="evenodd" d="M 85.30000000000001,109.5 85.30000000000001,112.4 90.9,112.4 90.9,109.5 Z " /> 
    <path fill="#ababab" stroke="white" stroke-width="0" fill-rule="evenodd" d="M 85.30000000000001,109.5 85.30000000000001,112.4 70.7,112.4 70.7,109.5 Z " /> 
    <path fill="#ababab" stroke="white" stroke-width="0" fill-rule="evenodd" d="M 70.7,112.4 70.7,109.5 70.4,109.5 70.4,107.2 68.2,107.2 68.2,103.7 66.3,103.7 66.3,107.2 64.1,107.2 64.1,112.4 Z " /> 
    <path fill="#ababab" stroke="white" stroke-width="0" fill-rule="evenodd" d="M 64.1,109.5 64.1,112.4 46.0,112.5 46.0,109.5 Z " /> 
    <path fill="#ababab" stroke="white" stroke-width="0" fill-rule="evenodd" d="M 43.5,112.4 43.5,112.1 43.9,112.1 43.9,109.7 43.5,109.7 43.5,109.5 46.0,109.5 46.0,112.4 Z " /> 
    <path fill="#ababab" stroke="white" stroke-width="0" fill-rule="evenodd" d="M 60.0,109.5 64.1,109.5 64.1,107.9 60.0,107.9 Z " /> 
    <path fill="#bfc2c7" stroke="white" stroke-width="0.1" fill-rule="evenodd" d="M 67.2,96.0 67.2,98.5 63.6,98.5 63.6,96.0 Z " /> 
    <path fill="#bfc2c7" stroke="white" stroke-width="0.1" fill-rule="evenodd" d="M 67.2,96.0 70.9,96.0 70.9,98.5 67.2,98.5 Z " /> 
    <path fill="#bfc2c7" stroke="white" stroke-width="0.1" fill-rule="evenodd" d="M 65.7,98.5 69.1,98.5 69.1,100.4 65.7,100.4 Z " /> 
    <path fill="#bfc2c7" stroke="white" stroke-width="0.1" fill-rule="evenodd" d="M 64.1,102.3 66.3,102.3 66.3,107.2 64.1,107.2 Z " /> 
    <path fill="#bfc2c7" stroke="white" stroke-width="0.1" fill-rule="evenodd" d="M 68.2,102.3 70.4,102.3 70.4,107.2 68.2,107.2 Z " /> 
    <path fill="#bfc2c7" stroke="white" stroke-width="0.1" fill-rule="evenodd" d="M 70.4,102.3 74.6,102.3 74.6,109.5 70.4,109.5 Z " /> 
    <path fill="#bfc2c7" stroke="white" stroke-width="0.1" fill-rule="evenodd" d="M 74.6,102.3 74.80000000000001,102.3 74.80000000000001,102.8 79.9,102.8 79.9,109.5 74.6,109.5 Z " /> 
    <path fill="#bfc2c7" stroke="white" stroke-width="0.1" fill-rule="evenodd" d="M 79.9,109.5 85.30000000000001,109.5 85.30000000000001,102.8 79.9,102.8 Z " /> 
    <path fill="#bfc2c7" stroke="white" stroke-width="0.1" fill-rule="evenodd" d="M 85.30000000000001,102.8 90.9,102.8 90.9,109.5 85.30000000000001,109.5 Z " /> 
    <path fill="#bfc2c7" stroke="white" stroke-width="0.1" fill-rule="evenodd" d="M 85.30000000000001,112.4 90.9,112.4 90.9,119.2 85.30000000000001,119.2 Z " /> 
    <path fill="#bfc2c7" stroke="white" stroke-width="0.1" fill-rule="evenodd" d="M 74.80000000000001,112.4 85.30000000000001,112.4 85.30000000000001,119.2 74.80000000000001,119.2 Z " /> 
    <path fill="#bfc2c7" stroke="white" stroke-width="0.1" fill-rule="evenodd" d="M 46.0,112.4 46.0,113.8 46.6,113.8 46.6,119.1 43.5,119.1 43.5,112.4 Z " /> 
    <path fill="#bfc2c7" stroke="white" stroke-width="0.1" fill-rule="evenodd" d="M 59.8,112.4 74.80000000000001,112.4 74.80000000000001,120.6 59.8,120.6 Z " /> 
    <path fill="#bfc2c7" stroke="white" stroke-width="0.1" fill-rule="evenodd" d="M 43.5,109.5 49.2,109.5 49.2,102.8 43.5,102.8 Z " /> 
    <path fill="#bfc2c7" stroke="white" stroke-width="0.1" fill-rule="evenodd" d="M 49.2,109.5 54.6,109.5 54.6,102.8 49.2,102.8 Z " /> 
    <path fill="#bfc2c7" stroke="white" stroke-width="0.1" fill-rule="evenodd" d="M 54.6,109.5 60.0,109.5 60.0,102.3 59.8,102.3 59.8,102.8 54.6,102.8 Z " /> 
    <path fill="#bfc2c7" stroke="white" stroke-width="0.1" fill-rule="evenodd" d="M 46.0,112.5 46.0,113.8 46.6,113.8 46.6,119.1 59.8,119.1 59.8,112.4 Z " /> 
    <path fill="#bfc2c7" stroke="white" stroke-width="0.1" fill-rule="evenodd" d="M 60.0,102.3 64.1,102.3 64.1,109.5 60.0,109.5 Z " /> 
    <image x="64.04884717615602" y="96.64884717615601" width="1.302305647687979" height="1.302305647687979" href="http://mapy.utp.edu.pl/images/toilet_white.svg" /> 
    <image x="69.39999999999999" y="96.69999999999999" width="1.2000000000000046" height="1.2000000000000046" href="http://mapy.utp.edu.pl/images/toilet_white.svg" /> 
    <image x="66.56569760997256" y="98.76569760997256" width="1.4686047800548638" height="1.4686047800548638" href="http://mapy.utp.edu.pl/images/toilet_white.svg" /> 
    <image x="64.1" y="103.82000000000001" width="1.7600000000000025" height="1.7600000000000025" href="http://mapy.utp.edu.pl/images/stairs_white.svg" /> 
    <image x="69.12" y="103.92" width="1.7600000000000025" height="1.7600000000000025" href="http://mapy.utp.edu.pl/images/stairs_white.svg" /> 
    <image x="66.84392982996035" y="102.54392982996035" width="0.9121403400793154" height="0.9121403400793154" href="http://mapy.utp.edu.pl/images/small_stairs_white.svg" /> 
    <text x="72.4" y="105.9" alignment-baseline="middle" text-anchor="middle" fill="white" font-weight="normal" font-size="0.8399999999999977" font-family="Open Sans">
     101
    </text> 
    <text x="77.4" y="105.9" alignment-baseline="middle" text-anchor="middle" fill="white" font-weight="normal" font-size="1.0" font-family="Open Sans">
     102
    </text> 
    <text x="82.6" y="105.9" alignment-baseline="middle" text-anchor="middle" fill="white" font-weight="normal" font-size="1.0" font-family="Open Sans">
     103
    </text> 
    <text x="88.1" y="105.1" alignment-baseline="middle" text-anchor="middle" fill="white" font-weight="normal" font-size="1.0" font-family="Open Sans">
     104
    </text> 
    <text x="88.10000000000001" y="116.0" alignment-baseline="middle" text-anchor="middle" fill="white" font-weight="normal" font-size="1.0" font-family="Open Sans">
     117
    </text> 
    <text x="80.05000000000001" y="116.0" alignment-baseline="middle" text-anchor="middle" fill="white" font-weight="normal" font-size="1.0" font-family="Open Sans">
     118/119
    </text> 
    <text x="45.05" y="115.75" alignment-baseline="middle" text-anchor="middle" fill="white" font-weight="normal" font-size="0.6200000000000003" font-family="Open Sans">
     127
    </text> 
    <text x="67.3" y="116.5" alignment-baseline="middle" text-anchor="middle" fill="white" font-weight="normal" font-size="1.0" font-family="Open Sans">
     B1
    </text> 
    <text x="46.35" y="106.15" alignment-baseline="middle" text-anchor="middle" fill="white" font-weight="normal" font-size="1.0" font-family="Open Sans">
     133
    </text> 
    <text x="51.9" y="106.1" alignment-baseline="middle" text-anchor="middle" fill="white" font-weight="normal" font-size="1.0" font-family="Open Sans">
     134
    </text> 
    <text x="57.0" y="106.0" alignment-baseline="middle" text-anchor="middle" fill="white" font-weight="normal" font-size="1.0" font-family="Open Sans">
     135
    </text> 
    <text x="51.9" y="115.8" alignment-baseline="middle" text-anchor="middle" fill="white" font-weight="normal" font-size="1.0" font-family="Open Sans">
     125
    </text> 
    <text x="62.0" y="105.9" alignment-baseline="middle" text-anchor="middle" fill="white" font-weight="normal" font-size="0.819999999999999" font-family="Open Sans">
     136
    </text> 
    <path fill="#ababab" stroke="lightgray" stroke-width="0.25" fill-rule="evenodd" d="M 21.7,109.4 21.7,86.8 33.8,86.8 33.8,100.2 43.0,100.2 43.0,101.6 43.3,101.6 43.3,112.0 39.900000000000006,112.0 39.900000000000006,108.8 34.2,108.8 34.2,109.4 Z " /> 
    <path fill="#ababab" stroke="white" stroke-width="0" fill-rule="evenodd" d="M 27.6,92.2 29.5,92.2 29.5,100.3 27.6,100.3 Z " /> 
    <path fill="#ababab" stroke="white" stroke-width="0" fill-rule="evenodd" d="M 31.9,97.7 33.8,97.7 33.8,100.3 31.9,100.3 Z " /> 
    <path fill="#ababab" stroke="white" stroke-width="0" fill-rule="evenodd" d="M 30.700000000000003,100.3 30.700000000000003,103.1 27.6,103.1 27.6,100.3 Z " /> 
    <path fill="#ababab" stroke="white" stroke-width="0" fill-rule="evenodd" d="M 36.7,106.3 39.7,106.3 39.7,103.7 36.7,103.7 Z " /> 
    <path fill="#ababab" stroke="white" stroke-width="0" fill-rule="evenodd" d="M 33.8,106.3 37.900000000000006,106.3 37.900000000000006,108.8 33.8,108.8 Z " /> 
    <path fill="#ababab" stroke="white" stroke-width="0" fill-rule="evenodd" d="M 37.900000000000006,106.3 37.900000000000006,108.8 43.3,108.8 43.3,106.3 Z " /> 
    <path fill="#ababab" stroke="white" stroke-width="0" fill-rule="evenodd" d="M 39.900000000000006,108.8 43.3,108.8 43.3,112.0 39.900000000000006,112.0 Z " /> 
    <path fill="#fec901" stroke="white" stroke-width="0.1" fill-rule="evenodd" d="M 21.7,109.4 21.7,103.1 30.700000000000003,103.1 30.700000000000003,109.4 Z " /> 
    <path fill="#fec901" stroke="white" stroke-width="0.1" fill-rule="evenodd" d="M 21.7,103.1 27.6,103.1 27.6,97.6 21.7,97.6 Z " /> 
    <path fill="#fec901" stroke="white" stroke-width="0.1" fill-rule="evenodd" d="M 21.7,97.6 27.6,97.6 27.6,92.1 21.7,92.1 Z " /> 
    <path fill="#fec901" stroke="white" stroke-width="0.1" fill-rule="evenodd" d="M 21.7,92.1 27.6,92.1 27.6,86.8 21.7,86.8 Z " /> 
    <path fill="#fec901" stroke="white" stroke-width="0.1" fill-rule="evenodd" d="M 27.6,86.8 33.8,86.8 33.8,92.2 27.6,92.2 Z " /> 
    <path fill="#fec901" stroke="white" stroke-width="0.1" fill-rule="evenodd" d="M 33.8,92.2 33.8,94.4 29.5,94.4 29.5,92.2 Z " /> 
    <path fill="#fec901" stroke="white" stroke-width="0.1" fill-rule="evenodd" d="M 33.8,94.4 33.8,97.7 29.5,97.7 29.5,94.4 Z " /> 
    <path fill="#fec901" stroke="white" stroke-width="0.1" fill-rule="evenodd" d="M 29.5,97.7 31.9,97.7 31.9,100.3 29.5,100.3 Z " /> 
    <path fill="#fec901" stroke="white" stroke-width="0.1" fill-rule="evenodd" d="M 33.8,100.3 33.8,108.8 34.2,108.8 34.2,109.4 30.700000000000003,109.4 30.700000000000003,100.3 Z " /> 
    <path fill="#fec901" stroke="white" stroke-width="0.1" fill-rule="evenodd" d="M 33.8,100.2 36.7,100.2 36.7,106.3 33.8,106.3 Z " /> 
    <path fill="#fec901" stroke="white" stroke-width="0.1" fill-rule="evenodd" d="M 36.7,103.7 39.7,103.7 39.7,100.2 36.7,100.2 Z " /> 
    <path fill="#fec901" stroke="white" stroke-width="0.1" fill-rule="evenodd" d="M 39.7,100.2 43.0,100.2 43.0,101.6 43.3,101.6 43.3,106.3 39.7,106.3 Z " /> 
    <image x="29.992327759481835" y="98.29232775948184" width="1.4153444810363287" height="1.4153444810363287" href="http://mapy.utp.edu.pl/images/stairs_white.svg" /> 
    <image x="38.90111179783023" y="106.60111179783023" width="1.7977764043395341" height="1.7977764043395341" href="http://mapy.utp.edu.pl/images/small_stairs_white.svg" /> 
    <text x="24.2" y="106.0" alignment-baseline="middle" text-anchor="middle" fill="white" font-weight="normal" font-size="1.0" font-family="Open Sans">
     101
    </text> 
    <text x="24.2" y="101.7" alignment-baseline="middle" text-anchor="middle" fill="white" font-weight="normal" font-size="1.0" font-family="Open Sans">
     102
    </text> 
    <text x="24.2" y="94.7" alignment-baseline="middle" text-anchor="middle" fill="white" font-weight="normal" font-size="1.0" font-family="Open Sans">
     103
    </text> 
    <text x="24.7" y="89.6" alignment-baseline="middle" text-anchor="middle" fill="white" font-weight="normal" font-size="1.0" font-family="Open Sans">
     104
    </text> 
    <text x="30.700000000000003" y="89.6" alignment-baseline="middle" text-anchor="middle" fill="white" font-weight="normal" font-size="1.0" font-family="Open Sans">
     105
    </text> 
    <text x="31.700000000000003" y="93.3" alignment-baseline="middle" text-anchor="middle" fill="white" font-weight="normal" font-size="0.4400000000000006" font-family="Open Sans">
     106
    </text> 
    <text x="31.700000000000003" y="96.0" alignment-baseline="middle" text-anchor="middle" fill="white" font-weight="normal" font-size="0.6599999999999995" font-family="Open Sans">
     107
    </text> 
    <text x="32.2" y="103.3" alignment-baseline="middle" text-anchor="middle" fill="white" font-weight="normal" font-size="0.7000000000000001" font-family="Open Sans">
     128
    </text> 
    <text x="35.2" y="103.3" alignment-baseline="middle" text-anchor="middle" fill="white" font-weight="normal" font-size="0.5800000000000012" font-family="Open Sans">
     130
    </text> 
    <text x="38.2" y="101.7" alignment-baseline="middle" text-anchor="middle" fill="white" font-weight="normal" font-size="0.6000000000000001" font-family="Open Sans">
     131
    </text> 
    <text x="41.900000000000006" y="103.3" alignment-baseline="middle" text-anchor="middle" fill="white" font-weight="normal" font-size="0.7199999999999989" font-family="Open Sans">
     132
    </text> 
    <path fill="#ababab" stroke="lightgray" stroke-width="0.25" fill-rule="evenodd" d="M 110.0,68.0 99.3,68.0 99.3,103.1 97.3,103.1 97.4,103.0 96.9,102.9 95.8,106.2 94.6,109.4 93.5,112.30000000000001 91.1,118.9 91.2,119.0 91.1,119.1 91.7,119.30000000000001 91.9,119.0 107.9,124.7 110.2,118.30000000000001 110.0,118.2 Z " /> 
    <path fill="#ababab" stroke="white" stroke-width="0" fill-rule="evenodd" d="M 101.7,115.30000000000001 98.7,114.2 93.5,112.30000000000001 94.6,109.4 97.1,110.30000000000001 97.2,110.0 101.7,111.6 Z " /> 
    <path fill="#ababab" stroke="white" stroke-width="0" fill-rule="evenodd" d="M 110.0,95.9 99.3,95.9 99.3,97.9 104.3,97.9 104.3,98.30000000000001 110.0,98.30000000000001 Z " /> 
    <path fill="#ababab" stroke="white" stroke-width="0" fill-rule="evenodd" d="M 103.8,105.9 103.8,103.1 101.7,103.1 101.7,115.0 103.8,115.0 Z " /> 
    <path fill="#ababab" stroke="white" stroke-width="0" fill-rule="evenodd" d="M 106.1,105.9 103.8,105.9 103.8,103.1 106.1,103.1 Z " /> 
    <path fill="#ababab" stroke="white" stroke-width="0" fill-rule="evenodd" d="M 107.5,91.8 110.0,91.8 110.0,73.7 107.2,73.7 107.2,79.4 107.2,79.5 106.7,79.5 106.7,86.1 107.5,86.1 107.5,89.1 Z " /> 
    <path fill="#ababab" stroke="white" stroke-width="0" fill-rule="evenodd" d="M 107.5,95.9 110.0,95.9 110.0,91.8 107.5,91.8 Z " /> 
    <path fill="#ababab" stroke="white" stroke-width="0" fill-rule="evenodd" d="M 110.0,73.7 107.2,73.7 104.0,73.7 104.0,72.0 110.0,72.0 Z " /> 
    <path fill="#003463" stroke="white" stroke-width="0.1" fill-rule="evenodd" d="M 110.0,104.5 110.0,105.9 106.1,105.9 106.1,104.5 Z " /> 
    <path fill="#003463" stroke="white" stroke-width="0.1" fill-rule="evenodd" d="M 110.0,105.9 110.0,109.5 103.8,109.5 103.8,105.9 Z " /> 
    <path fill="#003463" stroke="white" stroke-width="0.1" fill-rule="evenodd" d="M 110.0,109.5 103.8,109.5 103.8,113.6 110.0,113.6 Z " /> 
    <path fill="#003463" stroke="white" stroke-width="0.1" fill-rule="evenodd" d="M 110.0,113.6 110.0,118.2 103.8,116.0 103.8,113.6 Z " /> 
    <path fill="#003463" stroke="white" stroke-width="0.1" fill-rule="evenodd" d="M 101.7,115.0 103.8,115.0 103.8,116.0 101.7,115.30000000000001 Z " /> 
    <path fill="#003463" stroke="white" stroke-width="0.1" fill-rule="evenodd" d="M 101.7,111.6 97.2,110.0 97.3,109.7 97.4,109.4 97.5,109.1 97.6,108.80000000000001 97.7,108.5 97.8,108.2 97.9,107.9 98.0,107.6 98.1,107.30000000000001 98.2,107.0 101.7,108.2 Z " /> 
    <path fill="#003463" stroke="white" stroke-width="0.1" fill-rule="evenodd" d="M 101.7,105.5 99.2,105.6 98.6,106.1 98.2,107.0 101.7,108.2 Z " /> 
    <path fill="#003463" stroke="white" stroke-width="0.1" fill-rule="evenodd" d="M 97.1,110.30000000000001 98.2,107.0 95.8,106.2 94.6,109.4 Z " /> 
    <path fill="#003463" stroke="white" stroke-width="0.1" fill-rule="evenodd" d="M 93.5,112.30000000000001 91.1,118.9 91.2,119.0 91.1,119.1 91.7,119.30000000000001 91.9,119.0 96.4,120.6 98.7,114.2 Z " /> 
    <path fill="#003463" stroke="white" stroke-width="0.1" fill-rule="evenodd" d="M 104.3,97.9 99.3,97.9 99.3,103.1 104.3,103.1 Z " /> 
    <path fill="#003463" stroke="white" stroke-width="0.1" fill-rule="evenodd" d="M 101.7,103.1 101.7,105.5 99.2,105.6 98.6,106.1 98.2,107.0 95.8,106.2 96.9,102.9 97.4,103.0 97.3,103.1 Z " /> 
    <path fill="#003463" stroke="white" stroke-width="0.1" fill-rule="evenodd" d="M 104.3,98.30000000000001 104.3,103.1 106.5,103.1 106.5,98.30000000000001 Z " /> 
    <path fill="#003463" stroke="white" stroke-width="0.1" fill-rule="evenodd" d="M 106.5,103.1 110.0,103.1 110.0,98.30000000000001 106.5,98.30000000000001 Z " /> 
    <path fill="#003463" stroke="white" stroke-width="0.1" fill-rule="evenodd" d="M 106.1,104.5 106.1,103.1 110.0,103.1 110.0,104.5 Z " /> 
    <path fill="#003463" stroke="white" stroke-width="0.1" fill-rule="evenodd" d="M 99.3,95.9 99.3,91.8 104.3,91.8 104.3,95.9 Z " /> 
    <path fill="#003463" stroke="white" stroke-width="0.1" fill-rule="evenodd" d="M 104.3,91.8 104.3,95.9 107.5,95.9 107.5,91.8 Z " /> 
    <path fill="#003463" stroke="white" stroke-width="0.1" fill-rule="evenodd" d="M 105.9,89.1 105.9,86.1 106.7,86.1 107.5,86.1 107.5,89.1 Z " /> 
    <path fill="#003463" stroke="white" stroke-width="0.1" fill-rule="evenodd" d="M 106.7,79.5 106.7,86.1 99.3,86.1 99.3,79.5 Z " /> 
    <path fill="#003463" stroke="white" stroke-width="0.1" fill-rule="evenodd" d="M 107.2,73.7 104.0,73.7 101.4,73.7 99.3,73.7 99.3,79.5 107.2,79.5 Z " /> 
    <path fill="#003463" stroke="white" stroke-width="0.1" fill-rule="evenodd" d="M 106.7,72.0 106.7,68.0 110.0,68.0 110.0,72.0 Z " /> 
    <path fill="#003463" stroke="white" stroke-width="0.1" fill-rule="evenodd" d="M 106.7,72.0 104.0,72.0 104.0,68.0 106.7,68.0 Z " /> 
    <path fill="#003463" stroke="white" stroke-width="0.1" fill-rule="evenodd" d="M 104.0,73.7 104.0,68.0 99.3,68.0 99.3,73.7 Z " /> 
    <path fill="#003463" stroke="white" stroke-width="0.1" fill-rule="evenodd" d="M 110.2,118.30000000000001 110.0,118.2 103.8,116.0 101.7,115.30000000000001 98.7,114.2 96.4,120.6 107.9,124.7 Z " /> 
    <path fill="#003463" stroke="white" stroke-width="0.1" fill-rule="evenodd" d="M 107.5,89.1 105.9,89.1 105.9,86.1 102.4,86.1 102.4,89.1 104.3,89.1 104.3,91.8 107.5,91.8 Z " /> 
    <path fill="#003463" stroke="white" stroke-width="0.1" fill-rule="evenodd" d="M 104.3,89.1 102.4,89.1 102.4,86.1 99.3,86.1 99.3,91.8 104.3,91.8 Z " /> 
    <image x="107.49" y="103.24" width="1.1200000000000045" height="1.1200000000000045" href="http://mapy.utp.edu.pl/images/toilet_white.svg" /> 
    <image x="104.8" y="92.9" width="2.0" height="2.0" href="http://mapy.utp.edu.pl/images/stairs_white.svg" /> 
    <image x="106.08942649910105" y="87.18942649910105" width="1.221147001797897" height="1.221147001797897" href="http://mapy.utp.edu.pl/images/toilet_white.svg" /> 
    <text x="108.05" y="105.2" alignment-baseline="middle" text-anchor="middle" fill="white" font-weight="normal" font-size="0.28000000000000114" font-family="Open Sans"></text> 
    <text x="106.9" y="107.7" alignment-baseline="middle" text-anchor="middle" fill="white" font-weight="normal" font-size="0.7199999999999989" font-family="Open Sans">
     111A
    </text> 
    <text x="106.9" y="111.55" alignment-baseline="middle" text-anchor="middle" fill="white" font-weight="normal" font-size="0.819999999999999" font-family="Open Sans">
     112A
    </text> 
    <text x="106.9" y="115.9" alignment-baseline="middle" text-anchor="middle" fill="white" font-weight="normal" font-size="0.9200000000000017" font-family="Open Sans">
     113A
    </text> 
    <text x="102.8" y="115.4" alignment-baseline="middle" text-anchor="middle" fill="white" font-weight="normal" font-size="0.2" font-family="Open Sans">
     114A
    </text> 
    <text x="99.9" y="109.0" alignment-baseline="middle" text-anchor="middle" fill="white" font-weight="normal" font-size="0.9" font-family="Open Sans">
     106
    </text> 
    <text x="99.5" y="106.80000000000001" alignment-baseline="middle" text-anchor="middle" fill="white" font-weight="normal" font-size="0.5400000000000006" font-family="Open Sans">
     107A
    </text> 
    <text x="96.5" y="108.2" alignment-baseline="middle" text-anchor="middle" fill="white" font-weight="normal" font-size="0.7200000000000017" font-family="Open Sans">
     105
    </text> 
    <text x="95.9" y="117.4" alignment-baseline="middle" text-anchor="middle" fill="white" font-weight="normal" font-size="1.0" font-family="Open Sans">
     116
    </text> 
    <text x="101.8" y="99.7" alignment-baseline="middle" text-anchor="middle" fill="white" font-weight="normal" font-size="1.0" font-family="Open Sans">
     114
    </text> 
    <text x="97.8" y="105.2" alignment-baseline="middle" text-anchor="middle" fill="white" font-weight="normal" font-size="0.819999999999999" font-family="Open Sans">
     108A
    </text> 
    <text x="105.4" y="100.7" alignment-baseline="middle" text-anchor="middle" fill="white" font-weight="normal" font-size="0.4400000000000006" font-family="Open Sans">
     113
    </text> 
    <text x="108.4" y="100.30000000000001" alignment-baseline="middle" text-anchor="middle" fill="white" font-weight="normal" font-size="0.7000000000000001" font-family="Open Sans">
     112
    </text> 
    <text x="101.8" y="93.9" alignment-baseline="middle" text-anchor="middle" fill="white" font-weight="normal" font-size="0.8200000000000017" font-family="Open Sans">
     115
    </text> 
    <text x="103.0" y="83.0" alignment-baseline="middle" text-anchor="middle" fill="white" font-weight="normal" font-size="1.0" font-family="Open Sans">
     107
    </text> 
    <text x="103.0" y="76.6" alignment-baseline="middle" text-anchor="middle" fill="white" font-weight="normal" font-size="1.0" font-family="Open Sans">
     108
    </text> 
    <text x="108.4" y="70.0" alignment-baseline="middle" text-anchor="middle" fill="white" font-weight="normal" font-size="0.6599999999999995" font-family="Open Sans">
     111
    </text> 
    <text x="105.4" y="70.0" alignment-baseline="middle" text-anchor="middle" fill="white" font-weight="normal" font-size="0.5400000000000006" font-family="Open Sans">
     110
    </text> 
    <text x="101.7" y="70.9" alignment-baseline="middle" text-anchor="middle" fill="white" font-weight="normal" font-size="0.9400000000000006" font-family="Open Sans">
     109
    </text> 
    <text x="99.2" y="118.2" alignment-baseline="middle" text-anchor="middle" fill="white" font-weight="normal" font-size="1.0" font-family="Open Sans">
     115A
    </text> 
    <text x="103.3" y="87.8" alignment-baseline="middle" text-anchor="middle" fill="white" font-weight="normal" font-size="1.0" font-family="Open Sans">
     101
    </text> 
    <text x="100.9" y="87.8" alignment-baseline="middle" text-anchor="middle" fill="white" font-weight="normal" font-size="1.0" font-family="Open Sans">
     102
    </text> 
    <path fill="#ababab" stroke="lightgray" stroke-width="0.25" fill-rule="evenodd" d="M 90.0,55.0 90.0,63.8 105.1,63.8 105.2,63.8 105.2,55.0 Z " /> 
    <path fill="#872163" stroke="white" stroke-width="0.1" fill-rule="evenodd" d="M 100.6,55.0 100.6,59.5 103.3,59.5 103.3,63.8 105.2,63.8 105.2,59.7 105.2,55.0 Z " /> 
    <path fill="#872163" stroke="white" stroke-width="0.1" fill-rule="evenodd" d="M 100.6,55.0 100.6,63.8 90.0,63.8 90.0,55.0 Z " /> 
    <path fill="#872163" stroke="white" stroke-width="0.1" fill-rule="evenodd" d="M 100.6,59.5 103.3,59.5 103.3,63.8 100.6,63.8 Z " /> 
    <image x="100.91207287718173" y="60.612072877181724" width="1.975854245636561" height="1.975854245636561" href="http://mapy.utp.edu.pl/images/stairs_white.svg" /> 
    <text x="103.6" y="56.8" alignment-baseline="middle" text-anchor="middle" fill="white" font-weight="normal" font-size="0.9200000000000017" font-family="Open Sans">
     9
    </text> 
    <text x="95.3" y="58.6" alignment-baseline="middle" text-anchor="middle" fill="white" font-weight="normal" font-size="1.0" font-family="Open Sans">
     10
    </text> 
   </g> 
  </g> 
 </g> 
</svg>