<svg xmlns="http://www.w3.org/2000/svg" width="130.0" height="130.0"> 
 <style type="text/css"><![CDATA[@keyframes pulse2 {0% {stroke-width: 0.1} 50% {stroke-width: 1.0} 100% {stroke-width: 0.1}
@-moz-keyframes pulse2 {0% {stroke-width: 0.1} 50% {stroke-width: 1.0} 100% {stroke-width: 0.1}
]]></style> 
 <g transform="translate(65.0,65.0)"> 
  <g transform="matrix(0.707 0.409 -0.707 0.409 0 -0.816)"> 
   <g transform="translate(-65.0,-65.0)"> 
    <path fill="#ababab" stroke="lightgray" stroke-width="0.25" fill-rule="evenodd" d="M 29.0,56.0 37.0,56.0 37.0,53.5 40.0,53.5 40.0,56.0 75.5,56.0 75.5,49.0 87.5,49.0 87.5,56.0 98.0,56.0 98.0,85.0 87.0,85.0 87.0,84.0 40.0,84.0 40.0,85.0 29.0,85.0 Z " /> 
    <path fill="#ababab" stroke="white" stroke-width="0" fill-rule="evenodd" d="M 75.5,49.0 75.5,52.0 79.5,52.0 79.5,49.0 Z " /> 
    <path fill="#ababab" stroke="white" stroke-width="0" fill-rule="evenodd" d="M 75.5,52.0 75.5,56.0 87.5,56.0 87.5,49.0 85.0,49.0 85.0,52.0 Z " /> 
    <path fill="#ababab" stroke="white" stroke-width="0" fill-rule="evenodd" d="M 74.5,56.0 81.0,56.0 79.5,58.0 79.5,62.5 82.5,62.5 81.0,69.0 74.5,69.0 Z " /> 
    <path fill="#ababab" stroke="white" stroke-width="0" fill-rule="evenodd" d="M 87.0,69.0 87.0,61.0 90.0,61.0 90.0,72.5 40.0,72.5 40.0,73.5 37.0,73.5 37.0,69.0 Z " /> 
    <path fill="#ababab" stroke="white" stroke-width="0" fill-rule="evenodd" d="M 40.0,69.0 37.0,69.0 37.0,56.0 40.0,56.0 Z " /> 
    <path fill="#ababab" stroke="white" stroke-width="0" fill-rule="evenodd" d="M 74.5,62.5 69.0,62.5 69.0,62.0 67.0,62.0 67.0,65.0 74.5,65.0 Z " /> 
    <path fill="#ababab" stroke="white" stroke-width="0" fill-rule="evenodd" d="M 37.0,73.5 40.0,73.5 40.0,78.5 37.0,78.5 Z " /> 
    <path fill="#ababab" stroke="white" stroke-width="0" fill-rule="evenodd" d="M 93.0,78.5 98.0,78.5 98.0,81.5 93.0,81.5 Z " /> 
    <path fill="#bfc2c7" stroke="white" stroke-width="0.1" fill-rule="evenodd" d="M 79.5,49.0 79.5,52.0 85.0,52.0 85.0,52.0 85.0,49.0 Z " /> 
    <path fill="#bfc2c7" stroke="white" stroke-width="0.1" fill-rule="evenodd" d="M 80.5,55.0 87.5,55.0 87.5,52.0 80.5,52.0 Z " /> 
    <path fill="#bfc2c7" stroke="white" stroke-width="0.1" fill-rule="evenodd" d="M 79.5,62.5 87.0,62.5 87.0,56.0 81.0,56.0 79.5,58.0 Z " /> 
    <path fill="#bfc2c7" stroke="white" stroke-width="0.1" fill-rule="evenodd" d="M 82.0,64.0 87.0,64.0 87.0,67.0 81.5,67.0 Z " /> 
    <path fill="#bfc2c7" stroke="white" stroke-width="0.1" fill-rule="evenodd" d="M 81.5,67.0 81.0,69.0 84.5,69.0 84.5,67.0 Z " /> 
    <path fill="#bfc2c7" stroke="white" stroke-width="0.1" fill-rule="evenodd" d="M 84.5,69.0 87.0,69.0 87.0,67.0 84.5,67.0 Z " /> 
    <path fill="#bfc2c7" stroke="white" stroke-width="0.1" fill-rule="evenodd" d="M 87.0,72.5 87.0,84.0 80.0,84.0 80.0,72.5 Z " /> 
    <path fill="#bfc2c7" stroke="white" stroke-width="0.1" fill-rule="evenodd" d="M 68.5,72.5 80.0,72.5 80.0,84.0 69.5,84.0 69.5,76.5 68.5,75.0 Z " /> 
    <path fill="#bfc2c7" stroke="white" stroke-width="0.1" fill-rule="evenodd" d="M 66.0,72.5 66.0,75.0 68.5,75.0 68.5,72.5 Z " /> 
    <path fill="#bfc2c7" stroke="white" stroke-width="0.1" fill-rule="evenodd" d="M 66.0,75.0 68.5,75.0 69.5,76.5 69.5,84.0 66.0,84.0 Z " /> 
    <path fill="#bfc2c7" stroke="white" stroke-width="0.1" fill-rule="evenodd" d="M 66.0,72.5 66.0,84.0 61.5,84.0 61.5,72.5 Z " /> 
    <path fill="#bfc2c7" stroke="white" stroke-width="0.1" fill-rule="evenodd" d="M 61.5,72.5 61.5,84.0 54.5,84.0 54.5,72.5 Z " /> 
    <path fill="#bfc2c7" stroke="white" stroke-width="0.1" fill-rule="evenodd" d="M 54.5,72.5 54.5,84.0 47.0,84.0 47.0,72.5 Z " /> 
    <path fill="#bfc2c7" stroke="white" stroke-width="0.1" fill-rule="evenodd" d="M 47.0,72.5 47.0,80.0 44.0,80.0 44.0,72.5 Z " /> 
    <path fill="#bfc2c7" stroke="white" stroke-width="0.1" fill-rule="evenodd" d="M 44.0,72.5 44.0,80.0 40.0,80.0 40.0,72.5 Z " /> 
    <path fill="#bfc2c7" stroke="white" stroke-width="0.1" fill-rule="evenodd" d="M 58.5,69.0 58.5,62.0 63.5,62.0 63.5,69.0 Z " /> 
    <path fill="#bfc2c7" stroke="white" stroke-width="0.1" fill-rule="evenodd" d="M 63.5,62.0 67.0,62.0 67.0,65.0 69.0,65.0 69.0,69.0 63.5,69.0 Z " /> 
    <path fill="#bfc2c7" stroke="white" stroke-width="0.1" fill-rule="evenodd" d="M 69.0,65.0 74.5,65.0 74.5,69.0 69.0,69.0 Z " /> 
    <path fill="#bfc2c7" stroke="white" stroke-width="0.1" fill-rule="evenodd" d="M 58.5,64.5 58.5,69.0 53.0,69.0 53.0,64.5 Z " /> 
    <path fill="#bfc2c7" stroke="white" stroke-width="0.1" fill-rule="evenodd" d="M 47.5,69.0 53.0,69.0 53.0,60.5 47.5,60.5 Z " /> 
    <path fill="#bfc2c7" stroke="white" stroke-width="0.1" fill-rule="evenodd" d="M 47.5,56.0 47.5,60.5 53.0,60.5 53.0,56.0 Z " /> 
    <path fill="#bfc2c7" stroke="white" stroke-width="0.1" fill-rule="evenodd" d="M 47.5,69.0 40.0,69.0 40.0,56.0 47.5,56.0 Z " /> 
    <path fill="#bfc2c7" stroke="white" stroke-width="0.1" fill-rule="evenodd" d="M 37.0,69.0 29.0,69.0 29.0,65.0 37.0,65.0 Z " /> 
    <path fill="#bfc2c7" stroke="white" stroke-width="0.1" fill-rule="evenodd" d="M 29.0,60.5 37.0,60.5 37.0,65.0 29.0,65.0 Z " /> 
    <path fill="#bfc2c7" stroke="white" stroke-width="0.1" fill-rule="evenodd" d="M 37.0,56.0 37.0,60.5 33.5,60.5 33.5,56.0 Z " /> 
    <path fill="#bfc2c7" stroke="white" stroke-width="0.1" fill-rule="evenodd" d="M 33.5,56.0 33.5,60.5 29.0,60.5 29.0,56.0 Z " /> 
    <path fill="#bfc2c7" stroke="white" stroke-width="0.1" fill-rule="evenodd" d="M 63.5,56.0 63.5,62.0 69.0,62.0 69.0,56.0 Z " /> 
    <path fill="#bfc2c7" stroke="white" stroke-width="0.1" fill-rule="evenodd" d="M 58.5,56.0 58.5,62.0 63.5,62.0 63.5,56.0 Z " /> 
    <path fill="#bfc2c7" stroke="white" stroke-width="0.1" fill-rule="evenodd" d="M 53.0,56.0 58.5,56.0 58.5,64.5 53.0,64.5 Z " /> 
    <path fill="#bfc2c7" stroke="white" stroke-width="0.1" fill-rule="evenodd" d="M 87.0,56.0 98.0,56.0 98.0,61.0 87.0,61.0 Z " /> 
    <path fill="#bfc2c7" stroke="white" stroke-width="0.1" fill-rule="evenodd" d="M 90.0,61.0 90.0,64.5 98.0,64.5 98.0,61.0 Z " /> 
    <path fill="#bfc2c7" stroke="white" stroke-width="0.1" fill-rule="evenodd" d="M 90.0,64.5 90.0,69.0 98.0,69.0 98.0,64.5 Z " /> 
    <path fill="#bfc2c7" stroke="white" stroke-width="0.1" fill-rule="evenodd" d="M 90.0,69.0 90.0,73.5 98.0,73.5 98.0,69.0 Z " /> 
    <path fill="#bfc2c7" stroke="white" stroke-width="0.1" fill-rule="evenodd" d="M 69.0,56.0 74.5,56.0 74.5,62.5 69.0,62.5 Z " /> 
    <path fill="#bfc2c7" stroke="white" stroke-width="0.1" fill-rule="evenodd" d="M 29.0,73.5 37.0,73.5 37.0,78.5 29.0,78.5 Z " /> 
    <path fill="#bfc2c7" stroke="white" stroke-width="0.1" fill-rule="evenodd" d="M 29.0,78.5 29.0,82.0 35.5,82.0 35.5,78.5 Z " /> 
    <path fill="#bfc2c7" stroke="white" stroke-width="0.1" fill-rule="evenodd" d="M 35.5,78.5 35.5,85.0 40.0,85.0 40.0,78.5 Z " /> 
    <path fill="#bfc2c7" stroke="white" stroke-width="0.1" fill-rule="evenodd" d="M 29.0,82.0 35.5,82.0 35.5,85.0 29.0,85.0 Z " /> 
    <path fill="#bfc2c7" stroke="white" stroke-width="0.1" fill-rule="evenodd" d="M 40.0,80.0 47.0,80.0 47.0,84.0 40.0,84.0 Z " /> 
    <path fill="#bfc2c7" stroke="white" stroke-width="0.1" fill-rule="evenodd" d="M 29.0,69.0 37.0,69.0 37.0,73.5 29.0,73.5 Z " /> 
    <path fill="#bfc2c7" stroke="white" stroke-width="0.1" fill-rule="evenodd" d="M 87.0,72.5 90.0,72.5 90.0,78.5 87.0,78.5 Z " /> 
    <path fill="#bfc2c7" stroke="white" stroke-width="0.1" fill-rule="evenodd" d="M 90.0,73.5 93.0,73.5 93.0,78.5 90.0,78.5 Z " /> 
    <path fill="#bfc2c7" stroke="white" stroke-width="0.1" fill-rule="evenodd" d="M 93.0,73.5 98.0,73.5 98.0,78.5 93.0,78.5 Z " /> 
    <path fill="#bfc2c7" stroke="white" stroke-width="0.1" fill-rule="evenodd" d="M 87.0,78.5 93.0,78.5 93.0,85.0 87.0,85.0 Z " /> 
    <path fill="#bfc2c7" stroke="white" stroke-width="0.1" fill-rule="evenodd" d="M 93.0,81.5 95.0,81.5 95.0,85.0 93.0,85.0 Z " /> 
    <path fill="#bfc2c7" stroke="white" stroke-width="0.1" fill-rule="evenodd" d="M 37.0,53.5 37.0,56.0 40.0,56.0 40.0,53.5 Z " /> 
    <image x="82.3" y="52.3" width="2.4000000000000004" height="2.4000000000000004" href="http://mapy.utp.edu.pl/images/stairs_white.svg" /> 
    <image x="81.7911992509365" y="57.791199250936494" width="3.4176014981270124" height="3.4176014981270124" href="http://mapy.utp.edu.pl/images/cloakroom_white.svg" /> 
    <image x="83.25138974728779" y="64.37638974728779" width="2.247220505424423" height="2.247220505424423" href="http://mapy.utp.edu.pl/images/toilet_white.svg" /> 
    <image x="82.93431457505076" y="67.43431457505076" width="1.1313708498984762" height="1.1313708498984762" href="http://mapy.utp.edu.pl/images/toilet_white.svg" /> 
    <image x="84.93431457505076" y="67.43431457505076" width="1.1313708498984762" height="1.1313708498984762" href="http://mapy.utp.edu.pl/images/toilet_white.svg" /> 
    <image x="31.211145618000167" y="69.21114561800017" width="3.577708763999664" height="3.577708763999664" href="http://mapy.utp.edu.pl/images/stairs_white.svg" /> 
    <image x="37.778889744907204" y="54.278889744907204" width="1.4422205101855958" height="1.4422205101855958" href="http://mapy.utp.edu.pl/images/lift_white.svg" /> 
    <text x="82.5" y="50.5" alignment-baseline="middle" text-anchor="middle" fill="white" font-weight="normal" font-size="0.6000000000000001" font-family="Open Sans">
     G10
    </text> 
    <text x="83.5" y="78.5" alignment-baseline="middle" text-anchor="middle" fill="white" font-weight="normal" font-size="1.0" font-family="Open Sans">
     19
    </text> 
    <text x="74.5" y="78.0" alignment-baseline="middle" text-anchor="middle" fill="white" font-weight="normal" font-size="1.0" font-family="Open Sans">
     20
    </text> 
    <text x="67.0" y="74.0" alignment-baseline="middle" text-anchor="middle" fill="white" font-weight="normal" font-size="0.5" font-family="Open Sans">
     20b
    </text> 
    <text x="67.5" y="79.0" alignment-baseline="middle" text-anchor="middle" fill="white" font-weight="normal" font-size="0.7000000000000001" font-family="Open Sans">
     20a
    </text> 
    <text x="63.5" y="78.0" alignment-baseline="middle" text-anchor="middle" fill="white" font-weight="normal" font-size="0.9" font-family="Open Sans">
     21
    </text> 
    <text x="58.0" y="78.0" alignment-baseline="middle" text-anchor="middle" fill="white" font-weight="normal" font-size="1.0" font-family="Open Sans">
     22
    </text> 
    <text x="50.0" y="78.0" alignment-baseline="middle" text-anchor="middle" fill="white" font-weight="normal" font-size="1.0" font-family="Open Sans">
     24
    </text> 
    <text x="45.5" y="76.0" alignment-baseline="middle" text-anchor="middle" fill="white" font-weight="normal" font-size="0.6000000000000001" font-family="Open Sans">
     25
    </text> 
    <text x="42.0" y="76.0" alignment-baseline="middle" text-anchor="middle" fill="white" font-weight="normal" font-size="0.8" font-family="Open Sans">
     26
    </text> 
    <text x="61.0" y="65.5" alignment-baseline="middle" text-anchor="middle" fill="white" font-weight="normal" font-size="1.0" font-family="Open Sans">
     37
    </text> 
    <text x="66.5" y="65.5" alignment-baseline="middle" text-anchor="middle" fill="white" font-weight="normal" font-size="1.0" font-family="Open Sans">
     37a
    </text> 
    <text x="71.75" y="67.0" alignment-baseline="middle" text-anchor="middle" fill="white" font-weight="normal" font-size="0.8" font-family="Open Sans">
     37b
    </text> 
    <text x="55.5" y="67.0" alignment-baseline="middle" text-anchor="middle" fill="white" font-weight="normal" font-size="0.9" font-family="Open Sans">
     37c
    </text> 
    <text x="50.0" y="64.5" alignment-baseline="middle" text-anchor="middle" fill="white" font-weight="normal" font-size="1.0" font-family="Open Sans">
     36
    </text> 
    <text x="50.0" y="58.5" alignment-baseline="middle" text-anchor="middle" fill="white" font-weight="normal" font-size="0.9" font-family="Open Sans">
     36a
    </text> 
    <text x="44.0" y="62.5" alignment-baseline="middle" text-anchor="middle" fill="white" font-weight="normal" font-size="1.0" font-family="Open Sans">
     35
    </text> 
    <text x="33.0" y="67.0" alignment-baseline="middle" text-anchor="middle" fill="white" font-weight="normal" font-size="0.8" font-family="Open Sans">
     32
    </text> 
    <text x="33.0" y="62.5" alignment-baseline="middle" text-anchor="middle" fill="white" font-weight="normal" font-size="0.9" font-family="Open Sans">
     33
    </text> 
    <text x="35.0" y="58.5" alignment-baseline="middle" text-anchor="middle" fill="white" font-weight="normal" font-size="0.7000000000000001" font-family="Open Sans">
     34
    </text> 
    <text x="31.0" y="58.5" alignment-baseline="middle" text-anchor="middle" fill="white" font-weight="normal" font-size="0.9" font-family="Open Sans">
     34a
    </text> 
    <text x="66.25" y="59.0" alignment-baseline="middle" text-anchor="middle" fill="white" font-weight="normal" font-size="1.0" font-family="Open Sans">
     38
    </text> 
    <text x="61.0" y="59.0" alignment-baseline="middle" text-anchor="middle" fill="white" font-weight="normal" font-size="1.0" font-family="Open Sans">
     38a
    </text> 
    <text x="55.5" y="60.5" alignment-baseline="middle" text-anchor="middle" fill="white" font-weight="normal" font-size="1.0" font-family="Open Sans">
     38b
    </text> 
    <text x="92.5" y="58.5" alignment-baseline="middle" text-anchor="middle" fill="white" font-weight="normal" font-size="1.0" font-family="Open Sans">
     G02
    </text> 
    <text x="94.0" y="62.5" alignment-baseline="middle" text-anchor="middle" fill="white" font-weight="normal" font-size="0.7000000000000001" font-family="Open Sans">
     11
    </text> 
    <text x="94.0" y="66.5" alignment-baseline="middle" text-anchor="middle" fill="white" font-weight="normal" font-size="0.9" font-family="Open Sans">
     12
    </text> 
    <text x="94.0" y="71.0" alignment-baseline="middle" text-anchor="middle" fill="white" font-weight="normal" font-size="0.9" font-family="Open Sans">
     13
    </text> 
    <text x="72.0" y="59.5" alignment-baseline="middle" text-anchor="middle" fill="white" font-weight="normal" font-size="1.0" font-family="Open Sans">
     39
    </text> 
    <text x="33.5" y="76.0" alignment-baseline="middle" text-anchor="middle" fill="white" font-weight="normal" font-size="1.0" font-family="Open Sans">
     27c
    </text> 
    <text x="32.0" y="80.0" alignment-baseline="middle" text-anchor="middle" fill="white" font-weight="normal" font-size="0.7000000000000001" font-family="Open Sans">
     27a
    </text> 
    <text x="37.5" y="82.0" alignment-baseline="middle" text-anchor="middle" fill="white" font-weight="normal" font-size="0.9" font-family="Open Sans">
     27
    </text> 
    <text x="33.5" y="83.5" alignment-baseline="middle" text-anchor="middle" fill="white" font-weight="normal" font-size="0.6000000000000001" font-family="Open Sans">
     27b
    </text> 
    <text x="43.5" y="82.0" alignment-baseline="middle" text-anchor="middle" fill="white" font-weight="normal" font-size="0.8" font-family="Open Sans">
     24a
    </text> 
    <text x="88.5" y="77.0" alignment-baseline="middle" text-anchor="middle" fill="white" font-weight="normal" font-size="0.6000000000000001" font-family="Open Sans">
     18
    </text> 
    <text x="91.5" y="75.5" alignment-baseline="middle" text-anchor="middle" fill="white" font-weight="normal" font-size="0.6000000000000001" font-family="Open Sans">
     18b
    </text> 
    <text x="95.5" y="75.5" alignment-baseline="middle" text-anchor="middle" fill="white" font-weight="normal" font-size="1.0" font-family="Open Sans">
     18c
    </text> 
    <text x="90.0" y="82.0" alignment-baseline="middle" text-anchor="middle" fill="white" font-weight="normal" font-size="1.0" font-family="Open Sans">
     18a
    </text> 
    <text x="94.0" y="83.5" alignment-baseline="middle" text-anchor="middle" fill="white" font-weight="normal" font-size="0.4" font-family="Open Sans">
     18d 
    </text> 
    <path fill="#ababab" stroke="none" stroke-width="0" fill-rule="evenodd" d="M 170.0,13.0 170.0,20.5 -83.0,5.0 -83.0,-1.5 Z " /> 
   </g> 
  </g> 
 </g> 
</svg>