<svg xmlns="http://www.w3.org/2000/svg" width="130.0" height="130.0"> 
 <style type="text/css"><![CDATA[@keyframes pulse2 {0% {stroke-width: 0.1} 50% {stroke-width: 1.0} 100% {stroke-width: 0.1}
@-moz-keyframes pulse2 {0% {stroke-width: 0.1} 50% {stroke-width: 1.0} 100% {stroke-width: 0.1}
]]></style> 
 <g transform="translate(65.0,65.0)"> 
  <g transform="matrix(0.707 0.409 -0.707 0.409 0 -0.816)"> 
   <g transform="translate(-65.0,-65.0)"> 
    <path fill="#ababab" stroke="lightgray" stroke-width="0.25" fill-rule="evenodd" d="M 98.0,56.0 98.0,85.0 87.0,85.0 87.0,84.0 40.0,84.0 40.0,85.0 29.0,85.0 29.0,56.0 37.0,56.0 37.0,53.5 40.0,53.5 40.0,56.0 75.5,56.0 75.5,49.0 87.5,49.0 87.5,56.0 Z " /> 
    <path fill="#ababab" stroke="white" stroke-width="0" fill-rule="evenodd" d="M 76.5,50.0 76.5,69.0 81.0,69.0 82.5,62.0 87.0,62.0 87.0,56.0 80.5,56.0 80.5,50.0 Z " /> 
    <path fill="#ababab" stroke="white" stroke-width="0" fill-rule="evenodd" d="M 40.0,69.0 40.0,72.5 87.0,72.5 87.0,69.0 Z " /> 
    <path fill="#ababab" stroke="white" stroke-width="0" fill-rule="evenodd" d="M 87.0,57.5 87.0,78.5 90.0,78.5 90.0,57.5 Z " /> 
    <path fill="#ababab" stroke="white" stroke-width="0" fill-rule="evenodd" d="M 37.0,72.5 40.0,72.5 40.0,56.0 37.0,56.0 Z " /> 
    <path fill="#ababab" stroke="white" stroke-width="0" fill-rule="evenodd" d="M 37.0,72.5 37.0,78.5 40.0,78.5 40.0,72.5 Z " /> 
    <path fill="#bfc2c7" stroke="white" stroke-width="0.1" fill-rule="evenodd" d="M 80.5,50.0 87.5,50.0 87.5,54.5 80.5,54.5 Z " /> 
    <path fill="#bfc2c7" stroke="white" stroke-width="0.1" fill-rule="evenodd" d="M 29.0,68.5 37.0,68.5 37.0,73.0 29.0,73.0 Z " /> 
    <path fill="#bfc2c7" stroke="white" stroke-width="0.1" fill-rule="evenodd" d="M 58.0,69.0 76.5,69.0 76.5,56.0 58.0,56.0 Z " /> 
    <path fill="#bfc2c7" stroke="white" stroke-width="0.1" fill-rule="evenodd" d="M 53.0,69.0 58.0,69.0 58.0,56.0 53.0,56.0 Z " /> 
    <path fill="#bfc2c7" stroke="white" stroke-width="0.1" fill-rule="evenodd" d="M 40.0,69.0 53.0,69.0 53.0,56.0 40.0,56.0 Z " /> 
    <path fill="#bfc2c7" stroke="white" stroke-width="0.1" fill-rule="evenodd" d="M 37.0,56.0 40.0,56.0 40.0,53.5 37.0,53.5 Z " /> 
    <path fill="#bfc2c7" stroke="white" stroke-width="0.1" fill-rule="evenodd" d="M 29.0,56.0 37.0,56.0 37.0,60.5 29.0,60.5 Z " /> 
    <path fill="#bfc2c7" stroke="white" stroke-width="0.1" fill-rule="evenodd" d="M 29.0,60.5 37.0,60.5 37.0,64.5 29.0,64.5 Z " /> 
    <path fill="#bfc2c7" stroke="white" stroke-width="0.1" fill-rule="evenodd" d="M 29.0,64.5 29.0,68.5 37.0,68.5 37.0,64.5 Z " /> 
    <path fill="#bfc2c7" stroke="white" stroke-width="0.1" fill-rule="evenodd" d="M 40.0,72.5 40.0,84.0 47.0,84.0 47.0,72.5 Z " /> 
    <path fill="#bfc2c7" stroke="white" stroke-width="0.1" fill-rule="evenodd" d="M 47.0,72.5 54.0,72.5 54.0,84.0 47.0,84.0 Z " /> 
    <path fill="#bfc2c7" stroke="white" stroke-width="0.1" fill-rule="evenodd" d="M 54.0,72.5 54.0,84.0 61.0,84.0 61.0,72.5 Z " /> 
    <path fill="#bfc2c7" stroke="white" stroke-width="0.1" fill-rule="evenodd" d="M 61.0,72.5 61.0,84.0 66.0,84.0 66.0,72.5 Z " /> 
    <path fill="#bfc2c7" stroke="white" stroke-width="0.1" fill-rule="evenodd" d="M 66.0,72.5 66.0,84.0 72.5,84.0 72.5,72.5 Z " /> 
    <path fill="#bfc2c7" stroke="white" stroke-width="0.1" fill-rule="evenodd" d="M 72.5,72.5 72.5,84.0 80.0,84.0 80.0,72.5 Z " /> 
    <path fill="#bfc2c7" stroke="white" stroke-width="0.1" fill-rule="evenodd" d="M 80.0,72.5 80.0,84.0 87.0,84.0 87.0,72.5 Z " /> 
    <path fill="#bfc2c7" stroke="white" stroke-width="0.1" fill-rule="evenodd" d="M 87.0,78.5 87.0,85.0 92.5,85.0 92.5,78.5 Z " /> 
    <path fill="#bfc2c7" stroke="white" stroke-width="0.1" fill-rule="evenodd" d="M 92.5,78.5 92.5,85.0 98.0,85.0 98.0,78.5 Z " /> 
    <path fill="#bfc2c7" stroke="white" stroke-width="0.1" fill-rule="evenodd" d="M 90.0,73.0 90.0,78.5 98.0,78.5 98.0,73.0 Z " /> 
    <path fill="#bfc2c7" stroke="white" stroke-width="0.1" fill-rule="evenodd" d="M 90.0,68.5 98.0,68.5 98.0,73.0 90.0,73.0 Z " /> 
    <path fill="#bfc2c7" stroke="white" stroke-width="0.1" fill-rule="evenodd" d="M 90.0,64.5 98.0,64.5 98.0,68.5 90.0,68.5 Z " /> 
    <path fill="#bfc2c7" stroke="white" stroke-width="0.1" fill-rule="evenodd" d="M 90.0,60.5 98.0,60.5 98.0,64.5 90.0,64.5 Z " /> 
    <path fill="#bfc2c7" stroke="white" stroke-width="0.1" fill-rule="evenodd" d="M 90.0,56.0 90.0,60.5 98.0,60.5 98.0,56.0 Z " /> 
    <path fill="#bfc2c7" stroke="white" stroke-width="0.1" fill-rule="evenodd" d="M 29.0,73.0 29.0,78.5 37.0,78.5 37.0,73.0 Z " /> 
    <path fill="#bfc2c7" stroke="white" stroke-width="0.1" fill-rule="evenodd" d="M 29.0,78.5 29.0,82.0 34.5,82.0 34.5,80.0 36.0,80.0 36.0,78.5 Z " /> 
    <path fill="#bfc2c7" stroke="white" stroke-width="0.1" fill-rule="evenodd" d="M 29.0,82.0 29.0,85.0 34.5,85.0 34.5,82.0 Z " /> 
    <path fill="#bfc2c7" stroke="white" stroke-width="0.1" fill-rule="evenodd" d="M 36.0,78.5 36.0,80.0 34.5,80.0 34.5,85.0 40.0,85.0 40.0,78.5 Z " /> 
    <path fill="#bfc2c7" stroke="white" stroke-width="0.1" fill-rule="evenodd" d="M 82.5,62.0 82.0,64.0 87.0,64.0 87.0,62.0 Z " /> 
    <path fill="#bfc2c7" stroke="white" stroke-width="0.1" fill-rule="evenodd" d="M 82.0,64.0 81.5,67.0 87.0,67.0 87.0,64.0 Z " /> 
    <path fill="#bfc2c7" stroke="white" stroke-width="0.1" fill-rule="evenodd" d="M 81.5,67.0 81.0,69.0 84.5,69.0 84.5,67.0 Z " /> 
    <path fill="#bfc2c7" stroke="white" stroke-width="0.1" fill-rule="evenodd" d="M 84.5,67.0 84.5,69.0 87.0,69.0 87.0,67.0 Z " /> 
    <image x="82.38754845034029" y="50.38754845034029" width="3.2249030993194197" height="3.2249030993194197" href="http://mapy.utp.edu.pl/images/stairs_white.svg" /> 
    <image x="31.211145618000167" y="69.21114561800017" width="3.577708763999664" height="3.577708763999664" href="http://mapy.utp.edu.pl/images/stairs_white.svg" /> 
    <image x="37.778889744907204" y="54.278889744907204" width="1.4422205101855958" height="1.4422205101855958" href="http://mapy.utp.edu.pl/images/lift_white.svg" /> 
    <image x="83.825" y="62.2" width="1.6" height="1.6" href="http://mapy.utp.edu.pl/images/toilet_white.svg" /> 
    <image x="83.25138974728779" y="64.37638974728779" width="2.247220505424423" height="2.247220505424423" href="http://mapy.utp.edu.pl/images/toilet_white.svg" /> 
    <image x="81.93431457505076" y="67.43431457505076" width="1.1313708498984762" height="1.1313708498984762" href="http://mapy.utp.edu.pl/images/toilet_white.svg" /> 
    <image x="85.43431457505076" y="67.43431457505076" width="1.1313708498984762" height="1.1313708498984762" href="http://mapy.utp.edu.pl/images/toilet_white.svg" /> 
    <text x="66.5" y="62.5" alignment-baseline="middle" text-anchor="middle" fill="white" font-weight="normal" font-size="1.0" font-family="Open Sans">
     327a
    </text> 
    <text x="55.5" y="62.5" alignment-baseline="middle" text-anchor="middle" fill="white" font-weight="normal" font-size="1.0" font-family="Open Sans">
     327b
    </text> 
    <text x="46.5" y="62.5" alignment-baseline="middle" text-anchor="middle" fill="white" font-weight="normal" font-size="1.0" font-family="Open Sans">
     326
    </text> 
    <text x="33.0" y="58.5" alignment-baseline="middle" text-anchor="middle" fill="white" font-weight="normal" font-size="0.9" font-family="Open Sans">
     325
    </text> 
    <text x="33.0" y="62.5" alignment-baseline="middle" text-anchor="middle" fill="white" font-weight="normal" font-size="0.8" font-family="Open Sans">
     324
    </text> 
    <text x="33.0" y="66.5" alignment-baseline="middle" text-anchor="middle" fill="white" font-weight="normal" font-size="0.8" font-family="Open Sans">
     323
    </text> 
    <text x="43.5" y="78.25" alignment-baseline="middle" text-anchor="middle" fill="white" font-weight="normal" font-size="1.0" font-family="Open Sans">
     320a
    </text> 
    <text x="50.5" y="78.25" alignment-baseline="middle" text-anchor="middle" fill="white" font-weight="normal" font-size="1.0" font-family="Open Sans">
     320b
    </text> 
    <text x="58.0" y="78.5" alignment-baseline="middle" text-anchor="middle" fill="white" font-weight="normal" font-size="1.0" font-family="Open Sans">
     319
    </text> 
    <text x="63.5" y="78.25" alignment-baseline="middle" text-anchor="middle" fill="white" font-weight="normal" font-size="1.0" font-family="Open Sans">
     318
    </text> 
    <text x="69.5" y="78.0" alignment-baseline="middle" text-anchor="middle" fill="white" font-weight="normal" font-size="1.0" font-family="Open Sans">
     317
    </text> 
    <text x="76.0" y="78.0" alignment-baseline="middle" text-anchor="middle" fill="white" font-weight="normal" font-size="1.0" font-family="Open Sans">
     316
    </text> 
    <text x="84.0" y="78.0" alignment-baseline="middle" text-anchor="middle" fill="white" font-weight="normal" font-size="1.0" font-family="Open Sans">
     315
    </text> 
    <text x="88.5" y="82.0" alignment-baseline="middle" text-anchor="middle" fill="white" font-weight="normal" font-size="1.0" font-family="Open Sans">
     314
    </text> 
    <text x="95.0" y="82.0" alignment-baseline="middle" text-anchor="middle" fill="white" font-weight="normal" font-size="1.0" font-family="Open Sans">
     313
    </text> 
    <text x="95.0" y="76.0" alignment-baseline="middle" text-anchor="middle" fill="white" font-weight="normal" font-size="1.0" font-family="Open Sans">
     312
    </text> 
    <text x="94.0" y="71.0" alignment-baseline="middle" text-anchor="middle" fill="white" font-weight="normal" font-size="0.9" font-family="Open Sans">
     311
    </text> 
    <text x="94.0" y="66.5" alignment-baseline="middle" text-anchor="middle" fill="white" font-weight="normal" font-size="0.8" font-family="Open Sans">
     310
    </text> 
    <text x="94.0" y="62.5" alignment-baseline="middle" text-anchor="middle" fill="white" font-weight="normal" font-size="0.8" font-family="Open Sans">
     309
    </text> 
    <text x="94.0" y="58.5" alignment-baseline="middle" text-anchor="middle" fill="white" font-weight="normal" font-size="0.9" font-family="Open Sans">
     308
    </text> 
    <text x="33.5" y="76.0" alignment-baseline="middle" text-anchor="middle" fill="white" font-weight="normal" font-size="1.0" font-family="Open Sans">
     321c
    </text> 
    <text x="32.0" y="80.0" alignment-baseline="middle" text-anchor="middle" fill="white" font-weight="normal" font-size="0.7000000000000001" font-family="Open Sans">
     321b
    </text> 
    <text x="32.0" y="83.5" alignment-baseline="middle" text-anchor="middle" fill="white" font-weight="normal" font-size="0.6000000000000001" font-family="Open Sans">
     321a
    </text> 
    <text x="38.5" y="81.5" alignment-baseline="middle" text-anchor="middle" fill="white" font-weight="normal" font-size="1.0" font-family="Open Sans">
     321
    </text> 
   </g> 
  </g> 
 </g> 
</svg>