<svg xmlns="http://www.w3.org/2000/svg" width="500.0" height="500.0"> 
 <style type="text/css"><![CDATA[@keyframes pulse2 {0% {stroke-width: 0.1} 50% {stroke-width: 1.0} 100% {stroke-width: 0.1}
@-moz-keyframes pulse2 {0% {stroke-width: 0.1} 50% {stroke-width: 1.0} 100% {stroke-width: 0.1}
]]></style> 
 <g transform="translate(250.0,250.0)"> 
  <g transform="matrix(0.707 0.409 -0.707 0.409 0 -0.816)"> 
   <g transform="translate(-250.0,-250.0)"> 
    <path fill="#ababab" stroke="lightgray" stroke-width="0.25" fill-rule="evenodd" d="M 212.0,333.0 215.0,333.0 215.0,334.5 221.6,340.2 228.1,345.8 253.0,367.2 254.8,365.2 256.8,363.0 262.0,357.1 262.9,358.5 265.2,357.0 267.0,356.8 268.8,357.3 270.3,358.5 271.2,360.0 268.2,366.0 271.7,369.7 270.6,370.9 273.9,374.4 277.6,377.2 281.7,379.4 286.2,380.8 290.8,381.4 295.4,381.4 299.9,380.4 299.8,378.8 304.8,377.8 306.0,371.3 307.7,370.5 309.5,370.4 311.3,371.1 312.7,372.3 313.8,374.8 315.2,374.3 315.6,378.7 315.9,381.9 316.2,384.3 316.7,390.0 317.1,393.9 317.4,396.9 317.7,400.0 318.9,411.8 319.8,421.2 318.4,421.3 318.7,425.4 311.0,425.0 304.5,425.7 303.3,413.9 293.6,414.8 294.2,420.8 292.6,420.9 285.8,421.1 279.3,420.3 272.7,418.8 269.2,417.6 263.0,414.9 257.1,411.3 251.8,407.1 255.8,402.6 248.4,396.2 244.8,400.3 240.6,405.2 238.3,407.8 233.6,403.8 236.0,401.2 235.5,400.9 229.3,396.8 231.9,393.6 230.8,392.6 233.0,390.1 250.7,369.8 226.0,348.3 219.5,342.6 211.8,335.7 Z " /> 
    <path fill="#ababab" stroke="white" stroke-width="0" fill-rule="evenodd" d="M 221.6,340.2 219.5,342.6 250.7,369.8 253.0,367.2 Z " /> 
    <path fill="#ababab" stroke="white" stroke-width="0" fill-rule="evenodd" d="M 258.8,370.6 260.7,372.4 265.5,367.0 267.3,365.0 265.7,362.8 261.7,367.4 Z " /> 
    <path fill="#ababab" stroke="white" stroke-width="0" fill-rule="evenodd" d="M 254.7,375.3 256.6,377.1 255.2,378.7 254.1,379.9 252.5,381.7 251.8,381.1 243.2,390.9 239.2,395.4 239.8,395.9 237.5,398.5 235.6,396.9 237.9,394.4 Z " /> 
    <path fill="#ababab" stroke="white" stroke-width="0" fill-rule="evenodd" d="M 257.1,370.7 258.8,370.6 260.7,372.4 262.7,374.2 265.8,376.9 264.9,378.0 261.7,375.3 259.7,373.6 257.5,376.1 256.6,377.1 254.7,375.3 254.4,373.0 250.7,369.8 253.0,367.2 Z " /> 
    <path fill="#ababab" stroke="white" stroke-width="0" fill-rule="evenodd" d="M 310.3,391.7 307.8,392.0 308.1,394.8 308.4,397.8 309.3,397.7 311.7,421.8 313.3,421.7 312.4,412.5 311.2,400.7 310.9,397.6 310.6,394.6 Z " /> 
    <path fill="#ababab" stroke="white" stroke-width="0" fill-rule="evenodd" d="M 307.8,392.0 310.3,391.7 310.2,390.7 310.0,388.6 309.7,386.5 307.3,386.8 307.5,388.9 Z " /> 
    <path fill="#ababab" stroke="white" stroke-width="0" fill-rule="evenodd" d="M 307.3,386.8 309.7,386.5 309.7,386.1 309.6,385.0 309.4,382.6 309.1,379.4 308.8,376.7 308.1,377.0 306.4,377.5 306.8,382.3 307.0,384.4 306.0,385.1 306.1,386.3 Z " /> 
    <path fill="#464646" stroke="white" stroke-width="0.1" fill-rule="evenodd" d="M 219.5,342.6 221.6,340.2 228.1,345.8 226.0,348.3 Z " /> 
    <path fill="#464646" stroke="white" stroke-width="0.1" fill-rule="evenodd" d="M 231.9,393.6 229.3,396.8 235.5,400.9 237.6,398.6 237.5,398.5 235.6,396.9 Z " /> 
    <path fill="#464646" stroke="white" stroke-width="0.1" fill-rule="evenodd" d="M 254.7,375.3 254.4,373.0 250.7,369.8 233.0,390.1 237.9,394.4 Z " /> 
    <path fill="#464646" stroke="white" stroke-width="0.1" fill-rule="evenodd" d="M 253.0,367.2 257.1,370.7 258.8,370.6 259.8,369.5 254.8,365.2 Z " /> 
    <path fill="#464646" stroke="white" stroke-width="0.1" fill-rule="evenodd" d="M 259.8,369.5 261.7,367.4 256.8,363.0 254.8,365.2 Z " /> 
    <path fill="#464646" stroke="white" stroke-width="0.1" fill-rule="evenodd" d="M 256.8,363.0 261.7,367.4 265.7,362.8 262.9,358.5 262.0,357.1 Z " /> 
    <path fill="#464646" stroke="white" stroke-width="0.1" fill-rule="evenodd" d="M 235.6,396.9 237.9,394.4 233.0,390.1 230.8,392.6 231.9,393.6 Z " /> 
    <path fill="#464646" stroke="white" stroke-width="0.1" fill-rule="evenodd" d="M 239.8,395.9 239.2,395.4 243.2,390.9 245.3,392.8 241.4,397.3 Z " /> 
    <path fill="#464646" stroke="white" stroke-width="0.1" fill-rule="evenodd" d="M 235.5,400.9 236.0,401.2 237.9,402.8 239.9,400.6 237.6,398.6 Z " /> 
    <path fill="#464646" stroke="white" stroke-width="0.1" fill-rule="evenodd" d="M 237.9,402.8 240.6,405.2 244.8,400.3 242.2,398.0 239.9,400.6 Z " /> 
    <path fill="#464646" stroke="white" stroke-width="0.1" fill-rule="evenodd" d="M 239.9,400.6 242.2,398.0 241.4,397.3 239.8,395.9 239.7,396.0 237.5,398.5 237.6,398.6 Z " /> 
    <path fill="#464646" stroke="white" stroke-width="0.1" fill-rule="evenodd" d="M 236.0,401.2 237.9,402.8 240.6,405.2 238.3,407.8 233.6,403.8 Z " /> 
    <path fill="#464646" stroke="white" stroke-width="0.1" fill-rule="evenodd" d="M 259.7,373.6 261.7,375.3 259.5,377.8 257.5,376.1 Z " /> 
    <path fill="#464646" stroke="white" stroke-width="0.1" fill-rule="evenodd" d="M 259.5,377.8 261.7,375.3 262.7,374.2 260.7,372.4 265.5,367.0 270.3,371.3 261.5,381.3 259.7,379.8 258.6,378.8 Z " /> 
    <path fill="#464646" stroke="white" stroke-width="0.1" fill-rule="evenodd" d="M 256.6,377.1 258.1,378.4 256.7,380.0 255.2,378.7 Z " /> 
    <path fill="#464646" stroke="white" stroke-width="0.1" fill-rule="evenodd" d="M 257.5,376.1 256.6,377.1 258.1,378.4 258.6,378.8 259.5,377.8 Z " /> 
    <path fill="#464646" stroke="white" stroke-width="0.1" fill-rule="evenodd" d="M 254.1,379.9 255.2,378.7 256.7,380.0 258.1,378.4 258.6,378.8 259.7,379.8 261.5,381.3 258.9,384.2 Z " /> 
    <path fill="#464646" stroke="white" stroke-width="0.1" fill-rule="evenodd" d="M 304.8,377.8 306.4,377.5 308.1,377.0 308.8,376.7 313.6,374.9 313.8,374.8 312.7,372.3 306.0,371.3 Z " /> 
    <path fill="#464646" stroke="white" stroke-width="0.1" fill-rule="evenodd" d="M 308.8,376.7 313.6,374.9 313.8,374.8 315.2,374.3 315.6,378.7 309.1,379.4 Z " /> 
    <path fill="#464646" stroke="white" stroke-width="0.1" fill-rule="evenodd" d="M 319.8,421.2 318.3,421.3 313.3,421.7 312.4,412.5 318.9,411.8 Z " /> 
    <path fill="#464646" stroke="white" stroke-width="0.1" fill-rule="evenodd" d="M 312.4,412.5 318.9,411.8 317.7,400.0 311.2,400.7 Z " /> 
    <path fill="#464646" stroke="white" stroke-width="0.1" fill-rule="evenodd" d="M 311.0,425.0 318.7,425.4 318.4,421.3 313.3,421.7 311.7,421.8 310.6,421.9 Z " /> 
    <path fill="#464646" stroke="white" stroke-width="0.1" fill-rule="evenodd" d="M 301.5,395.5 308.1,394.8 307.8,392.0 307.5,388.9 300.9,389.6 Z " /> 
    <path fill="#464646" stroke="white" stroke-width="0.1" fill-rule="evenodd" d="M 300.9,389.6 307.5,388.9 307.3,386.8 306.1,386.3 300.6,386.9 Z " /> 
    <path fill="#464646" stroke="white" stroke-width="0.1" fill-rule="evenodd" d="M 300.6,386.9 306.1,386.3 306.0,385.1 303.2,385.4 302.9,382.7 300.2,383.0 Z " /> 
    <path fill="#464646" stroke="white" stroke-width="0.1" fill-rule="evenodd" d="M 303.2,385.4 306.0,385.1 307.0,384.4 306.8,382.3 302.9,382.7 Z " /> 
    <path fill="#464646" stroke="white" stroke-width="0.1" fill-rule="evenodd" d="M 309.1,379.4 315.6,378.7 315.9,381.9 309.4,382.6 Z " /> 
    <path fill="#464646" stroke="white" stroke-width="0.1" fill-rule="evenodd" d="M 309.4,382.6 315.9,381.9 316.2,384.3 309.6,385.0 Z " /> 
    <path fill="#464646" stroke="white" stroke-width="0.1" fill-rule="evenodd" d="M 313.3,388.2 313.5,390.3 316.7,390.0 316.2,384.3 309.6,385.0 309.7,386.1 313.0,385.8 Z " /> 
    <path fill="#464646" stroke="white" stroke-width="0.1" fill-rule="evenodd" d="M 313.3,388.2 310.0,388.6 310.2,390.7 313.5,390.3 Z " /> 
    <path fill="#464646" stroke="white" stroke-width="0.1" fill-rule="evenodd" d="M 310.2,390.7 313.5,390.3 316.7,390.0 317.1,393.9 310.6,394.6 Z " /> 
    <path fill="#464646" stroke="white" stroke-width="0.1" fill-rule="evenodd" d="M 310.6,394.6 317.1,393.9 317.4,396.9 310.9,397.6 Z " /> 
    <path fill="#464646" stroke="white" stroke-width="0.1" fill-rule="evenodd" d="M 310.9,397.6 311.2,400.7 317.7,400.0 317.4,396.9 Z " /> 
    <path fill="#464646" stroke="white" stroke-width="0.1" fill-rule="evenodd" d="M 310.0,388.6 309.7,386.5 309.7,386.1 313.0,385.8 313.3,388.2 Z " /> 
    <path fill="#464646" stroke="white" stroke-width="0.1" fill-rule="evenodd" d="M 270.3,371.3 271.7,369.7 268.2,366.0 267.3,365.0 265.5,367.0 Z " /> 
    <path fill="#464646" stroke="white" stroke-width="0.1" fill-rule="evenodd" d="M 243.2,390.9 245.3,392.8 241.4,397.3 242.2,398.0 244.8,400.3 248.4,396.2 258.9,384.2 254.1,379.9 252.5,381.7 251.8,381.1 Z " /> 
    <path fill="#464646" stroke="white" stroke-width="0.1" fill-rule="evenodd" d="M 271.2,360.0 265.2,357.0 262.9,358.5 265.7,362.8 267.3,365.0 268.2,366.0 Z " /> 
    <path fill="#464646" stroke="white" stroke-width="0.1" fill-rule="evenodd" d="M 299.8,378.8 299.9,380.4 300.2,383.0 302.9,382.7 306.8,382.3 306.4,377.5 304.8,377.8 Z " /> 
    <path fill="#464646" stroke="white" stroke-width="0.1" fill-rule="evenodd" d="M 303.3,413.9 304.5,425.7 311.0,425.0 310.6,421.9 311.7,421.8 309.3,397.7 308.4,397.8 308.1,394.8 301.5,395.5 Z " /> 
    <image x="221.3235647064118" y="341.8235647064118" width="2.3528705871764486" height="2.3528705871764486" href="http://mapy.utp.edu.pl/images/stairs_white.svg" /> 
    <image x="232.62638681328633" y="396.62638681328633" width="1.747226373427325" height="1.747226373427325" href="http://mapy.utp.edu.pl/images/stairs_white.svg" /> 
    <image x="236.23058463753316" y="403.7305846375331" width="1.5388307249337019" height="1.5388307249337019" href="http://mapy.utp.edu.pl/images/stairs_white.svg" /> 
    <image x="258.94950015615245" y="374.94950015615245" width="1.600999687695149" height="1.600999687695149" href="http://mapy.utp.edu.pl/images/lift_white.svg" /> 
    <image x="258.27798305115175" y="380.02798305115175" width="0.9440338976964631" height="0.9440338976964631" href="http://mapy.utp.edu.pl/images/toilet_white.svg" /> 
    <image x="307.69920031974425" y="373.19920031974425" width="2.0015993605114892" height="2.0015993605114892" href="http://mapy.utp.edu.pl/images/stairs_white.svg" /> 
    <image x="313.8190913781782" y="422.5190913781782" width="1.7618172436436006" height="1.7618172436436006" href="http://mapy.utp.edu.pl/images/stairs_white.svg" /> 
    <image x="310.7274716833669" y="386.4274716833669" width="1.5450566332662428" height="1.5450566332662428" href="http://mapy.utp.edu.pl/images/lift_white.svg" /> 
    <image x="265.86231025831415" y="359.4623102583142" width="2.0753794833716595" height="2.0753794833716595" href="http://mapy.utp.edu.pl/images/stairs_white.svg" /> 
    <text x="245.75" y="380.75" alignment-baseline="middle" text-anchor="middle" fill="white" font-weight="normal" font-size="1.0" font-family="Open Sans">
     B015
    </text> 
    <text x="256.7" y="368.64" alignment-baseline="middle" text-anchor="middle" fill="white" font-weight="normal" font-size="1.0" font-family="Open Sans">
     B017
    </text> 
    <text x="258.275" y="366.275" alignment-baseline="middle" text-anchor="middle" fill="white" font-weight="normal" font-size="1.0" font-family="Open Sans">
     B018
    </text> 
    <text x="261.3" y="362.4" alignment-baseline="middle" text-anchor="middle" fill="white" font-weight="normal" font-size="1.0" font-family="Open Sans">
     B019
    </text> 
    <text x="234.3" y="393.3" alignment-baseline="middle" text-anchor="middle" fill="white" font-weight="normal" font-size="1.0" font-family="Open Sans">
     B014
    </text> 
    <text x="242.5" y="393.75" alignment-baseline="middle" text-anchor="middle" fill="white" font-weight="normal" font-size="1.0" font-family="Open Sans">
     B011
    </text> 
    <text x="238.0" y="401.0" alignment-baseline="middle" text-anchor="middle" fill="white" font-weight="normal" font-size="0.8399999999999977" font-family="Open Sans">
     TRAFOB1
    </text> 
    <text x="241.25" y="401.25" alignment-baseline="middle" text-anchor="middle" fill="white" font-weight="normal" font-size="1.0" font-family="Open Sans">
     TRAFOB2
    </text> 
    <text x="239.75" y="398.0" alignment-baseline="middle" text-anchor="middle" fill="white" font-weight="normal" font-size="0.9399999999999977" font-family="Open Sans">
     B012
    </text> 
    <text x="265.4" y="371.6" alignment-baseline="middle" text-anchor="middle" fill="white" font-weight="normal" font-size="1.0" font-family="Open Sans">
     B03
    </text> 
    <text x="256.65" y="378.55" alignment-baseline="middle" text-anchor="middle" fill="white" font-weight="normal" font-size="0.5799999999999955" font-family="Open Sans">
     B08
    </text> 
    <text x="258.0" y="377.3" alignment-baseline="middle" text-anchor="middle" fill="white" font-weight="normal" font-size="0.5399999999999977" font-family="Open Sans">
     B04
    </text> 
    <text x="312.1" y="377.3" alignment-baseline="middle" text-anchor="middle" fill="white" font-weight="normal" font-size="1.0" font-family="Open Sans">
     A02
    </text> 
    <text x="316.1" y="416.7" alignment-baseline="middle" text-anchor="middle" fill="white" font-weight="normal" font-size="1.0" font-family="Open Sans">
     A014
    </text> 
    <text x="315.05" y="406.25" alignment-baseline="middle" text-anchor="middle" fill="white" font-weight="normal" font-size="1.0" font-family="Open Sans">
     A012
    </text> 
    <text x="304.4" y="391.9" alignment-baseline="middle" text-anchor="middle" fill="white" font-weight="normal" font-size="1.0" font-family="Open Sans">
     A018
    </text> 
    <text x="303.8" y="387.8" alignment-baseline="middle" text-anchor="middle" fill="white" font-weight="normal" font-size="0.6600000000000024" font-family="Open Sans">
     A019
    </text> 
    <text x="301.7" y="384.8" alignment-baseline="middle" text-anchor="middle" fill="white" font-weight="normal" font-size="0.8399999999999977" font-family="Open Sans">
     A020
    </text> 
    <text x="305.0" y="383.75" alignment-baseline="middle" text-anchor="middle" fill="white" font-weight="normal" font-size="0.6199999999999932" font-family="Open Sans">
     A021
    </text> 
    <text x="312.5" y="380.65" alignment-baseline="middle" text-anchor="middle" fill="white" font-weight="normal" font-size="0.7800000000000069" font-family="Open Sans">
     A03
    </text> 
    <text x="312.775" y="383.45" alignment-baseline="middle" text-anchor="middle" fill="white" font-weight="normal" font-size="0.6200000000000045" font-family="Open Sans">
     A04
    </text> 
    <text x="314.4" y="387.0" alignment-baseline="middle" text-anchor="middle" fill="white" font-weight="normal" font-size="1.0" font-family="Open Sans">
     A05
    </text> 
    <text x="311.75" y="389.45" alignment-baseline="middle" text-anchor="middle" fill="white" font-weight="normal" font-size="0.5" font-family="Open Sans">
     A07
    </text> 
    <text x="313.75" y="392.75" alignment-baseline="middle" text-anchor="middle" fill="white" font-weight="normal" font-size="0.9200000000000046" font-family="Open Sans">
     A09
    </text> 
    <text x="314.0" y="395.75" alignment-baseline="middle" text-anchor="middle" fill="white" font-weight="normal" font-size="0.7400000000000091" font-family="Open Sans">
     A010
    </text> 
    <text x="314.3" y="398.8" alignment-baseline="middle" text-anchor="middle" fill="white" font-weight="normal" font-size="0.7600000000000023" font-family="Open Sans">
     A011
    </text> 
    <text x="268.6" y="367.8" alignment-baseline="middle" text-anchor="middle" fill="white" font-weight="normal" font-size="1.0" font-family="Open Sans">
     B02
    </text> 
    <text x="251.25" y="387.5" alignment-baseline="middle" text-anchor="middle" fill="white" font-weight="normal" font-size="1.0" font-family="Open Sans">
     B010
    </text> 
    <text x="302.9714285714286" y="380.35714285714283" alignment-baseline="middle" text-anchor="middle" fill="white" font-weight="normal" font-size="1.0" font-family="Open Sans">
     A022
    </text> 
    <text x="306.25" y="407.25" alignment-baseline="middle" text-anchor="middle" fill="white" font-weight="normal" font-size="1.0" font-family="Open Sans">
     A016
    </text> 
    <path fill="#ababab" stroke="lightgray" stroke-width="0.25" fill-rule="evenodd" d="M 143.0,209.0 155.5,209.0 155.5,209.25 191.25,209.25 191.25,186.5 195.0,186.5 195.0,191.25 248.0,191.25 248.0,186.5 252.0,186.5 252.0,221.25 269.5,221.25 269.5,218.25 287.5,218.25 287.5,212.25 300.25,212.25 300.25,218.5 303.0,218.5 303.0,240.0 300.25,240.0 300.25,246.25 302.75,246.25 303.0,246.25 303.0,252.0 281.5,252.0 281.5,246.0 270.25,246.0 270.25,249.0 251.5,249.0 251.5,246.0 246.0,246.0 246.0,249.0 221.25,249.0 221.25,246.0 216.0,246.0 216.0,252.0 197.25,252.0 197.25,246.0 191.5,246.0 191.5,252.0 173.0,252.0 173.0,246.0 161.75,246.0 161.75,249.0 143.0,249.0 Z M 228.0,224.5 228.0,207.0 239.25,207.0 239.25,224.5 Z M 215.25,207.0 204.0,207.0 204.0,224.5 215.25,224.5 Z M 173.5,219.0 185.0,219.0 185.0,230.25 173.5,230.25 Z " /> 
    <path fill="#ababab" stroke="white" stroke-width="0" fill-rule="evenodd" d="M 143.0,216.0 147.75,216.0 147.75,217.75 146.25,217.75 146.25,218.5 146.25,218.75 143.0,218.75 Z " /> 
    <path fill="#ababab" stroke="white" stroke-width="0" fill-rule="evenodd" d="M 149.75,209.0 151.25,209.0 151.25,215.75 149.75,215.75 Z " /> 
    <path fill="#ababab" stroke="white" stroke-width="0" fill-rule="evenodd" d="M 159.75,215.75 159.75,217.75 161.5,217.75 161.5,215.75 Z " /> 
    <path fill="#ababab" stroke="white" stroke-width="0" fill-rule="evenodd" d="M 191.25,186.5 191.25,242.0 194.25,242.0 194.25,206.5 203.75,206.5 248.75,206.5 248.75,221.75 251.25,221.75 252.0,221.75 252.0,186.5 248.0,186.5 248.0,204.25 194.25,204.25 194.25,191.25 195.0,191.25 195.0,186.5 Z " /> 
    <path fill="#ababab" stroke="white" stroke-width="0" fill-rule="evenodd" d="M 236.75,224.25 239.5,224.25 239.5,231.25 240.25,231.25 240.25,233.0 239.5,233.0 239.5,236.75 237.0,236.75 236.75,236.75 Z " /> 
    <path fill="#ababab" stroke="white" stroke-width="0" fill-rule="evenodd" d="M 224.25,236.75 224.25,239.25 243.0,239.25 243.0,236.75 Z " /> 
    <path fill="#ababab" stroke="white" stroke-width="0" fill-rule="evenodd" d="M 252.0,188.5 248.0,188.5 248.0,190.25 252.0,190.25 Z " /> 
    <path fill="#ababab" stroke="white" stroke-width="0" fill-rule="evenodd" d="M 195.0,188.5 191.25,188.5 191.25,190.0 195.0,190.0 Z " /> 
    <path fill="#bfc2c7" stroke="white" stroke-width="0.1" fill-rule="evenodd" d="M 145.25,214.5 145.25,216.0 143.0,216.0 143.0,214.5 Z " /> 
    <path fill="#bfc2c7" stroke="white" stroke-width="0.1" fill-rule="evenodd" d="M 146.25,218.75 146.25,221.75 143.0,221.75 143.0,218.75 Z " /> 
    <path fill="#bfc2c7" stroke="white" stroke-width="0.1" fill-rule="evenodd" d="M 143.0,209.0 146.0,209.0 146.0,216.0 145.25,216.0 145.25,214.5 143.0,214.5 Z " /> 
    <path fill="#bfc2c7" stroke="white" stroke-width="0.1" fill-rule="evenodd" d="M 149.75,209.0 149.75,214.5 148.0,214.5 147.75,214.5 147.75,216.0 146.0,216.0 146.0,209.0 Z " /> 
    <path fill="#bfc2c7" stroke="white" stroke-width="0.1" fill-rule="evenodd" d="M 149.75,214.5 147.75,214.5 147.75,216.5 149.75,216.5 Z " /> 
    <path fill="#bfc2c7" stroke="white" stroke-width="0.1" fill-rule="evenodd" d="M 147.75,216.5 149.75,216.5 149.75,217.75 147.75,217.75 Z " /> 
    <path fill="#bfc2c7" stroke="white" stroke-width="0.1" fill-rule="evenodd" d="M 146.25,217.75 149.75,217.75 149.75,221.75 146.25,221.75 Z " /> 
    <path fill="#bfc2c7" stroke="white" stroke-width="0.1" fill-rule="evenodd" d="M 149.75,215.75 155.25,215.75 155.25,221.75 149.75,221.75 Z " /> 
    <path fill="#bfc2c7" stroke="white" stroke-width="0.1" fill-rule="evenodd" d="M 155.25,217.75 161.5,217.75 161.5,221.75 155.25,221.75 Z " /> 
    <path fill="#bfc2c7" stroke="white" stroke-width="0.1" fill-rule="evenodd" d="M 159.75,215.75 155.25,215.75 155.25,217.75 159.75,217.75 Z " /> 
    <path fill="#bfc2c7" stroke="white" stroke-width="0.1" fill-rule="evenodd" d="M 155.5,209.25 167.5,209.25 167.5,215.75 155.5,215.75 Z " /> 
    <path fill="#bfc2c7" stroke="white" stroke-width="0.1" fill-rule="evenodd" d="M 151.25,209.0 155.5,209.0 155.5,212.75 151.25,212.75 Z " /> 
    <path fill="#bfc2c7" stroke="white" stroke-width="0.1" fill-rule="evenodd" d="M 151.25,212.75 155.5,212.75 155.5,215.75 151.25,215.75 Z " /> 
    <path fill="#bfc2c7" stroke="white" stroke-width="0.1" fill-rule="evenodd" d="M 143.0,231.0 146.5,231.0 146.5,233.75 149.5,233.75 149.5,236.5 143.0,236.5 Z " /> 
    <path fill="#bfc2c7" stroke="white" stroke-width="0.1" fill-rule="evenodd" d="M 143.0,236.5 146.5,236.5 146.5,245.75 143.0,245.75 Z " /> 
    <path fill="#bfc2c7" stroke="white" stroke-width="0.1" fill-rule="evenodd" d="M 146.5,236.5 149.5,236.5 149.5,242.5 146.5,242.5 Z " /> 
    <path fill="#bfc2c7" stroke="white" stroke-width="0.1" fill-rule="evenodd" d="M 146.5,242.5 149.5,242.5 149.5,245.75 146.5,245.75 Z " /> 
    <path fill="#bfc2c7" stroke="white" stroke-width="0.1" fill-rule="evenodd" d="M 188.0,209.25 188.0,215.75 191.25,215.75 191.25,209.25 Z " /> 
    <path fill="#bfc2c7" stroke="white" stroke-width="0.1" fill-rule="evenodd" d="M 194.25,206.5 197.5,206.5 197.5,215.75 194.25,215.75 Z " /> 
    <path fill="#bfc2c7" stroke="white" stroke-width="0.1" fill-rule="evenodd" d="M 243.0,236.75 243.0,239.25 239.5,239.25 239.5,236.75 Z " /> 
    <path fill="#bfc2c7" stroke="white" stroke-width="0.1" fill-rule="evenodd" d="M 236.75,224.25 236.75,236.75 227.75,236.75 227.75,224.25 Z " /> 
    <path fill="#bfc2c7" stroke="white" stroke-width="0.1" fill-rule="evenodd" d="M 227.75,231.75 224.25,231.75 224.25,236.75 227.75,236.75 Z " /> 
    <path fill="#bfc2c7" stroke="white" stroke-width="0.1" fill-rule="evenodd" d="M 224.25,236.75 224.25,239.25 227.75,239.25 227.75,236.75 Z " /> 
    <path fill="#bfc2c7" stroke="white" stroke-width="0.1" fill-rule="evenodd" d="M 239.5,224.25 245.5,224.25 245.5,233.0 240.25,233.0 240.25,231.25 239.5,231.25 Z " /> 
    <path fill="#bfc2c7" stroke="white" stroke-width="0.1" fill-rule="evenodd" d="M 239.5,233.0 239.5,236.75 245.5,236.75 245.5,233.0 Z " /> 
    <path fill="#bfc2c7" stroke="white" stroke-width="0.1" fill-rule="evenodd" d="M 245.5,221.75 264.0,221.75 264.0,234.0 245.5,234.0 Z " /> 
    <path fill="#bfc2c7" stroke="white" stroke-width="0.1" fill-rule="evenodd" d="M 251.5,246.0 248.5,246.0 248.5,234.0 251.5,234.0 Z " /> 
    <path fill="#bfc2c7" stroke="white" stroke-width="0.1" fill-rule="evenodd" d="M 194.25,242.0 191.25,242.0 191.25,246.0 194.25,246.0 Z " /> 
    <path fill="#bfc2c7" stroke="white" stroke-width="0.1" fill-rule="evenodd" d="M 194.25,246.0 197.25,246.0 197.25,238.5 194.25,238.5 Z " /> 
    <path fill="#bfc2c7" stroke="white" stroke-width="0.1" fill-rule="evenodd" d="M 284.25,245.25 287.5,245.25 287.5,248.5 284.25,248.5 Z " /> 
    <path fill="#bfc2c7" stroke="white" stroke-width="0.1" fill-rule="evenodd" d="M 287.5,245.25 293.5,245.25 293.5,248.5 287.5,248.5 Z " /> 
    <path fill="#bfc2c7" stroke="white" stroke-width="0.1" fill-rule="evenodd" d="M 284.25,248.5 284.25,252.0 293.5,252.0 293.5,248.5 Z " /> 
    <path fill="#bfc2c7" stroke="white" stroke-width="0.1" fill-rule="evenodd" d="M 293.5,245.25 296.75,245.25 296.75,252.0 293.5,252.0 Z " /> 
    <path fill="#bfc2c7" stroke="white" stroke-width="0.1" fill-rule="evenodd" d="M 296.75,248.5 299.5,248.5 299.5,252.0 296.75,252.0 Z " /> 
    <path fill="#bfc2c7" stroke="white" stroke-width="0.1" fill-rule="evenodd" d="M 227.75,224.25 224.25,224.25 224.25,231.75 227.75,231.75 Z " /> 
    <image x="143.5" y="214.75" width="1.0" height="1.0" href="http://mapy.utp.edu.pl/images/lift_white.svg" /> 
    <image x="143.96897503240933" y="219.21897503240933" width="1.5620499351813308" height="1.5620499351813308" href="http://mapy.utp.edu.pl/images/stairs_white.svg" /> 
    <image x="148.30278640450004" y="216.80278640450004" width="0.894427190999916" height="0.894427190999916" href="http://mapy.utp.edu.pl/images/toilet_white.svg" /> 
    <image x="156.79999999999998" y="215.89999999999998" width="1.6" height="1.6" href="http://mapy.utp.edu.pl/images/stairs_white.svg" /> 
    <image x="240.38976747329573" y="237.13976747329573" width="1.7204650534085255" height="1.7204650534085255" href="http://mapy.utp.edu.pl/images/stairs_white.svg" /> 
    <image x="230.0297058982529" y="227.0297058982529" width="5.440588203494178" height="5.440588203494178" href="http://mapy.utp.edu.pl/images/cloakroom_white.svg" /> 
    <image x="225.13976747329573" y="237.13976747329573" width="1.7204650534085255" height="1.7204650534085255" href="http://mapy.utp.edu.pl/images/stairs_white.svg" /> 
    <image x="241.15463759529263" y="227.40463759529263" width="2.6907248094147422" height="2.6907248094147422" href="http://mapy.utp.edu.pl/images/photocopy_white.svg" /> 
    <image x="249.3" y="188.70000000000002" width="1.4000000000000001" height="1.4000000000000001" href="http://mapy.utp.edu.pl/images/small_stairs_white.svg" /> 
    <image x="192.5" y="188.70000000000002" width="1.2000000000000002" height="1.2000000000000002" href="http://mapy.utp.edu.pl/images/small_stairs_white.svg" /> 
    <image x="224.6" y="226.85" width="2.8000000000000003" height="2.8000000000000003" href="http://mapy.utp.edu.pl/images/restauracja_white.svg" /> 
    <text x="144.75" y="212.5" alignment-baseline="middle" text-anchor="middle" fill="white" font-weight="normal" font-size="0.6000000000000001" font-family="Open Sans">
     028
    </text> 
    <text x="148.0" y="212.25" alignment-baseline="middle" text-anchor="middle" fill="white" font-weight="normal" font-size="0.75" font-family="Open Sans">
     03
    </text> 
    <text x="148.75" y="215.5" alignment-baseline="middle" text-anchor="middle" fill="white" font-weight="normal" font-size="0.4" font-family="Open Sans">
     05
    </text> 
    <text x="148.0" y="220.0" alignment-baseline="middle" text-anchor="middle" fill="white" font-weight="normal" font-size="0.7000000000000001" font-family="Open Sans">
     029
    </text> 
    <text x="152.5" y="218.5" alignment-baseline="middle" text-anchor="middle" fill="white" font-weight="normal" font-size="1.0" font-family="Open Sans">
     07
    </text> 
    <text x="158.4" y="219.8" alignment-baseline="middle" text-anchor="middle" fill="white" font-weight="normal" font-size="0.8" font-family="Open Sans">
     08
    </text> 
    <text x="161.5" y="212.75" alignment-baseline="middle" text-anchor="middle" fill="white" font-weight="normal" font-size="1.0" font-family="Open Sans">
     010
    </text> 
    <text x="153.25" y="211.0" alignment-baseline="middle" text-anchor="middle" fill="white" font-weight="normal" font-size="0.75" font-family="Open Sans">
     01
    </text> 
    <text x="153.25" y="214.25" alignment-baseline="middle" text-anchor="middle" fill="white" font-weight="normal" font-size="0.6000000000000001" font-family="Open Sans">
     02
    </text> 
    <text x="146.25" y="235.25" alignment-baseline="middle" text-anchor="middle" fill="white" font-weight="normal" font-size="1.0" font-family="Open Sans">
     053
    </text> 
    <text x="144.75" y="241.25" alignment-baseline="middle" text-anchor="middle" fill="white" font-weight="normal" font-size="0.7000000000000001" font-family="Open Sans">
     014
    </text> 
    <text x="148.0" y="239.5" alignment-baseline="middle" text-anchor="middle" fill="white" font-weight="normal" font-size="0.6000000000000001" font-family="Open Sans">
     012
    </text> 
    <text x="148.0" y="244.25" alignment-baseline="middle" text-anchor="middle" fill="white" font-weight="normal" font-size="0.6000000000000001" font-family="Open Sans">
     011
    </text> 
    <text x="189.5" y="212.5" alignment-baseline="middle" text-anchor="middle" fill="white" font-weight="normal" font-size="0.65" font-family="Open Sans">
     023
    </text> 
    <text x="196.0" y="211.0" alignment-baseline="middle" text-anchor="middle" fill="white" font-weight="normal" font-size="0.65" font-family="Open Sans">
     024
    </text> 
    <text x="226.0" y="234.25" alignment-baseline="middle" text-anchor="middle" fill="white" font-weight="normal" font-size="0.7000000000000001" font-family="Open Sans">
     022
    </text> 
    <text x="242.5" y="234.75" alignment-baseline="middle" text-anchor="middle" fill="white" font-weight="normal" font-size="0.75" font-family="Open Sans">
     09
    </text> 
    <text x="254.0" y="227.8" alignment-baseline="middle" text-anchor="middle" fill="white" font-weight="normal" font-size="1.0" font-family="Open Sans">
     021
    </text> 
    <text x="250.0" y="240.0" alignment-baseline="middle" text-anchor="middle" fill="white" font-weight="normal" font-size="0.6000000000000001" font-family="Open Sans">
     027
    </text> 
    <text x="193.0" y="244.25" alignment-baseline="middle" text-anchor="middle" fill="white" font-weight="normal" font-size="0.6000000000000001" font-family="Open Sans">
     025
    </text> 
    <text x="195.75" y="242.25" alignment-baseline="middle" text-anchor="middle" fill="white" font-weight="normal" font-size="0.6000000000000001" font-family="Open Sans">
     026
    </text> 
    <text x="286.0" y="247.0" alignment-baseline="middle" text-anchor="middle" fill="white" font-weight="normal" font-size="0.65" font-family="Open Sans">
     016
    </text> 
    <text x="290.75" y="247.0" alignment-baseline="middle" text-anchor="middle" fill="white" font-weight="normal" font-size="0.65" font-family="Open Sans">
     017
    </text> 
    <text x="289.0" y="250.25" alignment-baseline="middle" text-anchor="middle" fill="white" font-weight="normal" font-size="0.7000000000000001" font-family="Open Sans">
     018
    </text> 
    <text x="295.0" y="248.75" alignment-baseline="middle" text-anchor="middle" fill="white" font-weight="normal" font-size="0.65" font-family="Open Sans">
     019
    </text> 
    <text x="298.0" y="250.25" alignment-baseline="middle" text-anchor="middle" fill="white" font-weight="normal" font-size="0.55" font-family="Open Sans">
     020
    </text> 
    <path fill="#ababab" stroke="lightgray" stroke-width="0.25" fill-rule="evenodd" d="M 4.75,231.25 65.0,231.25 65.0,237.25 98.25,237.25 98.25,245.75 114.25,245.75 114.25,219.25 117.25,219.25 117.25,199.5 65.75,199.5 65.75,190.5 4.75,190.5 Z M 14.75,207.25 14.75,217.5 31.75,217.5 31.75,207.25 Z M 41.75,207.25 41.75,217.75 58.75,217.75 58.75,207.25 Z M 72.25,213.25 72.25,224.0 89.0,224.0 89.0,213.25 Z " /> 
    <path fill="#ababab" stroke="white" stroke-width="0" fill-rule="evenodd" d="M 62.25,190.5 65.75,190.5 65.75,226.0 62.25,226.0 62.25,200.75 41.5,200.75 41.5,197.5 62.25,197.5 Z " /> 
    <path fill="#fec901" stroke="white" stroke-width="0.1" fill-rule="evenodd" d="M 59.5,190.5 62.25,190.5 62.25,197.5 59.5,197.5 Z " /> 
    <path fill="#fec901" stroke="white" stroke-width="0.1" fill-rule="evenodd" d="M 59.5,190.5 59.5,197.5 56.75,197.5 56.75,190.5 Z " /> 
    <path fill="#fec901" stroke="white" stroke-width="0.1" fill-rule="evenodd" d="M 56.75,190.5 41.5,190.5 41.5,197.5 56.75,197.5 Z " /> 
    <path fill="#fec901" stroke="white" stroke-width="0.1" fill-rule="evenodd" d="M 41.5,190.5 35.25,190.5 35.25,200.75 41.5,200.75 Z " /> 
    <path fill="#fec901" stroke="white" stroke-width="0.1" fill-rule="evenodd" d="M 62.25,226.0 65.75,226.0 65.75,231.25 62.25,231.25 Z " /> 
    <path fill="#fec901" stroke="white" stroke-width="0.1" fill-rule="evenodd" d="M 98.25,221.25 114.25,221.25 114.25,230.25 98.25,230.25 Z " /> 
    <path fill="#fec901" stroke="white" stroke-width="0.1" fill-rule="evenodd" d="M 103.25,209.25 103.25,221.25 101.25,221.25 101.25,209.25 Z " /> 
    <path fill="#fec901" stroke="white" stroke-width="0.1" fill-rule="evenodd" d="M 103.25,209.25 112.0,209.25 112.0,214.25 103.25,214.25 Z " /> 
    <path fill="#fec901" stroke="white" stroke-width="0.1" fill-rule="evenodd" d="M 112.0,209.25 114.25,209.25 114.25,221.25 112.0,221.25 Z " /> 
    <path fill="#fec901" stroke="white" stroke-width="0.1" fill-rule="evenodd" d="M 98.25,230.25 98.25,245.75 100.75,245.75 100.75,230.25 Z " /> 
    <path fill="#fec901" stroke="white" stroke-width="0.1" fill-rule="evenodd" d="M 114.25,230.25 114.25,245.75 100.75,245.75 100.75,239.5 111.75,239.5 111.75,230.25 Z " /> 
    <image x="59.9" y="192.15" width="2.2" height="2.2" href="http://mapy.utp.edu.pl/images/stairs_white.svg" /> 
    <text x="58.0" y="194.0" alignment-baseline="middle" text-anchor="middle" fill="white" font-weight="normal" font-size="0.55" font-family="Open Sans">
     172
    </text> 
    <text x="49.0" y="194.0" alignment-baseline="middle" text-anchor="middle" fill="white" font-weight="normal" font-size="1.0" font-family="Open Sans">
     173
    </text> 
    <text x="38.5" y="195.5" alignment-baseline="middle" text-anchor="middle" fill="white" font-weight="normal" font-size="1.0" font-family="Open Sans">
     175
    </text> 
    <text x="63.75" y="228.5" alignment-baseline="middle" text-anchor="middle" fill="white" font-weight="normal" font-size="0.7000000000000001" font-family="Open Sans">
     171
    </text> 
    <text x="106.25" y="225.75" alignment-baseline="middle" text-anchor="middle" fill="white" font-weight="normal" font-size="1.0" font-family="Open Sans">
     169
    </text> 
    <text x="102.25" y="215.25" alignment-baseline="middle" text-anchor="middle" fill="white" font-weight="normal" font-size="0.4" font-family="Open Sans">
     168A
    </text> 
    <text x="107.5" y="211.75" alignment-baseline="middle" text-anchor="middle" fill="white" font-weight="normal" font-size="1.0" font-family="Open Sans">
     168C
    </text> 
    <text x="113.0" y="215.25" alignment-baseline="middle" text-anchor="middle" fill="white" font-weight="normal" font-size="0.45" font-family="Open Sans">
     168B
    </text> 
    <text x="99.5" y="238.0" alignment-baseline="middle" text-anchor="middle" fill="white" font-weight="normal" font-size="0.5" font-family="Open Sans">
     170A
    </text> 
    <text x="108.0" y="242.0" alignment-baseline="middle" text-anchor="middle" fill="white" font-weight="normal" font-size="1.0" font-family="Open Sans">
     170B
    </text> 
    <path fill="#ababab" stroke="lightgray" stroke-width="0.25" fill-rule="evenodd" d="M 201.25,94.75 143.0,94.75 143.0,4.0 201.25,3.75 Z " /> 
    <path fill="#ababab" stroke="white" stroke-width="0" fill-rule="evenodd" d="M 191.5,90.0 191.5,70.5 196.5,70.5 196.5,73.25 195.5,73.25 195.5,76.5 194.5,76.5 194.5,90.0 Z " /> 
    <path fill="#ababab" stroke="white" stroke-width="0" fill-rule="evenodd" d="M 191.5,46.25 194.5,46.25 194.5,28.0 196.25,28.0 196.25,25.0 195.5,25.0 195.5,22.0 194.5,22.0 194.5,8.25 191.5,8.25 Z " /> 
    <path fill="#d4588c" stroke="white" stroke-width="0.1" fill-rule="evenodd" d="M 196.25,28.0 196.25,25.0 201.25,25.0 201.25,28.0 Z " /> 
    <path fill="#d4588c" stroke="white" stroke-width="0.1" fill-rule="evenodd" d="M 195.5,25.0 195.5,23.5 199.0,23.5 199.0,25.0 Z " /> 
    <path fill="#d4588c" stroke="white" stroke-width="0.1" fill-rule="evenodd" d="M 195.5,23.5 195.5,22.0 201.25,22.0 201.25,25.0 199.0,25.0 199.0,23.5 Z " /> 
    <path fill="#d4588c" stroke="white" stroke-width="0.1" fill-rule="evenodd" d="M 196.5,73.25 196.5,70.5 201.25,70.5 201.25,73.25 Z " /> 
    <path fill="#d4588c" stroke="white" stroke-width="0.1" fill-rule="evenodd" d="M 195.5,73.25 199.0,73.25 199.0,75.0 195.5,75.0 Z " /> 
    <path fill="#d4588c" stroke="white" stroke-width="0.1" fill-rule="evenodd" d="M 195.5,76.5 195.5,75.0 199.0,75.0 199.0,73.25 201.25,73.25 201.25,76.5 Z " /> 
    <path fill="#d4588c" stroke="white" stroke-width="0.1" fill-rule="evenodd" d="M 191.5,90.0 201.25,90.0 201.25,94.75 191.5,94.75 Z " /> 
    <path fill="#d4588c" stroke="white" stroke-width="0.1" fill-rule="evenodd" d="M 194.5,90.0 194.5,85.5 201.25,85.5 201.25,90.0 Z " /> 
    <path fill="#d4588c" stroke="white" stroke-width="0.1" fill-rule="evenodd" d="M 194.5,85.5 194.5,80.75 201.25,80.75 201.25,85.5 Z " /> 
    <path fill="#d4588c" stroke="white" stroke-width="0.1" fill-rule="evenodd" d="M 194.5,80.75 194.5,76.5 201.25,76.5 201.25,80.75 Z " /> 
    <path fill="#d4588c" stroke="white" stroke-width="0.1" fill-rule="evenodd" d="M 191.5,70.5 191.5,61.25 201.25,61.25 201.25,70.5 Z " /> 
    <path fill="#d4588c" stroke="white" stroke-width="0.1" fill-rule="evenodd" d="M 191.5,61.25 191.5,52.5 201.25,52.5 201.25,61.25 Z " /> 
    <path fill="#d4588c" stroke="white" stroke-width="0.1" fill-rule="evenodd" d="M 191.5,52.5 191.5,46.25 201.25,46.25 201.25,52.5 Z " /> 
    <path fill="#d4588c" stroke="white" stroke-width="0.1" fill-rule="evenodd" d="M 194.5,46.25 194.5,44.5 197.0,44.5 197.0,46.25 Z " /> 
    <path fill="#d4588c" stroke="white" stroke-width="0.1" fill-rule="evenodd" d="M 194.5,44.5 194.5,41.25 197.0,41.25 197.0,44.5 Z " /> 
    <path fill="#d4588c" stroke="white" stroke-width="0.1" fill-rule="evenodd" d="M 197.0,46.25 197.0,41.25 201.25,41.25 201.25,46.25 Z " /> 
    <path fill="#d4588c" stroke="white" stroke-width="0.1" fill-rule="evenodd" d="M 194.5,41.25 194.5,37.25 201.25,37.25 201.25,41.25 Z " /> 
    <path fill="#d4588c" stroke="white" stroke-width="0.1" fill-rule="evenodd" d="M 194.5,37.25 194.5,32.75 201.25,32.75 201.25,37.25 Z " /> 
    <path fill="#d4588c" stroke="white" stroke-width="0.1" fill-rule="evenodd" d="M 194.5,32.75 194.5,28.0 201.25,28.0 201.25,32.75 Z " /> 
    <path fill="#d4588c" stroke="white" stroke-width="0.1" fill-rule="evenodd" d="M 194.5,22.0 194.5,17.5 201.25,17.5 201.25,22.0 Z " /> 
    <path fill="#d4588c" stroke="white" stroke-width="0.1" fill-rule="evenodd" d="M 194.5,17.5 194.5,13.0 201.25,13.0 201.25,17.5 Z " /> 
    <path fill="#d4588c" stroke="white" stroke-width="0.1" fill-rule="evenodd" d="M 194.5,13.0 194.5,8.25 201.25,8.25 201.25,13.0 Z " /> 
    <path fill="#d4588c" stroke="white" stroke-width="0.1" fill-rule="evenodd" d="M 191.5,8.25 191.5,3.75 201.25,3.75 201.25,8.25 Z " /> 
    <image x="199.6" y="23.1" width="0.8" height="0.8" href="http://mapy.utp.edu.pl/images/stairs_white.svg" /> 
    <image x="199.45" y="74.7" width="0.6000000000000001" height="0.6000000000000001" href="http://mapy.utp.edu.pl/images/stairs_white.svg" /> 
    <text x="198.75" y="26.5" alignment-baseline="middle" text-anchor="middle" fill="white" font-weight="normal" font-size="0.6000000000000001" font-family="Open Sans">
     P-1G1
    </text> 
    <text x="197.25" y="24.25" alignment-baseline="middle" text-anchor="middle" fill="white" font-weight="normal" font-size="0.30000000000000004" font-family="Open Sans">
     P-1G2
    </text> 
    <text x="198.75" y="72.0" alignment-baseline="middle" text-anchor="middle" fill="white" font-weight="normal" font-size="0.55" font-family="Open Sans">
     P-1G3
    </text> 
    <text x="197.25" y="74.25" alignment-baseline="middle" text-anchor="middle" fill="white" font-weight="normal" font-size="0.35000000000000003" font-family="Open Sans">
     P-1G4
    </text> 
    <text x="196.25" y="92.25" alignment-baseline="middle" text-anchor="middle" fill="white" font-weight="normal" font-size="0.9500000000000001" font-family="Open Sans">
     001
    </text> 
    <text x="197.75" y="87.75" alignment-baseline="middle" text-anchor="middle" fill="white" font-weight="normal" font-size="0.9" font-family="Open Sans">
     002
    </text> 
    <text x="197.75" y="83.25" alignment-baseline="middle" text-anchor="middle" fill="white" font-weight="normal" font-size="0.9500000000000001" font-family="Open Sans">
     003
    </text> 
    <text x="197.75" y="78.5" alignment-baseline="middle" text-anchor="middle" fill="white" font-weight="normal" font-size="0.8500000000000001" font-family="Open Sans">
     004
    </text> 
    <text x="196.5" y="66.25" alignment-baseline="middle" text-anchor="middle" fill="white" font-weight="normal" font-size="1.0" font-family="Open Sans">
     P-1G5
    </text> 
    <text x="196.5" y="56.75" alignment-baseline="middle" text-anchor="middle" fill="white" font-weight="normal" font-size="1.0" font-family="Open Sans">
     005A
    </text> 
    <text x="196.5" y="49.25" alignment-baseline="middle" text-anchor="middle" fill="white" font-weight="normal" font-size="1.0" font-family="Open Sans">
     005
    </text> 
    <text x="195.75" y="45.25" alignment-baseline="middle" text-anchor="middle" fill="white" font-weight="normal" font-size="0.35000000000000003" font-family="Open Sans">
     006
    </text> 
    <text x="195.75" y="43.0" alignment-baseline="middle" text-anchor="middle" fill="white" font-weight="normal" font-size="0.5" font-family="Open Sans">
     006A
    </text> 
    <text x="198.75" y="44.0" alignment-baseline="middle" text-anchor="middle" fill="white" font-weight="normal" font-size="0.8500000000000001" font-family="Open Sans">
     006B
    </text> 
    <text x="197.75" y="39.5" alignment-baseline="middle" text-anchor="middle" fill="white" font-weight="normal" font-size="0.8" font-family="Open Sans">
     007
    </text> 
    <text x="197.75" y="34.75" alignment-baseline="middle" text-anchor="middle" fill="white" font-weight="normal" font-size="0.9" font-family="Open Sans">
     008
    </text> 
    <text x="197.75" y="30.5" alignment-baseline="middle" text-anchor="middle" fill="white" font-weight="normal" font-size="0.9500000000000001" font-family="Open Sans">
     009
    </text> 
    <text x="197.75" y="19.75" alignment-baseline="middle" text-anchor="middle" fill="white" font-weight="normal" font-size="0.9" font-family="Open Sans">
     010
    </text> 
    <text x="197.75" y="15.25" alignment-baseline="middle" text-anchor="middle" fill="white" font-weight="normal" font-size="0.9" font-family="Open Sans">
     011
    </text> 
    <text x="197.75" y="10.5" alignment-baseline="middle" text-anchor="middle" fill="white" font-weight="normal" font-size="0.9500000000000001" font-family="Open Sans">
     012
    </text> 
    <text x="197.75" y="6.0" alignment-baseline="middle" text-anchor="middle" fill="white" font-weight="normal" font-size="0.9" font-family="Open Sans">
     013
    </text> 
   </g> 
  </g> 
 </g> 
</svg>