<svg xmlns="http://www.w3.org/2000/svg" width="200.0" height="200.0"> 
 <style type="text/css"><![CDATA[@keyframes pulse2 {0% {stroke-width: 0.1} 50% {stroke-width: 1.0} 100% {stroke-width: 0.1}
@-moz-keyframes pulse2 {0% {stroke-width: 0.1} 50% {stroke-width: 1.0} 100% {stroke-width: 0.1}
]]></style> 
 <g transform="translate(100.0,100.0)"> 
  <g transform="matrix(0.707 0.409 -0.707 0.409 0 -0.816)"> 
   <g transform="translate(-100.0,-100.0)"> 
    <path fill="#ababab" stroke="lightgray" stroke-width="0.25" fill-rule="evenodd" d="M 122.0,161.25 136.75,161.25 136.75,166.75 155.25,166.75 155.25,161.25 170.0,161.25 170.0,179.0 160.25,179.0 160.25,179.25 155.25,179.25 155.25,178.5 146.25,178.5 136.75,178.5 136.75,179.25 131.75,179.25 131.75,179.0 122.0,179.0 Z " /> 
    <path fill="#ababab" stroke="white" stroke-width="0" fill-rule="evenodd" d="M 132.0,167.25 136.75,167.25 136.75,168.25 136.0,168.25 136.0,169.0 132.0,169.0 Z " /> 
    <path fill="#ababab" stroke="white" stroke-width="0" fill-rule="evenodd" d="M 155.25,167.25 155.25,168.25 155.75,168.25 155.75,169.0 159.75,169.0 159.75,167.25 Z " /> 
    <path fill="#ababab" stroke="white" stroke-width="0" fill-rule="evenodd" d="M 129.0,168.0 132.0,168.0 132.0,169.0 136.0,169.0 136.0,168.25 136.75,168.25 136.75,166.75 155.25,166.75 155.25,168.25 155.75,168.25 155.75,169.0 159.75,169.0 159.75,168.25 163.0,168.25 163.0,171.0 129.0,171.0 Z " /> 
    <path fill="#872163" stroke="white" stroke-width="0.1" fill-rule="evenodd" d="M 122.0,161.25 126.75,161.25 126.75,164.75 122.0,164.75 Z " /> 
    <path fill="#872163" stroke="white" stroke-width="0.1" fill-rule="evenodd" d="M 126.75,161.25 129.0,161.25 129.0,164.75 126.75,164.75 Z " /> 
    <path fill="#872163" stroke="white" stroke-width="0.1" fill-rule="evenodd" d="M 129.0,161.25 132.0,161.25 132.0,168.0 129.0,168.0 Z " /> 
    <path fill="#872163" stroke="white" stroke-width="0.1" fill-rule="evenodd" d="M 122.0,164.75 129.0,164.75 129.0,171.0 122.0,171.0 Z " /> 
    <path fill="#872163" stroke="white" stroke-width="0.1" fill-rule="evenodd" d="M 132.0,161.25 136.75,161.25 136.75,167.25 132.0,167.25 Z " /> 
    <path fill="#872163" stroke="white" stroke-width="0.1" fill-rule="evenodd" d="M 155.25,161.25 159.75,161.25 159.75,167.25 155.25,167.25 Z " /> 
    <path fill="#872163" stroke="white" stroke-width="0.1" fill-rule="evenodd" d="M 159.75,161.25 163.0,161.25 163.0,163.75 159.75,163.75 Z " /> 
    <path fill="#872163" stroke="white" stroke-width="0.1" fill-rule="evenodd" d="M 159.75,163.75 163.0,163.75 163.0,165.0 159.75,165.0 Z " /> 
    <path fill="#872163" stroke="white" stroke-width="0.1" fill-rule="evenodd" d="M 159.75,165.0 161.25,165.0 161.25,166.5 159.75,166.5 Z " /> 
    <path fill="#872163" stroke="white" stroke-width="0.1" fill-rule="evenodd" d="M 159.75,166.5 163.0,166.5 163.0,168.25 159.75,168.25 Z " /> 
    <path fill="#872163" stroke="white" stroke-width="0.1" fill-rule="evenodd" d="M 161.25,165.0 163.0,165.0 163.0,166.5 161.25,166.5 Z " /> 
    <path fill="#872163" stroke="white" stroke-width="0.1" fill-rule="evenodd" d="M 163.0,161.25 170.0,161.25 170.0,167.75 163.0,167.75 Z " /> 
    <path fill="#872163" stroke="white" stroke-width="0.1" fill-rule="evenodd" d="M 163.0,167.75 164.5,167.75 164.5,171.0 163.0,171.0 Z " /> 
    <path fill="#872163" stroke="white" stroke-width="0.1" fill-rule="evenodd" d="M 164.5,167.75 167.0,167.75 167.0,169.75 164.5,169.75 Z " /> 
    <path fill="#872163" stroke="white" stroke-width="0.1" fill-rule="evenodd" d="M 167.0,167.75 170.0,167.75 170.0,171.0 167.0,171.0 Z " /> 
    <path fill="#872163" stroke="white" stroke-width="0.1" fill-rule="evenodd" d="M 164.5,169.75 167.0,169.75 167.0,175.25 165.75,175.25 165.75,171.0 164.5,171.0 Z " /> 
    <path fill="#872163" stroke="white" stroke-width="0.1" fill-rule="evenodd" d="M 167.0,171.0 170.0,171.0 170.0,175.25 167.0,175.25 Z " /> 
    <path fill="#872163" stroke="white" stroke-width="0.1" fill-rule="evenodd" d="M 165.75,175.25 170.0,175.25 170.0,179.0 165.75,179.0 Z " /> 
    <path fill="#872163" stroke="white" stroke-width="0.1" fill-rule="evenodd" d="M 163.0,171.0 165.75,171.0 165.75,179.0 163.0,179.0 Z " /> 
    <path fill="#872163" stroke="white" stroke-width="0.1" fill-rule="evenodd" d="M 163.0,171.0 159.5,171.0 159.5,175.25 161.0,175.25 161.0,179.0 163.0,179.0 Z " /> 
    <path fill="#872163" stroke="white" stroke-width="0.1" fill-rule="evenodd" d="M 159.5,175.25 161.0,175.25 161.0,179.0 160.25,179.0 160.25,179.25 159.5,179.25 Z " /> 
    <path fill="#872163" stroke="white" stroke-width="0.1" fill-rule="evenodd" d="M 159.5,171.0 156.0,171.0 156.0,179.25 159.5,179.25 Z " /> 
    <path fill="#872163" stroke="white" stroke-width="0.1" fill-rule="evenodd" d="M 156.0,171.0 152.5,171.0 152.5,178.5 155.25,178.5 155.25,179.25 156.0,179.25 Z " /> 
    <path fill="#872163" stroke="white" stroke-width="0.1" fill-rule="evenodd" d="M 152.5,171.0 149.5,171.0 149.5,172.75 152.5,172.75 Z " /> 
    <path fill="#872163" stroke="white" stroke-width="0.1" fill-rule="evenodd" d="M 150.75,172.75 150.75,176.25 152.5,176.25 152.5,172.75 Z " /> 
    <path fill="#872163" stroke="white" stroke-width="0.1" fill-rule="evenodd" d="M 149.5,172.75 149.5,178.5 152.5,178.5 152.5,176.25 150.75,176.25 150.75,172.75 Z " /> 
    <path fill="#872163" stroke="white" stroke-width="0.1" fill-rule="evenodd" d="M 149.5,171.0 147.75,171.0 147.75,172.5 149.5,172.5 Z " /> 
    <path fill="#872163" stroke="white" stroke-width="0.1" fill-rule="evenodd" d="M 147.75,171.0 146.0,171.0 146.0,178.5 149.5,178.5 149.5,172.5 147.75,172.5 Z " /> 
    <path fill="#872163" stroke="white" stroke-width="0.1" fill-rule="evenodd" d="M 146.0,171.0 142.5,171.0 142.5,178.5 146.0,178.5 Z " /> 
    <path fill="#872163" stroke="white" stroke-width="0.1" fill-rule="evenodd" d="M 142.5,171.0 138.0,171.0 138.0,172.5 142.5,172.5 Z " /> 
    <path fill="#872163" stroke="white" stroke-width="0.1" fill-rule="evenodd" d="M 140.25,172.5 142.5,172.5 142.5,178.5 140.25,178.5 Z " /> 
    <path fill="#872163" stroke="white" stroke-width="0.1" fill-rule="evenodd" d="M 138.0,171.0 136.0,171.0 136.0,179.25 136.75,179.25 136.75,178.5 140.25,178.5 140.25,172.5 138.0,172.5 Z " /> 
    <path fill="#872163" stroke="white" stroke-width="0.1" fill-rule="evenodd" d="M 136.0,171.0 132.5,171.0 132.5,179.25 136.0,179.25 Z " /> 
    <path fill="#872163" stroke="white" stroke-width="0.1" fill-rule="evenodd" d="M 122.0,171.0 132.5,171.0 132.5,179.25 131.75,179.25 131.75,179.0 122.0,179.0 Z " /> 
    <image x="132.57437732902426" y="162.77437732902425" width="2.8512453419514703" height="2.8512453419514703" href="http://mapy.utp.edu.pl/images/stairs_white.svg" /> 
    <image x="156.13986302012447" y="162.73986302012446" width="2.9202739597510323" height="2.9202739597510323" href="http://mapy.utp.edu.pl/images/stairs_white.svg" /> 
    <image x="160.01790053650916" y="165.31790053650914" width="0.7641989269817084" height="0.7641989269817084" href="http://mapy.utp.edu.pl/images/toilet_white.svg" /> 
    <text x="124.8" y="163.0" alignment-baseline="middle" text-anchor="middle" fill="white" font-weight="normal" font-size="0.7000000000000001" font-family="Open Sans">
     38B
    </text> 
    <text x="127.875" y="163.0" alignment-baseline="middle" text-anchor="middle" fill="white" font-weight="normal" font-size="0.45" font-family="Open Sans">
     38A
    </text> 
    <text x="130.5" y="164.625" alignment-baseline="middle" text-anchor="middle" fill="white" font-weight="normal" font-size="0.6000000000000001" font-family="Open Sans">
     39
    </text> 
    <text x="125.8" y="167.6" alignment-baseline="middle" text-anchor="middle" fill="white" font-weight="normal" font-size="1.0" font-family="Open Sans">
     38
    </text> 
    <text x="161.8" y="162.5" alignment-baseline="middle" text-anchor="middle" fill="white" font-weight="normal" font-size="0.5" font-family="Open Sans">
     43
    </text> 
    <text x="160.7" y="164.3" alignment-baseline="middle" text-anchor="middle" fill="white" font-weight="normal" font-size="0.25" font-family="Open Sans">
     42
    </text> 
    <text x="161.8" y="167.4" alignment-baseline="middle" text-anchor="middle" fill="white" font-weight="normal" font-size="0.35000000000000003" font-family="Open Sans">
     40
    </text> 
    <text x="161.8" y="165.8" alignment-baseline="middle" text-anchor="middle" fill="white" font-weight="normal" font-size="0.30000000000000004" font-family="Open Sans">
     41
    </text> 
    <text x="166.1" y="164.5" alignment-baseline="middle" text-anchor="middle" fill="white" font-weight="normal" font-size="1.0" font-family="Open Sans">
     31
    </text> 
    <text x="163.7" y="169.8" alignment-baseline="middle" text-anchor="middle" fill="white" font-weight="normal" font-size="0.30000000000000004" font-family="Open Sans">
     31A
    </text> 
    <text x="166.2" y="168.7" alignment-baseline="middle" text-anchor="middle" fill="white" font-weight="normal" font-size="0.4" font-family="Open Sans">
     31C
    </text> 
    <text x="168.3" y="169.1" alignment-baseline="middle" text-anchor="middle" fill="white" font-weight="normal" font-size="0.6000000000000001" font-family="Open Sans">
     31D
    </text> 
    <text x="166.3" y="172.0" alignment-baseline="middle" text-anchor="middle" fill="white" font-weight="normal" font-size="0.5" font-family="Open Sans">
     31B
    </text> 
    <text x="168.2" y="173.1" alignment-baseline="middle" text-anchor="middle" fill="white" font-weight="normal" font-size="0.6000000000000001" font-family="Open Sans">
     31E
    </text> 
    <text x="167.6" y="176.6" alignment-baseline="middle" text-anchor="middle" fill="white" font-weight="normal" font-size="0.75" font-family="Open Sans">
     31F
    </text> 
    <text x="164.375" y="175.0" alignment-baseline="middle" text-anchor="middle" fill="white" font-weight="normal" font-size="0.55" font-family="Open Sans">
     31G
    </text> 
    <text x="161.8" y="173.3" alignment-baseline="middle" text-anchor="middle" fill="white" font-weight="normal" font-size="0.7000000000000001" font-family="Open Sans">
     32
    </text> 
    <text x="159.9" y="176.8" alignment-baseline="middle" text-anchor="middle" fill="white" font-weight="normal" font-size="0.30000000000000004" font-family="Open Sans">
     32A
    </text> 
    <text x="157.8" y="174.6" alignment-baseline="middle" text-anchor="middle" fill="white" font-weight="normal" font-size="0.7000000000000001" font-family="Open Sans">
     33
    </text> 
    <text x="154.1" y="174.6" alignment-baseline="middle" text-anchor="middle" fill="white" font-weight="normal" font-size="0.7000000000000001" font-family="Open Sans">
     34B
    </text> 
    <text x="150.2" y="172.0" alignment-baseline="middle" text-anchor="middle" fill="white" font-weight="normal" font-size="0.35000000000000003" font-family="Open Sans">
     34F
    </text> 
    <text x="151.6" y="174.6" alignment-baseline="middle" text-anchor="middle" fill="white" font-weight="normal" font-size="0.35000000000000003" font-family="Open Sans">
     34D
    </text> 
    <text x="150.2" y="174.6" alignment-baseline="middle" text-anchor="middle" fill="white" font-weight="normal" font-size="0.6000000000000001" font-family="Open Sans">
     34C
    </text> 
    <text x="148.5" y="172.0" alignment-baseline="middle" text-anchor="middle" fill="white" font-weight="normal" font-size="0.30000000000000004" font-family="Open Sans">
     34E
    </text> 
    <text x="148.5" y="174.6" alignment-baseline="middle" text-anchor="middle" fill="white" font-weight="normal" font-size="0.7000000000000001" font-family="Open Sans">
     34A
    </text> 
    <text x="144.25" y="174.75" alignment-baseline="middle" text-anchor="middle" fill="white" font-weight="normal" font-size="0.7000000000000001" font-family="Open Sans">
     35C
    </text> 
    <text x="138.5" y="171.8" alignment-baseline="middle" text-anchor="middle" fill="white" font-weight="normal" font-size="0.30000000000000004" font-family="Open Sans">
     35D
    </text> 
    <text x="141.4" y="174.7" alignment-baseline="middle" text-anchor="middle" fill="white" font-weight="normal" font-size="0.45" font-family="Open Sans">
     35B
    </text> 
    <text x="138.6" y="174.7" alignment-baseline="middle" text-anchor="middle" fill="white" font-weight="normal" font-size="0.8500000000000001" font-family="Open Sans">
     35A
    </text> 
    <text x="134.0" y="174.7" alignment-baseline="middle" text-anchor="middle" fill="white" font-weight="normal" font-size="0.7000000000000001" font-family="Open Sans">
     36
    </text> 
    <text x="127.7" y="174.4" alignment-baseline="middle" text-anchor="middle" fill="white" font-weight="normal" font-size="1.0" font-family="Open Sans">
     37
    </text> 
    <path fill="#ababab" stroke="lightgray" stroke-width="0.25" fill-rule="evenodd" d="M 171.3,118.3 220.4,118.3 220.4,113.0 235.0,113.0 235.0,113.5 234.7,113.5 234.7,116.6 234.4,116.6 234.4,119.6 234.10000000000002,119.6 234.10000000000002,122.6 233.8,122.6 233.8,125.6 233.5,125.6 233.5,128.6 233.2,128.6 233.2,131.6 232.9,131.6 232.9,134.6 224.3,134.6 224.3,135.5 171.3,135.5 Z " /> 
    <path fill="#ababab" stroke="white" stroke-width="0" fill-rule="evenodd" d="M 176.3,125.3 176.3,128.6 210.1,128.6 210.1,125.3 189.3,125.3 189.3,123.3 185.7,123.3 185.7,125.3 Z " /> 
    <path fill="#ababab" stroke="white" stroke-width="0" fill-rule="evenodd" d="M 210.0,123.3 210.1,128.7 216.2,128.7 215.8,123.3 Z " /> 
    <path fill="#ababab" stroke="white" stroke-width="0" fill-rule="evenodd" d="M 222.9,123.3 223.2,128.7 219.1,128.7 218.8,123.3 Z " /> 
    <path fill="#bfc2c7" stroke="white" stroke-width="0.1" fill-rule="evenodd" d="M 171.3,118.3 176.2,118.3 176.3,125.3 171.3,125.3 Z " /> 
    <path fill="#bfc2c7" stroke="white" stroke-width="0.1" fill-rule="evenodd" d="M 171.3,125.3 176.3,125.3 176.3,128.6 171.3,128.6 Z " /> 
    <path fill="#bfc2c7" stroke="white" stroke-width="0.1" fill-rule="evenodd" d="M 171.3,128.6 171.3,135.5 175.1,135.5 175.1,128.6 Z " /> 
    <path fill="#bfc2c7" stroke="white" stroke-width="0.1" fill-rule="evenodd" d="M 175.1,128.6 178.5,128.6 178.5,135.5 175.1,135.5 Z " /> 
    <path fill="#bfc2c7" stroke="white" stroke-width="0.1" fill-rule="evenodd" d="M 178.5,128.6 189.0,128.6 189.0,135.5 178.5,135.5 Z " /> 
    <path fill="#bfc2c7" stroke="white" stroke-width="0.1" fill-rule="evenodd" d="M 189.0,132.0 192.7,132.0 192.7,135.3 192.8,135.5 189.0,135.5 Z " /> 
    <path fill="#bfc2c7" stroke="white" stroke-width="0.1" fill-rule="evenodd" d="M 189.0,128.6 196.0,128.6 196.0,135.5 192.8,135.5 192.7,135.3 192.7,132.0 189.0,132.0 Z " /> 
    <path fill="#bfc2c7" stroke="white" stroke-width="0.1" fill-rule="evenodd" d="M 176.3,123.0 178.7,123.0 178.7,122.4 180.5,122.4 180.5,125.3 176.3,125.3 Z " /> 
    <path fill="#bfc2c7" stroke="white" stroke-width="0.1" fill-rule="evenodd" d="M 176.2,118.3 176.3,123.0 178.7,123.0 178.7,118.3 Z " /> 
    <path fill="#bfc2c7" stroke="white" stroke-width="0.1" fill-rule="evenodd" d="M 178.7,118.3 181.9,118.3 181.9,122.4 180.5,122.4 178.7,122.4 Z " /> 
    <path fill="#bfc2c7" stroke="white" stroke-width="0.1" fill-rule="evenodd" d="M 181.9,118.3 185.7,118.3 185.7,125.3 180.5,125.3 180.5,122.4 181.9,122.4 Z " /> 
    <path fill="#bfc2c7" stroke="white" stroke-width="0.1" fill-rule="evenodd" d="M 185.7,118.3 189.3,118.3 189.3,120.4 185.7,120.4 Z " /> 
    <path fill="#bfc2c7" stroke="white" stroke-width="0.1" fill-rule="evenodd" d="M 185.7,120.4 189.3,120.4 189.3,123.3 185.7,123.3 Z " /> 
    <path fill="#bfc2c7" stroke="white" stroke-width="0.1" fill-rule="evenodd" d="M 189.3,118.3 192.7,118.3 192.6,125.3 189.3,125.3 Z " /> 
    <path fill="#bfc2c7" stroke="white" stroke-width="0.1" fill-rule="evenodd" d="M 192.7,118.3 196.2,118.3 196.2,125.3 192.6,125.3 Z " /> 
    <path fill="#bfc2c7" stroke="white" stroke-width="0.1" fill-rule="evenodd" d="M 196.2,118.3 199.7,118.3 199.7,125.3 196.2,125.3 Z " /> 
    <path fill="#bfc2c7" stroke="white" stroke-width="0.1" fill-rule="evenodd" d="M 199.7,118.3 202.9,118.3 202.9,122.8 206.5,122.8 206.5,125.3 199.7,125.3 Z " /> 
    <path fill="#bfc2c7" stroke="white" stroke-width="0.1" fill-rule="evenodd" d="M 202.9,118.3 202.9,122.8 206.5,122.8 206.5,118.3 Z " /> 
    <path fill="#bfc2c7" stroke="white" stroke-width="0.1" fill-rule="evenodd" d="M 206.5,118.3 210.0,118.3 210.0,125.3 206.5,125.3 Z " /> 
    <path fill="#bfc2c7" stroke="white" stroke-width="0.1" fill-rule="evenodd" d="M 210.0,118.3 217.2,118.3 217.2,122.3 210.0,122.3 Z " /> 
    <path fill="#bfc2c7" stroke="white" stroke-width="0.1" fill-rule="evenodd" d="M 217.2,118.3 220.5,118.3 220.6,123.3 217.2,123.3 Z " /> 
    <path fill="#bfc2c7" stroke="white" stroke-width="0.1" fill-rule="evenodd" d="M 210.0,122.3 217.2,122.3 217.2,123.3 210.0,123.3 Z " /> 
    <path fill="#bfc2c7" stroke="white" stroke-width="0.1" fill-rule="evenodd" d="M 220.6,123.3 223.4,123.3 223.0,118.5 220.5,118.5 Z " /> 
    <path fill="#bfc2c7" stroke="white" stroke-width="0.1" fill-rule="evenodd" d="M 220.4,113.0 220.4,118.3 220.5,118.3 220.5,118.5 223.0,118.5 222.5,113.0 Z " /> 
    <path fill="#bfc2c7" stroke="white" stroke-width="0.1" fill-rule="evenodd" d="M 222.5,113.0 235.0,113.0 235.0,113.5 234.7,113.5 234.7,116.6 234.4,116.6 234.4,119.6 234.10000000000002,119.6 234.10000000000002,122.6 233.8,122.6 233.8,125.6 233.2,125.6 233.2,125.7 223.6,125.7 223.0,125.7 222.9,123.3 223.4,123.3 Z " /> 
    <path fill="#bfc2c7" stroke="white" stroke-width="0.1" fill-rule="evenodd" d="M 223.0,125.7 233.2,125.7 233.2,125.6 233.5,125.6 233.5,128.6 233.2,128.6 233.2,131.6 232.9,131.6 232.9,134.6 224.3,134.6 223.8,134.6 223.6,128.7 223.2,128.7 Z " /> 
    <path fill="#bfc2c7" stroke="white" stroke-width="0.1" fill-rule="evenodd" d="M 223.2,128.7 223.6,128.7 223.8,134.6 224.3,134.6 224.3,135.5 210.1,135.5 210.1,128.7 Z " /> 
    <path fill="#bfc2c7" stroke="white" stroke-width="0.1" fill-rule="evenodd" d="M 196.0,128.6 203.0,128.6 203.0,135.5 196.0,135.5 Z " /> 
    <path fill="#bfc2c7" stroke="white" stroke-width="0.1" fill-rule="evenodd" d="M 203.0,128.6 206.4,128.6 206.4,135.5 203.0,135.5 Z " /> 
    <path fill="#bfc2c7" stroke="white" stroke-width="0.1" fill-rule="evenodd" d="M 206.4,128.6 210.1,128.6 210.1,135.5 206.4,135.5 Z " /> 
    <path fill="#bfc2c7" stroke="white" stroke-width="0.1" fill-rule="evenodd" d="M 215.8,123.3 218.8,123.3 219.1,128.7 216.2,128.7 Z " /> 
    <image x="186.5754460534939" y="120.9254460534939" width="1.8491078930121967" height="1.8491078930121967" href="http://mapy.utp.edu.pl/images/stairs_white.svg" /> 
    <image x="203.33999999999997" y="130.69" width="2.7200000000000046" height="2.7200000000000046" href="http://mapy.utp.edu.pl/images/toilet_white.svg" /> 
    <image x="206.77" y="130.57000000000002" width="2.959999999999991" height="2.959999999999991" href="http://mapy.utp.edu.pl/images/toilet_white.svg" /> 
    <image x="216.28063824575634" y="124.80563824575634" width="2.38872350848732" height="2.38872350848732" href="http://mapy.utp.edu.pl/images/stairs_white.svg" /> 
    <text x="173.775" y="121.8" alignment-baseline="middle" text-anchor="middle" fill="white" font-weight="normal" font-size="1.0" font-family="Open Sans">
     208
    </text> 
    <text x="173.8" y="126.95" alignment-baseline="middle" text-anchor="middle" fill="white" font-weight="normal" font-size="0.6599999999999995" font-family="Open Sans">
     206
    </text> 
    <text x="173.2" y="132.05" alignment-baseline="middle" text-anchor="middle" fill="white" font-weight="normal" font-size="0.7599999999999967" font-family="Open Sans">
     206A
    </text> 
    <text x="176.8" y="132.05" alignment-baseline="middle" text-anchor="middle" fill="white" font-weight="normal" font-size="0.6800000000000012" font-family="Open Sans">
     205
    </text> 
    <text x="183.75" y="132.05" alignment-baseline="middle" text-anchor="middle" fill="white" font-weight="normal" font-size="1.0" font-family="Open Sans">
     203
    </text> 
    <text x="191.24" y="134.06" alignment-baseline="middle" text-anchor="middle" fill="white" font-weight="normal" font-size="0.7000000000000001" font-family="Open Sans">
     202A
    </text> 
    <text x="192.6" y="132.5" alignment-baseline="middle" text-anchor="middle" fill="white" font-weight="normal" font-size="1.0" font-family="Open Sans">
     202
    </text> 
    <text x="178.5" y="123.56666666666666" alignment-baseline="middle" text-anchor="middle" fill="white" font-weight="normal" font-size="0.5799999999999983" font-family="Open Sans">
     208A
    </text> 
    <text x="177.475" y="120.65" alignment-baseline="middle" text-anchor="middle" fill="white" font-weight="normal" font-size="0.5" font-family="Open Sans">
     207
    </text> 
    <text x="180.34" y="120.76" alignment-baseline="middle" text-anchor="middle" fill="white" font-weight="normal" font-size="0.6400000000000035" font-family="Open Sans">
     209A
    </text> 
    <text x="182.7" y="122.0" alignment-baseline="middle" text-anchor="middle" fill="white" font-weight="normal" font-size="1.0" font-family="Open Sans">
     209
    </text> 
    <text x="187.5" y="119.35" alignment-baseline="middle" text-anchor="middle" fill="white" font-weight="normal" font-size="0.4200000000000017" font-family="Open Sans">
     P2KS1
    </text> 
    <text x="190.975" y="121.8" alignment-baseline="middle" text-anchor="middle" fill="white" font-weight="normal" font-size="0.6799999999999955" font-family="Open Sans">
     210
    </text> 
    <text x="194.425" y="121.8" alignment-baseline="middle" text-anchor="middle" fill="white" font-weight="normal" font-size="0.7199999999999989" font-family="Open Sans">
     211
    </text> 
    <text x="197.95" y="121.8" alignment-baseline="middle" text-anchor="middle" fill="white" font-weight="normal" font-size="0.7000000000000001" font-family="Open Sans">
     212
    </text> 
    <text x="203.03333333333333" y="122.13333333333334" alignment-baseline="middle" text-anchor="middle" fill="white" font-weight="normal" font-size="1.0" font-family="Open Sans">
     213
    </text> 
    <text x="204.7" y="120.55" alignment-baseline="middle" text-anchor="middle" fill="white" font-weight="normal" font-size="0.7199999999999989" font-family="Open Sans">
     213A
    </text> 
    <text x="208.25" y="121.8" alignment-baseline="middle" text-anchor="middle" fill="white" font-weight="normal" font-size="0.7000000000000001" font-family="Open Sans">
     214A
    </text> 
    <text x="213.6" y="120.3" alignment-baseline="middle" text-anchor="middle" fill="white" font-weight="normal" font-size="0.8" font-family="Open Sans">
     214B
    </text> 
    <text x="218.875" y="120.8" alignment-baseline="middle" text-anchor="middle" fill="white" font-weight="normal" font-size="0.6800000000000012" font-family="Open Sans">
     214C
    </text> 
    <text x="213.6" y="122.8" alignment-baseline="middle" text-anchor="middle" fill="white" font-weight="normal" font-size="0.2" font-family="Open Sans">
     214
    </text> 
    <text x="221.875" y="120.9" alignment-baseline="middle" text-anchor="middle" fill="white" font-weight="normal" font-size="0.5800000000000012" font-family="Open Sans">
     218A
    </text> 
    <text x="221.21666666666667" y="116.6" alignment-baseline="middle" text-anchor="middle" fill="white" font-weight="normal" font-size="0.5199999999999989" font-family="Open Sans">
     218B
    </text> 
    <text x="230.9294117647059" y="120.32352941176471" alignment-baseline="middle" text-anchor="middle" fill="white" font-weight="normal" font-size="1.0" font-family="Open Sans">
     216
    </text> 
    <text x="229.5" y="129.55384615384617" alignment-baseline="middle" text-anchor="middle" fill="white" font-weight="normal" font-size="1.0" font-family="Open Sans">
     215
    </text> 
    <text x="219.9142857142857" y="132.32857142857142" alignment-baseline="middle" text-anchor="middle" fill="white" font-weight="normal" font-size="1.0" font-family="Open Sans">
     217
    </text> 
    <text x="199.5" y="132.05" alignment-baseline="middle" text-anchor="middle" fill="white" font-weight="normal" font-size="1.0" font-family="Open Sans">
     201
    </text> 
   </g> 
  </g> 
 </g> 
</svg>