<svg xmlns="http://www.w3.org/2000/svg" width="170.0" height="170.0"> 
 <style type="text/css"><![CDATA[@keyframes pulse2 {0% {stroke-width: 0.1} 50% {stroke-width: 1.0} 100% {stroke-width: 0.1}
@-moz-keyframes pulse2 {0% {stroke-width: 0.1} 50% {stroke-width: 1.0} 100% {stroke-width: 0.1}
]]></style> 
 <g transform="translate(85.0,85.0)"> 
  <g transform="matrix(0.707 0.409 -0.707 0.409 0 -0.816)"> 
   <g transform="translate(-85.0,-85.0)"> 
    <path fill="#ababab" stroke="lightgray" stroke-width="0.25" fill-rule="evenodd" d="M 42.5,76.3 52.7,76.3 52.7,97.0 54.800000000000004,97.0 54.800000000000004,100.0 68.6,100.0 68.6,97.6 70.80000000000001,97.6 70.80000000000001,100.0 71.80000000000001,100.0 71.80000000000001,92.9 78.6,92.9 79.5,93.6 82.2,93.6 83.0,92.9 90.0,92.9 90.0,100.0 90.0,100.0 106.7,100.0 106.7,96.9 109.0,96.9 109.0,84.1 107.60000000000001,84.1 107.60000000000001,63.0 122.10000000000001,63.0 122.10000000000001,86.5 119.10000000000001,86.5 119.10000000000001,88.1 119.30000000000001,88.1 119.30000000000001,100.0 137.60000000000002,100.0 137.60000000000002,110.1 136.4,110.1 136.4,124.8 124.10000000000001,124.8 124.10000000000001,110.1 119.30000000000001,110.1 119.30000000000001,110.2 90.0,110.2 90.0,113.7 71.80000000000001,113.7 71.80000000000001,110.2 42.5,110.2 42.5,110.1 37.7,110.1 37.7,124.8 25.3,124.8 25.3,119.80000000000001 25.1,119.80000000000001 24.7,119.7 24.3,119.5 24.0,119.30000000000001 23.7,119.0 23.5,118.7 23.3,118.30000000000001 23.2,117.80000000000001 23.2,117.30000000000001 23.3,116.9 23.5,116.4 23.9,115.9 24.2,115.7 24.8,115.4 25.3,115.30000000000001 25.3,106.5 23.0,106.5 23.0,99.7 42.5,99.7 Z " /> 
    <path fill="#ababab" stroke="white" stroke-width="0" fill-rule="evenodd" d="M 129.3,120.5 131.0,120.5 131.0,114.0 129.3,114.0 Z " /> 
    <path fill="#ababab" stroke="white" stroke-width="0" fill-rule="evenodd" d="M 124.10000000000001,110.1 124.10000000000001,112.5 129.5,112.5 129.5,110.1 Z " /> 
    <path fill="#ababab" stroke="white" stroke-width="0" fill-rule="evenodd" d="M 124.10000000000001,110.1 126.2,110.1 126.2,100.0 124.2,100.0 124.2,103.2 124.10000000000001,103.2 Z " /> 
    <path fill="#ababab" stroke="white" stroke-width="0" fill-rule="evenodd" d="M 42.5,97.0 42.5,103.2 74.0,103.2 74.0,103.6 90.0,103.6 90.0,103.2 124.2,103.2 124.2,100.0 119.30000000000001,100.0 119.30000000000001,97.0 113.2,97.0 113.2,100.0 90.0,100.0 48.8,100.0 48.8,97.0 Z " /> 
    <path fill="#ababab" stroke="white" stroke-width="0" fill-rule="evenodd" d="M 42.5,85.5 46.1,85.5 46.1,97.0 42.5,97.0 Z " /> 
    <path fill="#ababab" stroke="white" stroke-width="0" fill-rule="evenodd" d="M 42.5,99.7 37.5,99.7 37.5,103.2 42.5,103.2 Z " /> 
    <path fill="#ababab" stroke="white" stroke-width="0" fill-rule="evenodd" d="M 37.5,103.2 40.2,103.2 40.2,110.1 37.7,110.1 37.7,108.0 37.5,108.0 Z " /> 
    <path fill="#ababab" stroke="white" stroke-width="0" fill-rule="evenodd" d="M 25.3,106.5 25.3,108.0 37.5,108.0 37.5,106.4 25.9,106.4 25.9,106.5 Z " /> 
    <path fill="#ababab" stroke="white" stroke-width="0" fill-rule="evenodd" d="M 28.700000000000003,111.5 30.200000000000003,111.5 30.200000000000003,108.0 32.1,108.0 32.1,119.0 30.0,119.0 30.0,113.80000000000001 28.700000000000003,113.80000000000001 Z " /> 
    <path fill="#ababab" stroke="white" stroke-width="0.1" fill-rule="evenodd" d="M 109.0,84.1 107.60000000000001,84.1 107.60000000000001,63.0 122.10000000000001,63.0 122.10000000000001,86.5 119.10000000000001,86.5 119.10000000000001,88.1 119.30000000000001,88.1 119.30000000000001,88.5 116.2,88.5 116.2,83.9 109.0,83.9 Z " /> 
    <path fill="#bfc2c7" stroke="white" stroke-width="0.1" fill-rule="evenodd" d="M 25.3,120.0 25.3,124.8 28.700000000000003,124.8 28.700000000000003,119.0 26.0,119.0 26.0,120.0 Z " /> 
    <path fill="#bfc2c7" stroke="white" stroke-width="0.1" fill-rule="evenodd" d="M 32.1,119.0 37.7,119.0 37.7,124.8 32.1,124.8 Z " /> 
    <path fill="#bfc2c7" stroke="white" stroke-width="0.1" fill-rule="evenodd" d="M 28.700000000000003,119.0 32.1,119.0 32.1,124.8 28.700000000000003,124.8 Z " /> 
    <path fill="#bfc2c7" stroke="white" stroke-width="0.1" fill-rule="evenodd" d="M 32.1,119.0 37.7,119.0 37.7,114.0 32.2,114.0 32.1,114.0 Z " /> 
    <path fill="#bfc2c7" stroke="white" stroke-width="0.1" fill-rule="evenodd" d="M 25.3,113.80000000000001 25.3,115.30000000000001 25.9,115.30000000000001 25.9,115.7 29.9,115.7 30.0,115.7 30.0,113.80000000000001 Z " /> 
    <path fill="#bfc2c7" stroke="white" stroke-width="0.1" fill-rule="evenodd" d="M 32.1,114.0 32.1,108.0 37.7,108.0 37.7,114.0 Z " /> 
    <path fill="#bfc2c7" stroke="white" stroke-width="0.1" fill-rule="evenodd" d="M 25.3,108.0 30.200000000000003,108.0 30.200000000000003,111.5 28.700000000000003,111.5 28.700000000000003,112.5 25.3,112.5 Z " /> 
    <path fill="#bfc2c7" stroke="white" stroke-width="0.1" fill-rule="evenodd" d="M 23.0,103.9 26.7,103.9 26.7,106.4 25.9,106.4 25.9,106.5 23.0,106.5 Z " /> 
    <path fill="#bfc2c7" stroke="white" stroke-width="0.1" fill-rule="evenodd" d="M 28.700000000000003,99.7 23.0,99.7 23.0,103.9 26.7,103.9 26.7,106.4 28.700000000000003,106.4 Z " /> 
    <path fill="#bfc2c7" stroke="white" stroke-width="0.1" fill-rule="evenodd" d="M 33.0,106.4 28.700000000000003,106.4 28.700000000000003,99.7 33.0,99.7 Z " /> 
    <path fill="#bfc2c7" stroke="white" stroke-width="0.1" fill-rule="evenodd" d="M 37.5,99.7 33.0,99.7 33.0,106.4 37.5,106.4 Z " /> 
    <path fill="#bfc2c7" stroke="white" stroke-width="0.1" fill-rule="evenodd" d="M 40.2,103.2 40.2,110.1 42.5,110.1 42.5,103.2 Z " /> 
    <path fill="#bfc2c7" stroke="white" stroke-width="0.1" fill-rule="evenodd" d="M 42.5,103.2 42.5,110.2 48.7,110.2 48.900000000000006,110.2 48.900000000000006,103.2 Z " /> 
    <path fill="#bfc2c7" stroke="white" stroke-width="0.1" fill-rule="evenodd" d="M 48.900000000000006,103.2 54.5,103.2 54.5,110.2 48.900000000000006,110.2 Z " /> 
    <path fill="#bfc2c7" stroke="white" stroke-width="0.1" fill-rule="evenodd" d="M 54.5,103.2 54.5,105.7 60.300000000000004,105.7 60.300000000000004,103.2 Z " /> 
    <path fill="#bfc2c7" stroke="white" stroke-width="0.1" fill-rule="evenodd" d="M 54.5,105.7 57.5,105.7 57.5,110.2 54.5,110.2 Z " /> 
    <path fill="#bfc2c7" stroke="white" stroke-width="0.1" fill-rule="evenodd" d="M 57.5,105.7 60.300000000000004,105.7 60.300000000000004,110.2 57.5,110.2 Z " /> 
    <path fill="#bfc2c7" stroke="white" stroke-width="0.1" fill-rule="evenodd" d="M 63.300000000000004,103.2 66.0,103.2 66.0,110.2 63.300000000000004,110.2 Z " /> 
    <path fill="#bfc2c7" stroke="white" stroke-width="0.1" fill-rule="evenodd" d="M 60.300000000000004,103.2 63.300000000000004,103.2 63.300000000000004,110.2 60.300000000000004,110.2 Z " /> 
    <path fill="#bfc2c7" stroke="white" stroke-width="0.1" fill-rule="evenodd" d="M 66.0,103.2 69.0,103.2 69.0,110.2 66.0,110.2 Z " /> 
    <path fill="#bfc2c7" stroke="white" stroke-width="0.1" fill-rule="evenodd" d="M 69.0,103.2 71.80000000000001,103.2 71.80000000000001,110.2 69.0,110.2 Z " /> 
    <path fill="#bfc2c7" stroke="white" stroke-width="0.1" fill-rule="evenodd" d="M 71.80000000000001,103.2 71.80000000000001,113.7 90.0,113.7 90.0,103.6 74.0,103.6 74.0,103.2 Z " /> 
    <path fill="#bfc2c7" stroke="white" stroke-width="0.1" fill-rule="evenodd" d="M 90.0,110.2 93.0,110.2 93.0,107.7 90.0,107.7 Z " /> 
    <path fill="#bfc2c7" stroke="white" stroke-width="0.1" fill-rule="evenodd" d="M 90.0,103.2 93.0,103.2 93.0,107.7 90.0,107.7 Z " /> 
    <path fill="#bfc2c7" stroke="white" stroke-width="0.1" fill-rule="evenodd" d="M 93.0,103.2 96.0,103.2 96.10000000000001,103.2 96.10000000000001,107.7 93.0,107.7 Z " /> 
    <path fill="#bfc2c7" stroke="white" stroke-width="0.1" fill-rule="evenodd" d="M 93.0,110.2 96.10000000000001,110.2 96.10000000000001,107.7 93.0,107.7 Z " /> 
    <path fill="#bfc2c7" stroke="white" stroke-width="0.1" fill-rule="evenodd" d="M 96.10000000000001,103.2 107.30000000000001,103.2 107.30000000000001,110.2 96.10000000000001,110.2 Z " /> 
    <path fill="#bfc2c7" stroke="white" stroke-width="0.1" fill-rule="evenodd" d="M 107.30000000000001,103.2 107.30000000000001,110.2 119.30000000000001,110.2 119.30000000000001,103.2 Z " /> 
    <path fill="#bfc2c7" stroke="white" stroke-width="0.1" fill-rule="evenodd" d="M 119.30000000000001,110.1 121.5,110.1 121.5,105.0 121.0,105.0 121.0,103.2 119.30000000000001,103.2 Z " /> 
    <path fill="#bfc2c7" stroke="white" stroke-width="0.1" fill-rule="evenodd" d="M 121.5,110.1 124.10000000000001,110.1 124.10000000000001,103.2 121.0,103.2 121.0,105.0 121.5,105.0 Z " /> 
    <path fill="#bfc2c7" stroke="white" stroke-width="0.1" fill-rule="evenodd" d="M 126.2,110.1 136.4,110.1 137.60000000000002,110.1 137.60000000000002,105.80000000000001 137.60000000000002,105.7 134.7,105.7 134.7,100.0 126.2,100.0 Z " /> 
    <path fill="#bfc2c7" stroke="white" stroke-width="0.1" fill-rule="evenodd" d="M 134.7,105.7 137.60000000000002,105.7 137.60000000000002,100.0 134.7,100.0 Z " /> 
    <path fill="#bfc2c7" stroke="white" stroke-width="0.1" fill-rule="evenodd" d="M 124.10000000000001,120.30000000000001 124.10000000000001,124.8 129.3,124.8 129.3,120.30000000000001 Z " /> 
    <path fill="#bfc2c7" stroke="white" stroke-width="0.1" fill-rule="evenodd" d="M 124.10000000000001,114.0 124.10000000000001,120.2 124.10000000000001,120.30000000000001 129.3,120.30000000000001 129.3,114.0 Z " /> 
    <path fill="#bfc2c7" stroke="white" stroke-width="0.1" fill-rule="evenodd" d="M 129.3,124.8 136.4,124.8 136.4,121.0 131.0,121.0 131.0,120.5 129.3,120.5 Z " /> 
    <path fill="#bfc2c7" stroke="white" stroke-width="0.1" fill-rule="evenodd" d="M 131.0,121.0 136.4,121.0 136.4,118.5 131.0,118.5 Z " /> 
    <path fill="#bfc2c7" stroke="white" stroke-width="0.1" fill-rule="evenodd" d="M 131.0,118.5 136.4,118.5 136.4,114.0 131.0,114.0 Z " /> 
    <path fill="#bfc2c7" stroke="white" stroke-width="0.1" fill-rule="evenodd" d="M 52.7,85.5 52.7,76.3 42.5,76.3 42.5,85.5 Z " /> 
    <path fill="#bfc2c7" stroke="white" stroke-width="0.1" fill-rule="evenodd" d="M 52.7,97.0 52.7,91.5 46.1,91.5 46.1,97.0 Z " /> 
    <path fill="#bfc2c7" stroke="white" stroke-width="0.1" fill-rule="evenodd" d="M 52.7,91.5 52.7,88.7 46.1,88.7 46.1,91.5 Z " /> 
    <path fill="#bfc2c7" stroke="white" stroke-width="0.1" fill-rule="evenodd" d="M 52.7,88.7 52.7,85.5 46.1,85.5 46.1,88.7 Z " /> 
    <path fill="#bfc2c7" stroke="white" stroke-width="0.1" fill-rule="evenodd" d="M 82.2,93.6 83.0,92.9 90.0,92.9 90.0,100.0 83.2,100.0 83.2,100.0 83.2,95.2 82.2,94.2 Z " /> 
    <path fill="#bfc2c7" stroke="white" stroke-width="0.1" fill-rule="evenodd" d="M 109.0,88.5 115.80000000000001,88.5 115.80000000000001,94.9 114.2,94.9 114.2,94.2 109.0,94.2 Z " /> 
    <path fill="#bfc2c7" stroke="white" stroke-width="0.1" fill-rule="evenodd" d="M 115.80000000000001,94.2 119.30000000000001,94.2 119.30000000000001,88.5 115.80000000000001,88.5 Z " /> 
    <path fill="#bfc2c7" stroke="white" stroke-width="0.1" fill-rule="evenodd" d="M 109.0,97.0 109.0,94.2 114.2,94.2 114.2,97.0 Z " /> 
    <path fill="#bfc2c7" stroke="white" stroke-width="0.1" fill-rule="evenodd" d="M 119.30000000000001,97.0 119.30000000000001,94.2 115.80000000000001,94.2 115.80000000000001,97.0 Z " /> 
    <path fill="#bfc2c7" stroke="white" stroke-width="0.1" fill-rule="evenodd" d="M 115.80000000000001,97.0 114.2,97.0 114.2,94.9 115.80000000000001,94.9 Z " /> 
    <path fill="#bfc2c7" stroke="white" stroke-width="0.1" fill-rule="evenodd" d="M 68.6,100.0 68.6,97.6 70.80000000000001,97.6 70.80000000000001,100.0 Z " /> 
    <path fill="#bfc2c7" stroke="white" stroke-width="0.1" fill-rule="evenodd" d="M 82.2,93.6 82.2,94.2 83.2,95.2 83.2,100.0 78.6,100.0 78.6,95.2 79.6,94.2 79.6,93.6 Z " /> 
    <path fill="#bfc2c7" stroke="white" stroke-width="0.1" fill-rule="evenodd" d="M 106.7,100.0 106.7,96.9 109.0,96.9 109.0,97.0 113.2,97.0 113.2,97.0 113.2,100.0 Z " /> 
    <path fill="#bfc2c7" stroke="white" stroke-width="0.1" fill-rule="evenodd" d="M 129.5,110.1 136.4,110.1 136.4,114.0 129.5,114.0 Z " /> 
    <path fill="#bfc2c7" stroke="white" stroke-width="0.1" fill-rule="evenodd" d="M 54.800000000000004,100.0 54.800000000000004,97.0 48.8,97.0 48.8,100.0 Z " /> 
    <path fill="#bfc2c7" stroke="white" stroke-width="0.1" fill-rule="evenodd" d="M 25.3,115.30000000000001 24.8,115.4 24.2,115.7 23.9,115.9 23.5,116.4 23.3,116.9 23.2,117.30000000000001 23.2,117.6 23.2,117.80000000000001 23.3,118.30000000000001 23.5,118.7 23.7,119.0 23.7,119.0 24.0,119.30000000000001 24.3,119.5 24.7,119.7 25.1,119.80000000000001 25.3,119.80000000000001 25.3,120.0 26.0,120.0 26.0,119.0 30.0,119.0 30.0,115.7 25.9,115.7 25.9,115.30000000000001 Z " /> 
    <path fill="#bfc2c7" stroke="white" stroke-width="0.1" fill-rule="evenodd" d="M 25.3,112.5 28.700000000000003,112.5 28.700000000000003,113.7 28.700000000000003,113.80000000000001 25.3,113.80000000000001 Z " /> 
    <path fill="#bfc2c7" stroke="white" stroke-width="0.1" fill-rule="evenodd" d="M 75.5,92.9 71.80000000000001,92.9 71.80000000000001,100.0 75.5,100.0 Z " /> 
    <path fill="#bfc2c7" stroke="white" stroke-width="0.1" fill-rule="evenodd" d="M 75.5,92.9 78.6,92.9 79.5,93.6 79.6,93.6 79.6,94.2 78.6,95.2 78.6,100.0 75.5,100.0 Z " /> 
    <path fill="#bfc2c7" stroke="white" stroke-width="0.1" fill-rule="evenodd" d="M 124.10000000000001,112.5 124.10000000000001,114.0 127.10000000000001,114.0 127.10000000000001,112.5 Z " /> 
    <path fill="#bfc2c7" stroke="white" stroke-width="0.1" fill-rule="evenodd" d="M 127.10000000000001,112.5 129.5,112.5 129.5,114.0 127.10000000000001,114.0 Z " /> 
    <path fill="#bfc2c7" stroke="white" stroke-width="0.1" fill-rule="evenodd" d="M 109.0,88.5 116.2,88.5 116.2,83.9 116.2,83.9 109.0,83.9 Z " /> 
    <image x="69.1271035399041" y="98.1271035399041" width="1.2457929201918045" height="1.2457929201918045" href="http://mapy.utp.edu.pl/images/lift_white.svg" /> 
    <image x="79.7971700036996" y="96.0471700036996" width="2.4056599926007833" height="2.4056599926007833" href="http://mapy.utp.edu.pl/images/stairs_white.svg" /> 
    <image x="109.57804555427072" y="97.82804555427072" width="1.8439088914585775" height="1.8439088914585775" href="http://mapy.utp.edu.pl/images/stairs_white.svg" /> 
    <image x="131.90865738903142" y="110.1" width="2.6826852219371604" height="2.6826852219371604" href="http://mapy.utp.edu.pl/images/stairs_white.svg" /> 
    <image x="50.55" y="97.55" width="2.4000000000000004" height="2.4000000000000004" href="http://mapy.utp.edu.pl/images/stairs_white.svg" /> 
    <image x="25.4" y="116.9" width="1.2000000000000002" height="1.2000000000000002" href="http://mapy.utp.edu.pl/images/stairs_white.svg" /> 
    <image x="26.987359775280947" y="112.73735977528095" width="1.0252804494381067" height="1.0252804494381067" href="http://mapy.utp.edu.pl/images/toilet_white.svg" /> 
    <image x="72.29070268337352" y="96.29070268337352" width="2.418594633252951" height="2.418594633252951" href="http://mapy.utp.edu.pl/images/toilet_white.svg" /> 
    <image x="75.87928594191025" y="96.37928594191025" width="2.2414281161794998" height="2.2414281161794998" href="http://mapy.utp.edu.pl/images/toilet_white.svg" /> 
    <image x="124.70081879129016" y="112.70081879129016" width="1.0983624174196727" height="1.0983624174196727" href="http://mapy.utp.edu.pl/images/toilet_white.svg" /> 
    <text x="27.25" y="122.0" alignment-baseline="middle" text-anchor="middle" fill="white" font-weight="normal" font-size="0.6800000000000005" font-family="Open Sans">
     117
    </text> 
    <text x="35.0" y="122.0" alignment-baseline="middle" text-anchor="middle" fill="white" font-weight="normal" font-size="1.0" font-family="Open Sans">
     116b
    </text> 
    <text x="31.0" y="122.0" alignment-baseline="middle" text-anchor="middle" fill="white" font-weight="normal" font-size="0.6799999999999997" font-family="Open Sans">
     116a
    </text> 
    <text x="34.75" y="116.5" alignment-baseline="middle" text-anchor="middle" fill="white" font-weight="normal" font-size="1.0" font-family="Open Sans">
     115
    </text> 
    <text x="28.0" y="114.75" alignment-baseline="middle" text-anchor="middle" fill="white" font-weight="normal" font-size="0.37999999999999834" font-family="Open Sans">
     118
    </text> 
    <text x="34.75" y="110.75" alignment-baseline="middle" text-anchor="middle" fill="white" font-weight="normal" font-size="1.0" font-family="Open Sans">
     114
    </text> 
    <text x="28.0" y="110.75" alignment-baseline="middle" text-anchor="middle" fill="white" font-weight="normal" font-size="0.9" font-family="Open Sans">
     120
    </text> 
    <text x="25.25" y="105.0" alignment-baseline="middle" text-anchor="middle" fill="white" font-weight="normal" font-size="0.5199999999999989" font-family="Open Sans">
     121b
    </text> 
    <text x="27.75" y="105.0" alignment-baseline="middle" text-anchor="middle" fill="white" font-weight="normal" font-size="1.0" font-family="Open Sans">
     121a
    </text> 
    <text x="31.0" y="103.25" alignment-baseline="middle" text-anchor="middle" fill="white" font-weight="normal" font-size="0.8599999999999994" font-family="Open Sans">
     123
    </text> 
    <text x="35.5" y="103.75" alignment-baseline="middle" text-anchor="middle" fill="white" font-weight="normal" font-size="0.9" font-family="Open Sans">
     124/125
    </text> 
    <text x="41.25" y="107.25" alignment-baseline="middle" text-anchor="middle" fill="white" font-weight="normal" font-size="0.45999999999999946" font-family="Open Sans">
     113
    </text> 
    <text x="46.0" y="106.25" alignment-baseline="middle" text-anchor="middle" fill="white" font-weight="normal" font-size="1.0" font-family="Open Sans">
     110
    </text> 
    <text x="51.75" y="106.25" alignment-baseline="middle" text-anchor="middle" fill="white" font-weight="normal" font-size="1.0" font-family="Open Sans">
     108
    </text> 
    <text x="56.25" y="104.5" alignment-baseline="middle" text-anchor="middle" fill="white" font-weight="normal" font-size="0.5" font-family="Open Sans">
     107a
    </text> 
    <text x="56.25" y="107.75" alignment-baseline="middle" text-anchor="middle" fill="white" font-weight="normal" font-size="0.6000000000000001" font-family="Open Sans">
     107b
    </text> 
    <text x="59.0" y="107.75" alignment-baseline="middle" text-anchor="middle" fill="white" font-weight="normal" font-size="0.5600000000000008" font-family="Open Sans">
     107c
    </text> 
    <text x="64.75" y="106.25" alignment-baseline="middle" text-anchor="middle" fill="white" font-weight="normal" font-size="0.5399999999999991" font-family="Open Sans">
     106a
    </text> 
    <text x="61.75" y="104.5" alignment-baseline="middle" text-anchor="middle" fill="white" font-weight="normal" font-size="0.6000000000000001" font-family="Open Sans">
     107d
    </text> 
    <text x="67.5" y="106.25" alignment-baseline="middle" text-anchor="middle" fill="white" font-weight="normal" font-size="0.6000000000000001" font-family="Open Sans">
     106b
    </text> 
    <text x="70.5" y="106.25" alignment-baseline="middle" text-anchor="middle" fill="white" font-weight="normal" font-size="0.5600000000000023" font-family="Open Sans">
     106c
    </text> 
    <text x="75.25" y="106.25" alignment-baseline="middle" text-anchor="middle" fill="white" font-weight="normal" font-size="1.0" font-family="Open Sans">
     163/164
    </text> 
    <text x="91.5" y="108.75" alignment-baseline="middle" text-anchor="middle" fill="white" font-weight="normal" font-size="0.5" font-family="Open Sans">
     162b
    </text> 
    <text x="91.5" y="105.75" alignment-baseline="middle" text-anchor="middle" fill="white" font-weight="normal" font-size="0.6000000000000001" font-family="Open Sans">
     162a
    </text> 
    <text x="94.5" y="105.75" alignment-baseline="middle" text-anchor="middle" fill="white" font-weight="normal" font-size="0.6200000000000018" font-family="Open Sans">
     161a
    </text> 
    <text x="94.5" y="108.75" alignment-baseline="middle" text-anchor="middle" fill="white" font-weight="normal" font-size="0.5" font-family="Open Sans">
     161b
    </text> 
    <text x="101.75" y="106.25" alignment-baseline="middle" text-anchor="middle" fill="white" font-weight="normal" font-size="1.0" font-family="Open Sans">
     160
    </text> 
    <text x="110.0" y="106.5" alignment-baseline="middle" text-anchor="middle" fill="white" font-weight="normal" font-size="1.0" font-family="Open Sans">
     155
    </text> 
    <text x="120.25" y="106.0" alignment-baseline="middle" text-anchor="middle" fill="white" font-weight="normal" font-size="0.4399999999999977" font-family="Open Sans">
     174
    </text> 
    <text x="122.0" y="106.0" alignment-baseline="middle" text-anchor="middle" fill="white" font-weight="normal" font-size="0.6200000000000018" font-family="Open Sans">
     175
    </text> 
    <text x="132.25" y="103.5" alignment-baseline="middle" text-anchor="middle" fill="white" font-weight="normal" font-size="1.0" font-family="Open Sans">
     176a
    </text> 
    <text x="136.0" y="103.5" alignment-baseline="middle" text-anchor="middle" fill="white" font-weight="normal" font-size="0.5800000000000068" font-family="Open Sans">
     176b
    </text> 
    <text x="127.0" y="122.25" alignment-baseline="middle" text-anchor="middle" fill="white" font-weight="normal" font-size="0.8999999999999972" font-family="Open Sans">
     149b
    </text> 
    <text x="127.0" y="116.5" alignment-baseline="middle" text-anchor="middle" fill="white" font-weight="normal" font-size="1.0" font-family="Open Sans">
     149a
    </text> 
    <text x="132.75" y="122.5" alignment-baseline="middle" text-anchor="middle" fill="white" font-weight="normal" font-size="0.8599999999999994" font-family="Open Sans">
     148
    </text> 
    <text x="133.75" y="119.75" alignment-baseline="middle" text-anchor="middle" fill="white" font-weight="normal" font-size="0.5" font-family="Open Sans">
     147
    </text> 
    <text x="133.75" y="116.5" alignment-baseline="middle" text-anchor="middle" fill="white" font-weight="normal" font-size="0.9" font-family="Open Sans">
     146
    </text> 
    <text x="44.25" y="81.25" alignment-baseline="middle" text-anchor="middle" fill="white" font-weight="normal" font-size="1.0" font-family="Open Sans">
     173
    </text> 
    <text x="49.75" y="94.5" alignment-baseline="middle" text-anchor="middle" fill="white" font-weight="normal" font-size="1.0" font-family="Open Sans">
     170
    </text> 
    <text x="49.5" y="90.0" alignment-baseline="middle" text-anchor="middle" fill="white" font-weight="normal" font-size="0.5599999999999995" font-family="Open Sans">
     171
    </text> 
    <text x="49.25" y="87.0" alignment-baseline="middle" text-anchor="middle" fill="white" font-weight="normal" font-size="0.6400000000000006" font-family="Open Sans">
     172
    </text> 
    <text x="86.5" y="97.25" alignment-baseline="middle" text-anchor="middle" fill="white" font-weight="normal" font-size="1.0" font-family="Open Sans">
     135
    </text> 
    <text x="114.75" y="91.5" alignment-baseline="middle" text-anchor="middle" fill="white" font-weight="normal" font-size="1.0" font-family="Open Sans">
     137a
    </text> 
    <text x="117.25" y="91.5" alignment-baseline="middle" text-anchor="middle" fill="white" font-weight="normal" font-size="0.7000000000000001" font-family="Open Sans">
     137d
    </text> 
    <text x="112.0" y="95.75" alignment-baseline="middle" text-anchor="middle" fill="white" font-weight="normal" font-size="0.5599999999999995" font-family="Open Sans">
     137e
    </text> 
    <text x="117.25" y="95.75" alignment-baseline="middle" text-anchor="middle" fill="white" font-weight="normal" font-size="0.5599999999999995" font-family="Open Sans">
     137c
    </text> 
    <text x="114.75" y="95.75" alignment-baseline="middle" text-anchor="middle" fill="white" font-weight="normal" font-size="0.3200000000000017" font-family="Open Sans">
     137b
    </text> 
    <text x="128.25" y="113.25" alignment-baseline="middle" text-anchor="middle" fill="white" font-weight="normal" font-size="0.30000000000000004" font-family="Open Sans">
     177
    </text> 
    <text x="112.875" y="86.25" alignment-baseline="middle" text-anchor="middle" fill="white" font-weight="normal" font-size="0.9199999999999989" font-family="Open Sans">
     126
    </text> 
   </g> 
  </g> 
 </g> 
</svg>