<svg xmlns="http://www.w3.org/2000/svg" width="170.0" height="170.0"> 
 <style type="text/css"><![CDATA[@keyframes pulse2 {0% {stroke-width: 0.1} 50% {stroke-width: 1.0} 100% {stroke-width: 0.1}
@-moz-keyframes pulse2 {0% {stroke-width: 0.1} 50% {stroke-width: 1.0} 100% {stroke-width: 0.1}
]]></style> 
 <g transform="translate(85.0,85.0)"> 
  <g transform="matrix(0.707 0.409 -0.707 0.409 0 -0.816)"> 
   <g transform="translate(-85.0,-85.0)"> 
    <path fill="#ababab" stroke="lightgray" stroke-width="0.25" fill-rule="evenodd" d="M 71.80000000000001,113.80000000000001 78.4,113.80000000000001 78.4,114.1 83.4,114.1 83.4,113.7 90.10000000000001,113.7 90.10000000000001,110.2 124.0,110.2 124.0,124.8 136.5,124.8 136.5,113.80000000000001 136.4,113.80000000000001 136.4,110.2 137.60000000000002,110.2 137.60000000000002,100.0 119.30000000000001,100.0 119.30000000000001,88.1 119.10000000000001,88.1 119.10000000000001,86.5 122.10000000000001,86.5 122.10000000000001,63.0 107.60000000000001,63.0 107.60000000000001,84.1 108.9,84.1 108.9,96.9 107.30000000000001,96.9 106.60000000000001,94.1 90.10000000000001,94.1 90.10000000000001,92.5 84.10000000000001,92.5 84.10000000000001,92.30000000000001 77.7,92.30000000000001 77.7,92.5 71.7,92.5 71.7,94.1 55.300000000000004,94.1 54.5,96.7 52.800000000000004,96.7 52.800000000000004,75.9 42.5,75.9 42.5,99.7 23.0,99.7 23.0,108.30000000000001 25.3,108.30000000000001 25.3,115.30000000000001 24.8,115.4 24.3,115.6 23.9,115.9 23.8,116.0 23.5,116.4 23.3,116.80000000000001 23.2,117.2 23.2,117.9 23.3,118.30000000000001 23.5,118.7 23.7,119.0 24.0,119.30000000000001 24.3,119.5 24.7,119.7 25.1,119.80000000000001 25.3,119.80000000000001 25.3,124.8 37.7,124.8 37.7,110.1 42.5,110.1 42.5,110.2 71.80000000000001,110.2 Z " /> 
    <path fill="#ababab" stroke="white" stroke-width="0" fill-rule="evenodd" d="M 93.4,102.9 93.4,105.9 98.5,105.9 98.5,102.9 Z " /> 
    <path fill="#ababab" stroke="white" stroke-width="0" fill-rule="evenodd" d="M 98.5,102.9 100.4,102.9 100.4,106.30000000000001 98.5,106.30000000000001 Z " /> 
    <path fill="#ababab" stroke="white" stroke-width="0" fill-rule="evenodd" d="M 72.2,99.80000000000001 81.2,99.80000000000001 81.2,95.80000000000001 83.6,95.80000000000001 83.6,99.80000000000001 90.0,99.80000000000001 90.0,100.2 96.5,100.2 96.5,102.9 93.4,102.9 93.4,102.80000000000001 89.5,102.80000000000001 89.5,103.7 72.2,103.7 Z " /> 
    <path fill="#ababab" stroke="white" stroke-width="0" fill-rule="evenodd" d="M 96.5,100.2 99.60000000000001,100.2 99.60000000000001,101.6 96.5,101.6 Z " /> 
    <path fill="#ababab" stroke="white" stroke-width="0" fill-rule="evenodd" d="M 109.7,100.2 112.9,100.2 112.9,103.0 109.7,103.0 Z " /> 
    <path fill="#ababab" stroke="white" stroke-width="0" fill-rule="evenodd" d="M 112.9,100.2 113.10000000000001,100.2 113.10000000000001,100.6 115.9,100.6 115.9,101.30000000000001 119.2,101.30000000000001 119.2,103.4 113.2,103.4 113.2,103.0 112.9,103.0 Z " /> 
    <path fill="#ababab" stroke="white" stroke-width="0" fill-rule="evenodd" d="M 124.4,106.7 137.60000000000002,106.7 137.60000000000002,109.6 131.60000000000002,109.6 131.60000000000002,112.4 134.2,112.4 134.2,113.80000000000001 129.4,113.80000000000001 129.4,109.7 124.4,109.7 Z " /> 
    <path fill="#ababab" stroke="white" stroke-width="0" fill-rule="evenodd" d="M 72.2,100.1 51.1,100.1 51.1,98.6 50.5,98.6 49.1,99.4 49.1,102.80000000000001 63.900000000000006,102.80000000000001 63.900000000000006,103.1 72.2,103.1 Z " /> 
    <path fill="#ababab" stroke="white" stroke-width="0" fill-rule="evenodd" d="M 45.7,105.2 45.7,103.0 37.7,103.0 37.7,105.2 Z " /> 
    <path fill="#ababab" stroke="white" stroke-width="0" fill-rule="evenodd" d="M 37.7,105.2 37.5,105.2 37.5,107.9 27.8,107.9 27.8,106.30000000000001 33.4,106.30000000000001 37.7,103.2 Z " /> 
    <path fill="#ababab" stroke="white" stroke-width="0.1" fill-rule="evenodd" d="M 134.2,109.6 137.60000000000002,109.6 137.60000000000002,110.2 136.4,110.2 136.4,113.80000000000001 134.2,113.80000000000001 Z " /> 
    <path fill="#ababab" stroke="white" stroke-width="0.1" fill-rule="evenodd" d="M 108.9,88.4 108.9,84.1 107.60000000000001,84.1 107.60000000000001,63.0 122.10000000000001,63.0 122.10000000000001,86.5 119.10000000000001,86.5 119.10000000000001,88.1 119.30000000000001,88.1 119.30000000000001,88.4 Z " /> 
    <path fill="#ababab" stroke="white" stroke-width="0.1" fill-rule="evenodd" d="M 108.9,96.9 108.9,97.5 109.0,97.5 109.0,100.2 100.10000000000001,100.2 100.10000000000001,94.1 106.60000000000001,94.1 107.30000000000001,96.9 Z " /> 
    <path fill="#ababab" stroke="white" stroke-width="0.1" fill-rule="evenodd" d="M 52.800000000000004,96.7 54.5,96.7 55.300000000000004,94.1 71.7,94.1 71.7,94.2 72.2,94.2 72.2,100.1 52.9,100.1 52.9,97.2 52.800000000000004,97.2 Z " /> 
    <path fill="#ababab" stroke="white" stroke-width="0.1" fill-rule="evenodd" d="M 42.900000000000006,105.2 45.7,105.2 45.7,110.2 42.900000000000006,110.2 Z " /> 
    <path fill="#ababab" stroke="white" stroke-width="0.1" fill-rule="evenodd" d="M 79.0,108.80000000000001 82.9,108.80000000000001 82.9,113.7 83.4,113.7 83.4,114.1 78.4,114.1 78.4,113.80000000000001 79.0,113.80000000000001 Z " /> 
    <path fill="#ababab" stroke="white" stroke-width="0" fill-rule="evenodd" d="M 30.1,107.9 32.2,107.9 32.1,119.2 25.5,119.2 25.5,117.80000000000001 28.5,117.80000000000001 28.5,115.9 30.1,115.9 Z " /> 
    <path fill="#ababab" stroke="white" stroke-width="0.1" fill-rule="evenodd" d="M 26.0,115.9 25.3,115.30000000000001 24.8,115.4 24.3,115.6 23.9,115.9 23.8,116.0 23.5,116.4 23.3,116.80000000000001 23.2,117.2 23.2,117.6 23.2,117.80000000000001 23.2,117.9 23.3,118.30000000000001 23.5,118.7 23.7,119.0 23.9,119.2 24.0,119.30000000000001 24.3,119.5 24.5,119.6 24.7,119.7 25.1,119.80000000000001 25.2,119.80000000000001 25.3,119.80000000000001 26.0,119.2 25.5,119.2 25.5,115.9 Z " /> 
    <path fill="#ababab" stroke="white" stroke-width="0" fill-rule="evenodd" d="M 28.5,117.80000000000001 28.6,117.80000000000001 28.6,119.0 25.5,119.0 25.5,117.80000000000001 Z " /> 
    <path fill="#ababab" stroke="white" stroke-width="0" fill-rule="evenodd" d="M 78.80000000000001,109.1 77.4,109.1 77.4,111.80000000000001 78.80000000000001,111.80000000000001 Z " /> 
    <path fill="#ababab" stroke="white" stroke-width="0.1" fill-rule="evenodd" d="M 78.4,92.30000000000001 83.6,92.30000000000001 83.6,95.80000000000001 81.2,95.80000000000001 81.2,99.80000000000001 78.4,99.80000000000001 Z " /> 
    <path fill="#ababab" stroke="white" stroke-width="0" fill-rule="evenodd" d="M 81.2,99.80000000000001 83.6,99.80000000000001 83.6,95.80000000000001 81.2,95.80000000000001 Z " /> 
    <path fill="#ababab" stroke="white" stroke-width="0" fill-rule="evenodd" d="M 98.0,97.9 99.5,97.9 99.5,98.9 98.0,98.9 Z " /> 
    <path fill="#ababab" stroke="white" stroke-width="0" fill-rule="evenodd" d="M 115.5,103.80000000000001 117.4,103.80000000000001 117.4,104.7 115.5,104.7 Z " /> 
    <path fill="#ababab" stroke="white" stroke-width="0" fill-rule="evenodd" d="M 131.60000000000002,112.4 134.2,112.4 134.2,113.80000000000001 131.60000000000002,113.80000000000001 Z " /> 
    <path fill="#ababab" stroke="white" stroke-width="0" fill-rule="evenodd" d="M 128.3,113.7 129.4,113.7 129.4,112.0 128.3,112.0 Z " /> 
    <path fill="#ababab" stroke="white" stroke-width="0" fill-rule="evenodd" d="M 115.9,97.7 119.30000000000001,97.7 119.30000000000001,100.0 119.2,100.1 119.2,101.30000000000001 115.9,101.30000000000001 Z " /> 
    <path fill="#bfc2c7" stroke="white" stroke-width="0.1" fill-rule="evenodd" d="M 89.5,102.80000000000001 89.5,110.2 93.4,110.2 93.4,102.80000000000001 Z " /> 
    <path fill="#bfc2c7" stroke="white" stroke-width="0.1" fill-rule="evenodd" d="M 93.4,105.9 96.10000000000001,105.9 96.10000000000001,110.2 93.4,110.2 Z " /> 
    <path fill="#bfc2c7" stroke="white" stroke-width="0.1" fill-rule="evenodd" d="M 96.10000000000001,105.9 98.5,105.9 98.5,110.2 96.10000000000001,110.2 Z " /> 
    <path fill="#bfc2c7" stroke="white" stroke-width="0.1" fill-rule="evenodd" d="M 98.5,106.30000000000001 104.0,106.30000000000001 104.0,110.2 98.5,110.2 Z " /> 
    <path fill="#bfc2c7" stroke="white" stroke-width="0.1" fill-rule="evenodd" d="M 104.0,106.30000000000001 107.30000000000001,106.30000000000001 107.30000000000001,110.2 104.0,110.2 Z " /> 
    <path fill="#bfc2c7" stroke="white" stroke-width="0.1" fill-rule="evenodd" d="M 100.4,103.0 107.30000000000001,103.0 107.30000000000001,106.30000000000001 100.4,106.30000000000001 Z " /> 
    <path fill="#bfc2c7" stroke="white" stroke-width="0.1" fill-rule="evenodd" d="M 96.5,101.6 99.60000000000001,101.6 99.60000000000001,102.9 96.5,102.9 Z " /> 
    <path fill="#bfc2c7" stroke="white" stroke-width="0.1" fill-rule="evenodd" d="M 83.6,99.80000000000001 86.5,99.80000000000001 86.5,92.5 84.10000000000001,92.5 84.10000000000001,92.30000000000001 83.6,92.30000000000001 Z " /> 
    <path fill="#bfc2c7" stroke="white" stroke-width="0.1" fill-rule="evenodd" d="M 86.5,92.5 90.10000000000001,92.5 90.10000000000001,94.1 90.10000000000001,94.9 90.0,94.9 90.0,99.80000000000001 86.5,99.80000000000001 Z " /> 
    <path fill="#bfc2c7" stroke="white" stroke-width="0.1" fill-rule="evenodd" d="M 90.10000000000001,94.1 100.10000000000001,94.1 100.10000000000001,100.2 90.0,100.2 90.0,94.9 90.10000000000001,94.9 Z " /> 
    <path fill="#bfc2c7" stroke="white" stroke-width="0.1" fill-rule="evenodd" d="M 82.9,103.7 89.5,103.7 89.5,110.2 90.10000000000001,110.2 90.10000000000001,113.7 82.9,113.7 Z " /> 
    <path fill="#bfc2c7" stroke="white" stroke-width="0.1" fill-rule="evenodd" d="M 82.9,103.7 79.0,103.7 79.0,108.80000000000001 82.9,108.80000000000001 Z " /> 
    <path fill="#bfc2c7" stroke="white" stroke-width="0.1" fill-rule="evenodd" d="M 72.2,103.7 79.0,103.7 79.0,113.80000000000001 71.80000000000001,113.80000000000001 71.80000000000001,110.2 72.2,110.2 Z " /> 
    <path fill="#bfc2c7" stroke="white" stroke-width="0.1" fill-rule="evenodd" d="M 99.60000000000001,100.2 109.7,100.2 109.7,103.0 100.4,103.0 100.4,102.9 99.60000000000001,102.9 Z " /> 
    <path fill="#bfc2c7" stroke="white" stroke-width="0.1" fill-rule="evenodd" d="M 109.80000000000001,108.0 109.80000000000001,110.2 119.2,110.2 119.2,108.0 Z " /> 
    <path fill="#bfc2c7" stroke="white" stroke-width="0.1" fill-rule="evenodd" d="M 107.30000000000001,103.0 113.2,103.0 113.2,103.4 119.0,103.4 119.2,103.4 119.2,108.0 109.80000000000001,108.0 109.80000000000001,110.2 107.30000000000001,110.2 Z " /> 
    <path fill="#bfc2c7" stroke="white" stroke-width="0.1" fill-rule="evenodd" d="M 119.2,100.1 119.30000000000001,100.0 124.4,100.0 124.4,110.2 119.2,110.2 Z " /> 
    <path fill="#bfc2c7" stroke="white" stroke-width="0.1" fill-rule="evenodd" d="M 115.9,97.7 119.30000000000001,97.7 119.30000000000001,88.4 108.9,88.4 108.9,97.2 112.9,97.2 112.9,100.2 113.10000000000001,100.2 113.10000000000001,100.6 115.9,100.6 Z " /> 
    <path fill="#bfc2c7" stroke="white" stroke-width="0.1" fill-rule="evenodd" d="M 129.4,109.7 129.4,113.80000000000001 124.0,113.80000000000001 124.0,110.2 124.4,110.2 124.4,109.7 Z " /> 
    <path fill="#bfc2c7" stroke="white" stroke-width="0.1" fill-rule="evenodd" d="M 124.0,113.80000000000001 129.4,113.80000000000001 129.4,117.5 124.0,117.5 Z " /> 
    <path fill="#bfc2c7" stroke="white" stroke-width="0.1" fill-rule="evenodd" d="M 124.0,117.5 129.4,117.5 129.4,120.0 124.0,120.0 Z " /> 
    <path fill="#bfc2c7" stroke="white" stroke-width="0.1" fill-rule="evenodd" d="M 124.0,120.0 124.0,124.8 129.4,124.8 129.4,120.0 Z " /> 
    <path fill="#bfc2c7" stroke="white" stroke-width="0.1" fill-rule="evenodd" d="M 129.4,113.80000000000001 136.5,113.80000000000001 136.5,124.8 129.4,124.8 Z " /> 
    <path fill="#bfc2c7" stroke="white" stroke-width="0.1" fill-rule="evenodd" d="M 131.60000000000002,109.6 134.2,109.6 134.2,112.4 131.60000000000002,112.4 Z " /> 
    <path fill="#bfc2c7" stroke="white" stroke-width="0.1" fill-rule="evenodd" d="M 124.4,100.0 128.2,100.0 128.2,106.7 124.4,106.7 Z " /> 
    <path fill="#bfc2c7" stroke="white" stroke-width="0.1" fill-rule="evenodd" d="M 128.2,100.0 133.7,100.0 133.7,106.7 128.2,106.7 Z " /> 
    <path fill="#bfc2c7" stroke="white" stroke-width="0.1" fill-rule="evenodd" d="M 133.7,102.7 137.60000000000002,102.7 137.60000000000002,106.7 133.7,106.7 Z " /> 
    <path fill="#bfc2c7" stroke="white" stroke-width="0.1" fill-rule="evenodd" d="M 133.7,100.0 135.5,100.0 135.5,102.7 133.7,102.7 Z " /> 
    <path fill="#bfc2c7" stroke="white" stroke-width="0.1" fill-rule="evenodd" d="M 135.5,100.0 137.60000000000002,100.0 137.60000000000002,102.7 135.5,102.7 Z " /> 
    <path fill="#bfc2c7" stroke="white" stroke-width="0.1" fill-rule="evenodd" d="M 78.4,99.80000000000001 78.4,92.30000000000001 77.7,92.30000000000001 77.7,92.5 75.80000000000001,92.5 75.80000000000001,99.80000000000001 Z " /> 
    <path fill="#bfc2c7" stroke="white" stroke-width="0.1" fill-rule="evenodd" d="M 74.30000000000001,99.80000000000001 75.80000000000001,99.80000000000001 75.80000000000001,98.2 74.30000000000001,98.2 Z " /> 
    <path fill="#bfc2c7" stroke="white" stroke-width="0.1" fill-rule="evenodd" d="M 72.2,99.80000000000001 72.2,98.2 74.30000000000001,98.2 74.30000000000001,99.80000000000001 Z " /> 
    <path fill="#bfc2c7" stroke="white" stroke-width="0.1" fill-rule="evenodd" d="M 72.2,98.2 72.2,94.2 71.7,94.2 71.7,92.5 75.80000000000001,92.5 75.80000000000001,98.2 Z " /> 
    <path fill="#bfc2c7" stroke="white" stroke-width="0.1" fill-rule="evenodd" d="M 72.2,110.2 63.2,110.2 63.2,102.80000000000001 63.900000000000006,102.80000000000001 63.900000000000006,103.1 72.2,103.1 Z " /> 
    <path fill="#bfc2c7" stroke="white" stroke-width="0.1" fill-rule="evenodd" d="M 45.7,103.0 49.1,103.0 49.1,102.80000000000001 54.6,102.80000000000001 54.6,110.2 45.7,110.2 Z " /> 
    <path fill="#bfc2c7" stroke="white" stroke-width="0.1" fill-rule="evenodd" d="M 42.5,75.9 42.5,80.2 45.900000000000006,80.2 45.900000000000006,75.9 Z " /> 
    <path fill="#bfc2c7" stroke="white" stroke-width="0.1" fill-rule="evenodd" d="M 45.900000000000006,80.2 52.800000000000004,80.2 52.800000000000004,75.9 45.900000000000006,75.9 Z " /> 
    <path fill="#bfc2c7" stroke="white" stroke-width="0.1" fill-rule="evenodd" d="M 45.7,82.2 45.7,80.2 52.800000000000004,80.2 52.800000000000004,82.2 Z " /> 
    <path fill="#bfc2c7" stroke="white" stroke-width="0.1" fill-rule="evenodd" d="M 45.7,82.2 45.7,85.0 52.800000000000004,85.0 52.800000000000004,82.2 Z " /> 
    <path fill="#bfc2c7" stroke="white" stroke-width="0.1" fill-rule="evenodd" d="M 45.7,85.0 45.7,91.0 52.800000000000004,91.0 52.800000000000004,85.0 Z " /> 
    <path fill="#bfc2c7" stroke="white" stroke-width="0.1" fill-rule="evenodd" d="M 45.7,91.0 45.7,97.2 52.800000000000004,97.2 52.800000000000004,91.0 Z " /> 
    <path fill="#bfc2c7" stroke="white" stroke-width="0.1" fill-rule="evenodd" d="M 42.5,80.2 45.7,80.2 45.7,97.4 42.5,97.4 Z " /> 
    <path fill="#bfc2c7" stroke="white" stroke-width="0.1" fill-rule="evenodd" d="M 42.5,97.4 42.5,99.80000000000001 43.0,99.80000000000001 43.0,103.0 49.1,103.0 49.1,99.4 48.900000000000006,99.1 48.900000000000006,97.2 45.7,97.2 45.7,97.4 Z " /> 
    <path fill="#bfc2c7" stroke="white" stroke-width="0.1" fill-rule="evenodd" d="M 51.1,98.6 52.9,98.6 52.9,100.1 51.1,100.1 Z " /> 
    <path fill="#bfc2c7" stroke="white" stroke-width="0.1" fill-rule="evenodd" d="M 52.9,98.6 52.9,97.2 48.900000000000006,97.2 48.900000000000006,99.1 49.1,99.4 50.5,98.6 Z " /> 
    <path fill="#bfc2c7" stroke="white" stroke-width="0.1" fill-rule="evenodd" d="M 54.6,102.80000000000001 63.2,102.80000000000001 63.2,110.2 54.6,110.2 Z " /> 
    <path fill="#bfc2c7" stroke="white" stroke-width="0.1" fill-rule="evenodd" d="M 43.0,103.0 43.0,99.80000000000001 42.5,99.80000000000001 42.5,99.7 37.400000000000006,99.7 37.400000000000006,103.0 Z " /> 
    <path fill="#bfc2c7" stroke="white" stroke-width="0.1" fill-rule="evenodd" d="M 33.1,99.7 37.400000000000006,99.7 37.400000000000006,103.0 37.7,103.0 37.7,103.2 33.4,106.30000000000001 33.1,106.30000000000001 Z " /> 
    <path fill="#bfc2c7" stroke="white" stroke-width="0.1" fill-rule="evenodd" d="M 33.1,106.30000000000001 27.8,106.30000000000001 27.8,105.1 23.0,105.1 23.0,99.7 33.1,99.7 Z " /> 
    <path fill="#bfc2c7" stroke="white" stroke-width="0.1" fill-rule="evenodd" d="M 27.8,107.9 25.3,107.9 25.3,108.30000000000001 23.0,108.30000000000001 23.0,105.1 27.8,105.1 Z " /> 
    <path fill="#bfc2c7" stroke="white" stroke-width="0.1" fill-rule="evenodd" d="M 30.1,112.6 25.3,112.6 25.3,107.9 30.1,107.9 Z " /> 
    <path fill="#bfc2c7" stroke="white" stroke-width="0.1" fill-rule="evenodd" d="M 37.5,105.2 42.900000000000006,105.2 42.900000000000006,110.2 42.5,110.2 42.5,110.1 37.5,110.1 Z " /> 
    <path fill="#bfc2c7" stroke="white" stroke-width="0.1" fill-rule="evenodd" d="M 32.2,107.9 37.5,107.9 37.5,110.1 37.7,110.1 37.7,113.9 32.2,113.9 Z " /> 
    <path fill="#bfc2c7" stroke="white" stroke-width="0.1" fill-rule="evenodd" d="M 32.2,113.9 37.7,113.9 37.7,124.8 25.3,124.8 25.3,122.80000000000001 25.3,120.6 25.3,119.80000000000001 26.0,119.2 32.1,119.2 32.1,113.9 Z " /> 
    <path fill="#bfc2c7" stroke="white" stroke-width="0.1" fill-rule="evenodd" d="M 108.9,97.2 108.9,97.5 109.0,97.5 109.0,98.80000000000001 110.80000000000001,98.80000000000001 110.80000000000001,97.2 Z " /> 
    <path fill="#bfc2c7" stroke="white" stroke-width="0.1" fill-rule="evenodd" d="M 110.80000000000001,97.2 112.9,97.2 112.9,100.2 109.0,100.2 109.0,98.80000000000001 110.80000000000001,98.80000000000001 Z " /> 
    <path fill="#bfc2c7" stroke="white" stroke-width="0.1" fill-rule="evenodd" d="M 25.3,112.6 25.3,115.30000000000001 26.0,115.9 30.1,115.9 30.1,112.6 Z " /> 
    <path fill="#bfc2c7" stroke="white" stroke-width="0.1" fill-rule="evenodd" d="M 25.5,115.9 28.5,115.9 28.5,117.80000000000001 25.5,117.80000000000001 Z " /> 
    <image x="99.90151937351699" y="106.90151937351699" width="2.6969612529660068" height="2.6969612529660068" href="http://mapy.utp.edu.pl/images/photocopy_white.svg" /> 
    <image x="97.53" y="101.72999999999999" width="1.0400000000000091" height="1.0400000000000091" href="http://mapy.utp.edu.pl/images/toilet_white.svg" /> 
    <image x="49.418941092855064" y="97.91894109285506" width="0.662117814289872" height="0.662117814289872" href="http://mapy.utp.edu.pl/images/stairs_white.svg" /> 
    <image x="24.32917960675006" y="105.57917960675006" width="1.3416407864998785" height="1.3416407864998785" href="http://mapy.utp.edu.pl/images/toilet_white.svg" /> 
    <image x="109.8939101237047" y="99.1439101237047" width="0.7121797525905927" height="0.7121797525905927" href="http://mapy.utp.edu.pl/images/stairs_white.svg" /> 
    <image x="26.770000000000003" y="118.02000000000001" width="0.959999999999991" height="0.959999999999991" href="http://mapy.utp.edu.pl/images/small_stairs_white.svg" /> 
    <image x="77.44" y="109.94" width="1.1200000000000045" height="1.1200000000000045" href="http://mapy.utp.edu.pl/images/small_stairs_white.svg" /> 
    <image x="81.364110616386" y="96.864110616386" width="1.771778767227999" height="1.771778767227999" href="http://mapy.utp.edu.pl/images/small_stairs_white.svg" /> 
    <image x="98.3894448724536" y="98.0394448724536" width="0.7211102550927979" height="0.7211102550927979" href="http://mapy.utp.edu.pl/images/small_stairs_white.svg" /> 
    <image x="116.09" y="103.89" width="0.7199999999999932" height="0.7199999999999932" href="http://mapy.utp.edu.pl/images/small_stairs_white.svg" /> 
    <image x="132.46334368540005" y="112.46334368540006" width="1.073312629199889" height="1.073312629199889" href="http://mapy.utp.edu.pl/images/small_stairs_white.svg" /> 
    <image x="128.41713366045815" y="112.66713366045813" width="0.6657326790837266" height="0.6657326790837266" href="http://mapy.utp.edu.pl/images/small_stairs_white.svg" /> 
    <text x="91.5" y="106.5" alignment-baseline="middle" text-anchor="middle" fill="white" font-weight="normal" font-size="0.7800000000000011" font-family="Open Sans">
     017
    </text> 
    <text x="94.75" y="108.05000000000001" alignment-baseline="middle" text-anchor="middle" fill="white" font-weight="normal" font-size="0.5400000000000006" font-family="Open Sans">
     016
    </text> 
    <text x="97.25" y="108.0" alignment-baseline="middle" text-anchor="middle" fill="white" font-weight="normal" font-size="0.4799999999999983" font-family="Open Sans">
     015
    </text> 
    <text x="105.75" y="108.0" alignment-baseline="middle" text-anchor="middle" fill="white" font-weight="normal" font-size="0.6600000000000024" font-family="Open Sans">
     033
    </text> 
    <text x="104.0" y="104.5" alignment-baseline="middle" text-anchor="middle" fill="white" font-weight="normal" font-size="0.6600000000000024" font-family="Open Sans">
     013
    </text> 
    <text x="85.0" y="96.25" alignment-baseline="middle" text-anchor="middle" fill="white" font-weight="normal" font-size="0.5800000000000012" font-family="Open Sans">
     012a
    </text> 
    <text x="88.25" y="96.25" alignment-baseline="middle" text-anchor="middle" fill="white" font-weight="normal" font-size="0.7200000000000017" font-family="Open Sans">
     012b
    </text> 
    <text x="94.75" y="97.25" alignment-baseline="middle" text-anchor="middle" fill="white" font-weight="normal" font-size="1.0" font-family="Open Sans">
     020
    </text> 
    <text x="86.5" y="109.25" alignment-baseline="middle" text-anchor="middle" fill="white" font-weight="normal" font-size="1.0" font-family="Open Sans">
     029
    </text> 
    <text x="81.0" y="106.25" alignment-baseline="middle" text-anchor="middle" fill="white" font-weight="normal" font-size="0.7800000000000011" font-family="Open Sans">
     030
    </text> 
    <text x="75.0" y="108.5" alignment-baseline="middle" text-anchor="middle" fill="white" font-weight="normal" font-size="1.0" font-family="Open Sans">
     031
    </text> 
    <text x="104.5" y="101.5" alignment-baseline="middle" text-anchor="middle" fill="white" font-weight="normal" font-size="0.5599999999999995" font-family="Open Sans">
     034
    </text> 
    <text x="114.25" y="109.0" alignment-baseline="middle" text-anchor="middle" fill="white" font-weight="normal" font-size="0.4400000000000006" font-family="Open Sans">
     025b
    </text> 
    <text x="112.25" y="106.25" alignment-baseline="middle" text-anchor="middle" fill="white" font-weight="normal" font-size="1.0" font-family="Open Sans">
     025a
    </text> 
    <text x="121.75" y="105.0" alignment-baseline="middle" text-anchor="middle" fill="white" font-weight="normal" font-size="1.0" font-family="Open Sans">
     024
    </text> 
    <text x="114.0" y="93.25" alignment-baseline="middle" text-anchor="middle" fill="white" font-weight="normal" font-size="1.0" font-family="Open Sans">
     023
    </text> 
    <text x="126.5" y="111.5" alignment-baseline="middle" text-anchor="middle" fill="white" font-weight="normal" font-size="0.8200000000000017" font-family="Open Sans">
     02a
    </text> 
    <text x="126.5" y="115.75" alignment-baseline="middle" text-anchor="middle" fill="white" font-weight="normal" font-size="0.7399999999999978" font-family="Open Sans">
     02b
    </text> 
    <text x="126.75" y="118.75" alignment-baseline="middle" text-anchor="middle" fill="white" font-weight="normal" font-size="0.5" font-family="Open Sans">
     03a
    </text> 
    <text x="126.75" y="122.5" alignment-baseline="middle" text-anchor="middle" fill="white" font-weight="normal" font-size="0.9599999999999995" font-family="Open Sans">
     03b
    </text> 
    <text x="133.0" y="119.0" alignment-baseline="middle" text-anchor="middle" fill="white" font-weight="normal" font-size="1.0" font-family="Open Sans">
     01
    </text> 
    <text x="132.9" y="111.0" alignment-baseline="middle" text-anchor="middle" fill="white" font-weight="normal" font-size="0.5199999999999932" font-family="Open Sans">
     032
    </text> 
    <text x="126.25" y="103.5" alignment-baseline="middle" text-anchor="middle" fill="white" font-weight="normal" font-size="0.7599999999999967" font-family="Open Sans">
     04b
    </text> 
    <text x="131.0" y="103.5" alignment-baseline="middle" text-anchor="middle" fill="white" font-weight="normal" font-size="1.0" font-family="Open Sans">
     04a
    </text> 
    <text x="135.5" y="104.5" alignment-baseline="middle" text-anchor="middle" fill="white" font-weight="normal" font-size="0.7800000000000069" font-family="Open Sans">
     05a
    </text> 
    <text x="134.6" y="101.35" alignment-baseline="middle" text-anchor="middle" fill="white" font-weight="normal" font-size="0.3600000000000023" font-family="Open Sans">
     05b
    </text> 
    <text x="136.55" y="101.35" alignment-baseline="middle" text-anchor="middle" fill="white" font-weight="normal" font-size="0.4200000000000046" font-family="Open Sans">
     05c
    </text> 
    <text x="77.0" y="95.75" alignment-baseline="middle" text-anchor="middle" fill="white" font-weight="normal" font-size="0.5199999999999989" font-family="Open Sans">
     021b
    </text> 
    <text x="75.0" y="99.0" alignment-baseline="middle" text-anchor="middle" fill="white" font-weight="normal" font-size="0.30000000000000004" font-family="Open Sans">
     021d
    </text> 
    <text x="73.25" y="99.0" alignment-baseline="middle" text-anchor="middle" fill="white" font-weight="normal" font-size="0.3200000000000017" font-family="Open Sans">
     021c
    </text> 
    <text x="73.75" y="95.75" alignment-baseline="middle" text-anchor="middle" fill="white" font-weight="normal" font-size="0.8200000000000017" font-family="Open Sans">
     021a
    </text> 
    <text x="67.75" y="106.5" alignment-baseline="middle" text-anchor="middle" fill="white" font-weight="normal" font-size="1.0" font-family="Open Sans">
     0010
    </text> 
    <text x="50.25" y="106.75" alignment-baseline="middle" text-anchor="middle" fill="white" font-weight="normal" font-size="1.0" font-family="Open Sans">
     07
    </text> 
    <text x="44.25" y="78.0" alignment-baseline="middle" text-anchor="middle" fill="white" font-weight="normal" font-size="0.6800000000000012" font-family="Open Sans">
     001
    </text> 
    <text x="49.25" y="78.25" alignment-baseline="middle" text-anchor="middle" fill="white" font-weight="normal" font-size="0.8599999999999994" font-family="Open Sans">
     002
    </text> 
    <text x="49.25" y="81.25" alignment-baseline="middle" text-anchor="middle" fill="white" font-weight="normal" font-size="0.4" font-family="Open Sans">
     003b
    </text> 
    <text x="49.25" y="83.6" alignment-baseline="middle" text-anchor="middle" fill="white" font-weight="normal" font-size="0.5599999999999995" font-family="Open Sans">
     003a
    </text> 
    <text x="49.25" y="88.0" alignment-baseline="middle" text-anchor="middle" fill="white" font-weight="normal" font-size="1.0" font-family="Open Sans">
     005
    </text> 
    <text x="49.0" y="93.75" alignment-baseline="middle" text-anchor="middle" fill="white" font-weight="normal" font-size="1.0" font-family="Open Sans">
     006
    </text> 
    <text x="44.25" y="88.0" alignment-baseline="middle" text-anchor="middle" fill="white" font-weight="normal" font-size="0.6400000000000006" font-family="Open Sans">
     004
    </text> 
    <text x="46.0" y="100.0" alignment-baseline="middle" text-anchor="middle" fill="white" font-weight="normal" font-size="1.0" font-family="Open Sans">
     007
    </text> 
    <text x="52.0" y="99.25" alignment-baseline="middle" text-anchor="middle" fill="white" font-weight="normal" font-size="0.30000000000000004" font-family="Open Sans">
     027
    </text> 
    <text x="59.0" y="106.5" alignment-baseline="middle" text-anchor="middle" fill="white" font-weight="normal" font-size="1.0" font-family="Open Sans">
     008
    </text> 
    <text x="40.25" y="101.75" alignment-baseline="middle" text-anchor="middle" fill="white" font-weight="normal" font-size="0.6599999999999995" font-family="Open Sans">
     0008
    </text> 
    <text x="35.25" y="103.0" alignment-baseline="middle" text-anchor="middle" fill="white" font-weight="normal" font-size="0.9200000000000004" font-family="Open Sans">
     0006
    </text> 
    <text x="28.75" y="102.75" alignment-baseline="middle" text-anchor="middle" fill="white" font-weight="normal" font-size="1.0" font-family="Open Sans">
     0005
    </text> 
    <text x="27.700000000000003" y="110.25" alignment-baseline="middle" text-anchor="middle" fill="white" font-weight="normal" font-size="0.9399999999999977" font-family="Open Sans">
     0003
    </text> 
    <text x="40.25" y="107.5" alignment-baseline="middle" text-anchor="middle" fill="white" font-weight="normal" font-size="1.0" font-family="Open Sans">
     0007A
    </text> 
    <text x="34.75" y="111.0" alignment-baseline="middle" text-anchor="middle" fill="white" font-weight="normal" font-size="1.0" font-family="Open Sans">
     00010
    </text> 
    <text x="31.0" y="121.5" alignment-baseline="middle" text-anchor="middle" fill="white" font-weight="normal" font-size="1.0" font-family="Open Sans">
     00012
    </text> 
    <text x="110.0" y="98.0" alignment-baseline="middle" text-anchor="middle" fill="white" font-weight="normal" font-size="0.3200000000000017" font-family="Open Sans">
     026
    </text> 
    <text x="28.0" y="114.0" alignment-baseline="middle" text-anchor="middle" fill="white" font-weight="normal" font-size="0.6600000000000024" font-family="Open Sans">
     0002
    </text> 
    <text x="27.0" y="116.75" alignment-baseline="middle" text-anchor="middle" fill="white" font-weight="normal" font-size="0.38000000000000117" font-family="Open Sans">
     028
    </text> 
   </g> 
  </g> 
 </g> 
</svg>