<svg version="1.1" baseProfile="full" xmlns="http://www.w3.org/2000/svg" xmlns:xlink="http://www.w3.org/1999/xlink" height="1200" width="1200">
  <g>
  <polygon points="1160.5642023358423,312.37391496575003 1176.809712662085,352.7416940697891 1183.6074528591203,350.17883863611644 1179.5439239760617,341.4707422585649 1284.5323256521622,294.3437593200666 1289.2330140688018,304.2038311542434 1296.2354085614659,301.2668362477285 1277.0218497467479,259.12601014165705 " transform="matrix(0.707 0.409 -0.707 0.409 0 -0.816)" style="fill:#00d084;stroke:black;stroke-width:1"/>
  <polygon points="1158.7462586064207,557.7963184354318 1194.025553727627,637.8380349905652 1234.10019455371,620.2259802104396 1230.1709817431758,611.8443205350501 1241.054512123297,606.9028733590109 1251.515077822185,601.8244911333037 1257.0510326261337,613.5133567483587 1274.0887832990702,605.3412151740355 1293.051481592986,596.5425770369781 1287.4848473522507,585.4160430667413 1299.8746632756217,580.3066072737289 1305.400890453111,591.2168886245651 1342.1279182885655,575.192868869142 1336.5945824614787,563.5440361847592 1346.6636111953865,558.8328718685967 1350.5797291241486,568.8068691690875 1395.692906316587,548.2088072088969 1391.166005687527,539.2339493849737 1403.18523645726,533.5913648319853 1405.4270802161054,539.1626758140934 1443.9731742004337,522.2601765574378 1441.30743041115,516.2965803307903 1465.1543325362522,505.4755312440408 1469.0581038622008,513.7503741060806 1505.2387009887943,497.7293474686754 1469.9678240053627,422.5299311255527 1442.325838073526,434.88953528864806 1446.8308515425456,445.480020919205 1410.2795757269369,461.67633190690105 1412.4201212222965,467.0850792856378 1407.4811059569006,469.29296988932913 1380.922347352211,481.4635400728745 1353.4360969780832,423.7503741023553 1234.4313079922924,479.66776411360627 1250.7617479803132,515.2940735997123 1168.8259503149782,553.0398832404477 " transform="matrix(0.707 0.409 -0.707 0.409 0 -0.816)" style="fill:#0693e3;stroke:black;stroke-width:1"/>
  <polygon points="1275.9503142783255,497.28524390733367 1293.7324154456333,534.7395988882942 1315.6135887465234,525.444477669285 1295.8051481603884,485.85902420742934 " transform="matrix(0.707 0.409 -0.707 0.409 0 -0.816)" style="fill:#ffffff;stroke:black;stroke-width:1"/>
  <polygon points="1322.7574079628314,477.00314273624247 1338.8599970080206,512.6010176309807 1358.1824304106776,503.9149954797191 1341.9653546853615,468.52027832655733 " transform="matrix(0.707 0.409 -0.707 0.409 0 -0.816)" style="fill:#ffffff;stroke:black;stroke-width:1"/>
  <polygon points="1230.1017659395243,549.8293923617763 1239.0915893456863,572.3076922757042 1261.1463633649241,565.393594702096 1249.6662675857297,540.6180783913893 " transform="matrix(0.707 0.409 -0.707 0.409 0 -0.816)" style="fill:#ffffff;stroke:black;stroke-width:1"/>
  <polygon points="1317.0188566308973,585.3681532175702 1307.7042801567918,566.1523495664311 1319.7560610602002,560.0897934430701 1329.568991320597,580.7527686016125 " transform="matrix(0.707 0.409 -0.707 0.409 0 -0.816)" style="fill:#0693e3;stroke:black;stroke-width:1"/>
  <polygon points="1165.748045122431,309.99373312792306 1165.748045122431,309.99373312792306 1167.639928166429,314.2744032194329 1167.639928166429,314.2744032194329 1190.3258754870733,305.56682127653187 1190.3258754870733,305.56682127653187 1171.8381472625063,302.6172926922751 1177.540032925479,297.08058961419886 1163.9748578282083,295.0680933551354 " transform="matrix(0.707 0.409 -0.707 0.409 0 -0.816)" style="fill:#00d084;stroke:black;stroke-width:1"/>
  <polygon points="1167.6399223204996,314.27375432229167 1169.7917446135996,319.24854082180684 1175.2771905878565,316.75335786616927 1173.1521251134484,311.9045102180404 " transform="matrix(0.707 0.409 -0.707 0.409 0 -0.816)" style="fill:#00d084;stroke:black;stroke-width:1"/>
  <polygon points="1169.796935798366,319.22328640645867 1171.4189707429925,323.0733219490809 1177.0115609106047,320.53782547763115 1175.2980020958794,316.75911026573306 " transform="matrix(0.707 0.409 -0.707 0.409 0 -0.816)" style="fill:#00d084;stroke:black;stroke-width:1"/>
  <polygon points="1218.440586651891,615.0269380131227 1196.367853937144,570.1272073884917 1220.5237952720636,560.7018856288356 1237.6085004501467,595.8470517483962 " transform="matrix(0.707 0.409 -0.707 0.409 0 -0.816)" style="fill:#00d084;stroke:black;stroke-width:1"/>
  <polygon points="1172.4805447482886,588.9554025412959 1158.7276919347655,557.7983762038363 1189.6022897343048,543.5778958102179 1203.8910505843437,575.0164621093733 " transform="matrix(0.707 0.409 -0.707 0.409 0 -0.816)" style="fill:#abb8c3;stroke:black;stroke-width:1"/>
  <polygon points="1296.250000000647,481.5691409440202 1284.1739000310909,456.3094881431622 1317.613738402314,440.81936542815095 1329.1076773427462,466.79923672354346 " transform="matrix(0.707 0.409 -0.707 0.409 0 -0.816)" style="fill:#ABB8C3;stroke:black;stroke-width:1"/>
  <polygon points="1392.1819814437958,496.768183146925 1384.4382295731016,479.82003887495523 1410.0130948823708,468.3133791958404 1418.429736606402,485.7192831126464 " transform="matrix(0.707 0.409 -0.707 0.409 0 -0.816)" style="fill:#ABB8C3;stroke:black;stroke-width:1"/>
  <polygon points="1204.2083208632107,632.6683627342296 1193.6994911715062,609.1035617770118 1209.0721340927807,601.3977850669486 1218.7009877294124,626.4935647652907 " transform="matrix(0.707 0.409 -0.707 0.409 0 -0.816)" style="fill:#ABB8C3;stroke:black;stroke-width:1"/>
  <polygon points="1257.0227850954543,613.5352439073337 1243.5292577084501,584.3063453727824 1278.5939838383365,568.0462436073882 1293.1358500460526,596.5141424381596 " transform="matrix(0.707 0.409 -0.707 0.409 0 -0.816)" style="fill:#ABB8C3;stroke:black;stroke-width:1"/>
  </g>
</svg>
