<svg xmlns="http://www.w3.org/2000/svg" width="100.0" height="100.0"> 
 <style type="text/css"><![CDATA[@keyframes pulse2 {0% {stroke-width: 0.1} 50% {stroke-width: 1.0} 100% {stroke-width: 0.1}
@-moz-keyframes pulse2 {0% {stroke-width: 0.1} 50% {stroke-width: 1.0} 100% {stroke-width: 0.1}
]]></style> 
 <g transform="translate(50.0,50.0)"> 
  <g transform="matrix(0.707 0.409 -0.707 0.409 0 -0.816)"> 
   <g transform="translate(-50.0,-50.0)"> 
    <path fill="#ababab" stroke="lightgray" stroke-width="0.25" fill-rule="evenodd" d="M 33.9,28.9 44.400000000000006,28.9 44.400000000000006,36.2 88.9,36.2 88.9,35.0 93.0,35.0 93.0,49.1 33.9,49.1 Z " /> 
    <path fill="#ababab" stroke="white" stroke-width="0" fill-rule="evenodd" d="M 33.9,36.9 44.400000000000006,36.9 44.400000000000006,40.0 51.6,40.0 51.6,42.1 33.9,42.1 Z " /> 
    <path fill="#ababab" stroke="white" stroke-width="0" fill-rule="evenodd" d="M 51.6,40.0 88.9,40.0 88.9,42.1 51.6,42.1 Z " /> 
    <path fill="#bfc2c7" stroke="white" stroke-width="0.1" fill-rule="evenodd" d="M 38.3,31.9 38.3,34.0 36.1,34.0 36.1,31.9 Z " /> 
    <path fill="#bfc2c7" stroke="white" stroke-width="0.1" fill-rule="evenodd" d="M 88.9,43.900000000000006 93.0,43.900000000000006 93.0,49.1 88.9,49.1 Z " /> 
    <path fill="#bfc2c7" stroke="white" stroke-width="0.1" fill-rule="evenodd" d="M 88.9,43.900000000000006 90.7,43.900000000000006 90.7,41.8 88.9,41.8 Z " /> 
    <path fill="#bfc2c7" stroke="white" stroke-width="0.1" fill-rule="evenodd" d="M 90.7,43.900000000000006 93.0,43.900000000000006 93.0,41.8 90.7,41.8 Z " /> 
    <path fill="#bfc2c7" stroke="white" stroke-width="0.1" fill-rule="evenodd" d="M 88.9,41.8 93.0,41.8 93.0,35.0 88.9,35.0 Z " /> 
    <path fill="#bfc2c7" stroke="white" stroke-width="0.1" fill-rule="evenodd" d="M 82.9,40.0 77.5,40.0 77.5,36.2 82.9,36.2 Z " /> 
    <path fill="#bfc2c7" stroke="white" stroke-width="0.1" fill-rule="evenodd" d="M 77.5,40.0 69.6,40.0 69.6,36.2 77.5,36.2 Z " /> 
    <path fill="#bfc2c7" stroke="white" stroke-width="0.1" fill-rule="evenodd" d="M 69.6,40.0 67.0,40.0 67.0,36.2 69.6,36.2 Z " /> 
    <path fill="#bfc2c7" stroke="white" stroke-width="0.1" fill-rule="evenodd" d="M 67.0,40.0 59.6,40.0 59.6,36.2 67.0,36.2 Z " /> 
    <path fill="#bfc2c7" stroke="white" stroke-width="0.1" fill-rule="evenodd" d="M 59.6,40.0 57.0,40.0 57.0,36.2 59.6,36.2 Z " /> 
    <path fill="#bfc2c7" stroke="white" stroke-width="0.1" fill-rule="evenodd" d="M 57.0,40.0 55.4,40.0 55.4,36.2 57.0,36.2 Z " /> 
    <path fill="#bfc2c7" stroke="white" stroke-width="0.1" fill-rule="evenodd" d="M 55.4,40.0 49.5,40.0 49.5,36.2 55.4,36.2 Z " /> 
    <path fill="#bfc2c7" stroke="white" stroke-width="0.1" fill-rule="evenodd" d="M 49.5,40.0 44.400000000000006,40.0 44.400000000000006,36.2 49.5,36.2 Z " /> 
    <path fill="#bfc2c7" stroke="white" stroke-width="0.1" fill-rule="evenodd" d="M 39.8,36.9 44.400000000000006,36.9 44.400000000000006,28.9 39.8,28.9 Z " /> 
    <path fill="#bfc2c7" stroke="white" stroke-width="0.1" fill-rule="evenodd" d="M 88.9,49.1 88.9,42.1 84.2,42.1 84.2,49.1 Z " /> 
    <path fill="#bfc2c7" stroke="white" stroke-width="0.1" fill-rule="evenodd" d="M 84.2,42.1 74.4,42.1 74.4,49.1 84.2,49.1 Z " /> 
    <path fill="#bfc2c7" stroke="white" stroke-width="0.1" fill-rule="evenodd" d="M 74.4,42.1 64.6,42.1 64.6,49.1 74.4,49.1 Z " /> 
    <path fill="#bfc2c7" stroke="white" stroke-width="0.1" fill-rule="evenodd" d="M 64.6,42.1 59.7,42.1 59.7,49.1 64.6,49.1 Z " /> 
    <path fill="#bfc2c7" stroke="white" stroke-width="0.1" fill-rule="evenodd" d="M 59.7,42.1 54.9,42.1 54.9,49.1 59.7,49.1 Z " /> 
    <path fill="#bfc2c7" stroke="white" stroke-width="0.1" fill-rule="evenodd" d="M 54.9,42.1 45.0,42.1 45.0,49.1 54.9,49.1 Z " /> 
    <path fill="#bfc2c7" stroke="white" stroke-width="0.1" fill-rule="evenodd" d="M 45.0,42.1 33.9,42.1 33.9,49.1 45.0,49.1 Z " /> 
    <path fill="#bfc2c7" stroke="white" stroke-width="0.1" fill-rule="evenodd" d="M 82.9,40.0 88.9,40.0 88.9,36.2 82.9,36.2 Z " /> 
    <image x="36.63149318385793" y="32.23149318385792" width="1.1370136322841473" height="1.1370136322841473" href="http://mapy.utp.edu.pl/images/lift_white.svg" /> 
    <image x="36.548847176156016" y="34.548847176156016" width="1.302305647687975" height="1.302305647687975" href="http://mapy.utp.edu.pl/images/platform_white.svg" /> 
    <image x="90.17537887487647" y="40.47537887487646" width="1.6492422502470643" height="1.6492422502470643" href="http://mapy.utp.edu.pl/images/stairs_white.svg" /> 
    <image x="61.78" y="36.580000000000005" width="3.039999999999998" height="3.039999999999998" href="http://mapy.utp.edu.pl/images/toilet_white.svg" /> 
    <image x="57.741163577856646" y="37.241163577856646" width="1.71767284428671" height="1.71767284428671" href="http://mapy.utp.edu.pl/images/toilet_white.svg" /> 
    <image x="40.26" y="31.059999999999995" width="3.680000000000007" height="3.680000000000007" href="http://mapy.utp.edu.pl/images/toilet_white.svg" /> 
    <text x="90.0" y="46.5" alignment-baseline="middle" text-anchor="middle" fill="white" font-weight="normal" font-size="0.819999999999999" font-family="Open Sans">
     306c
    </text> 
    <text x="90.0" y="42.8" alignment-baseline="middle" text-anchor="middle" fill="white" font-weight="normal" font-size="0.35999999999999943" font-family="Open Sans">
     306a
    </text> 
    <text x="91.6" y="42.85" alignment-baseline="middle" text-anchor="middle" fill="white" font-weight="normal" font-size="0.4200000000000017" font-family="Open Sans">
     306b
    </text> 
    <text x="80.2" y="38.1" alignment-baseline="middle" text-anchor="middle" fill="white" font-weight="normal" font-size="0.7599999999999995" font-family="Open Sans">
     304
    </text> 
    <text x="73.55" y="38.1" alignment-baseline="middle" text-anchor="middle" fill="white" font-weight="normal" font-size="0.7599999999999995" font-family="Open Sans">
     303
    </text> 
    <text x="68.4" y="38.1" alignment-baseline="middle" text-anchor="middle" fill="white" font-weight="normal" font-size="0.5199999999999989" font-family="Open Sans">
     314
    </text> 
    <text x="56.2" y="38.1" alignment-baseline="middle" text-anchor="middle" fill="white" font-weight="normal" font-size="0.3200000000000003" font-family="Open Sans">
     300
    </text> 
    <text x="52.45" y="38.1" alignment-baseline="middle" text-anchor="middle" fill="white" font-weight="normal" font-size="0.7599999999999995" font-family="Open Sans">
     302
    </text> 
    <text x="46.95" y="38.1" alignment-baseline="middle" text-anchor="middle" fill="white" font-weight="normal" font-size="0.7599999999999995" font-family="Open Sans">
     301
    </text> 
    <text x="86.7" y="45.6" alignment-baseline="middle" text-anchor="middle" fill="white" font-weight="normal" font-size="0.9400000000000006" font-family="Open Sans">
     307
    </text> 
    <text x="79.30000000000001" y="45.6" alignment-baseline="middle" text-anchor="middle" fill="white" font-weight="normal" font-size="1.0" font-family="Open Sans">
     308
    </text> 
    <text x="69.5" y="45.6" alignment-baseline="middle" text-anchor="middle" fill="white" font-weight="normal" font-size="1.0" font-family="Open Sans">
     309
    </text> 
    <text x="62.150000000000006" y="45.6" alignment-baseline="middle" text-anchor="middle" fill="white" font-weight="normal" font-size="0.9799999999999983" font-family="Open Sans">
     310
    </text> 
    <text x="57.3" y="45.6" alignment-baseline="middle" text-anchor="middle" fill="white" font-weight="normal" font-size="0.9600000000000009" font-family="Open Sans">
     311
    </text> 
    <text x="49.95" y="45.6" alignment-baseline="middle" text-anchor="middle" fill="white" font-weight="normal" font-size="1.0" font-family="Open Sans">
     312
    </text> 
    <text x="39.45" y="45.6" alignment-baseline="middle" text-anchor="middle" fill="white" font-weight="normal" font-size="1.0" font-family="Open Sans">
     313
    </text> 
    <text x="85.2" y="38.4" alignment-baseline="middle" text-anchor="middle" fill="white" font-weight="normal" font-size="0.7599999999999995" font-family="Open Sans">
     305
    </text> 
   </g> 
  </g> 
 </g> 
</svg>